<?xml version="1.0" encoding="UTF-8" standalone="no"?>
<!DOCTYPE svg PUBLIC "-//W3C//DTD SVG 1.1//EN" "http://www.w3.org/Graphics/SVG/1.1/DTD/svg11.dtd">
<svg width="100%" height="100%" viewBox="0 0 48 48" version="1.1" xmlns="http://www.w3.org/2000/svg" xmlns:xlink="http://www.w3.org/1999/xlink" xml:space="preserve" xmlns:serif="http://www.serif.com/" style="fill-rule:evenodd;clip-rule:evenodd;stroke-linejoin:round;stroke-miterlimit:2;">
    <g transform="matrix(1.30076,0,0,1.30076,-7.21816,-7.29335)">
        <path d="M38.1,16.4C38.1,15.7 37.5,15.1 36.8,15.1C28.2,14.5 19.8,14.5 11.2,15.1C10.5,15.1 9.9,15.7 9.9,16.4C9.6,21.6 9.6,26.9 9.9,32.1C9.9,32.8 10.5,33.4 11.2,33.4C19.8,34 28.2,34 36.8,33.4C37.5,33.4 38.1,32.8 38.1,32.1C38.4,26.8 38.4,21.6 38.1,16.4ZM29,24.6L21.3,29C21,29.2 20.7,29 20.7,28.6L20.7,19.7C20.7,19.4 21,19.1 21.3,19.3L29,23.7C29.3,24 29.3,24.4 29,24.6Z" style="fill:white;fill-rule:nonzero;"/>
    </g>
</svg>
