<?xml version="1.0" encoding="UTF-8" standalone="no"?>
<!DOCTYPE svg PUBLIC "-//W3C//DTD SVG 1.1//EN" "http://www.w3.org/Graphics/SVG/1.1/DTD/svg11.dtd">
<svg width="100%" height="100%" viewBox="0 0 48 48" version="1.1" xmlns="http://www.w3.org/2000/svg" xmlns:xlink="http://www.w3.org/1999/xlink" xml:space="preserve" xmlns:serif="http://www.serif.com/" style="fill-rule:evenodd;clip-rule:evenodd;stroke-linejoin:round;stroke-miterlimit:2;">
    <path d="M34.6,33.7C34.6,35.4 33.5,36.4 32,36.4C30.5,36.4 29.4,35.4 29.4,33.7L29.4,26.2L18.7,26.2L18.7,33.7C18.7,35.4 17.6,36.4 16.1,36.4C14.6,36.4 13.5,35.4 13.5,33.7L13.5,14.3C13.5,12.6 14.6,11.6 16.1,11.6C17.6,11.6 18.7,12.6 18.7,14.3L18.7,21.6L29.5,21.6L29.5,14.3C29.5,12.6 30.6,11.6 32.1,11.6C33.6,11.6 34.7,12.6 34.7,14.3L34.7,33.7L34.6,33.7Z" style="fill-rule:nonzero;"/>
</svg>
