<?xml version="1.0" encoding="UTF-8" standalone="no"?>
<!DOCTYPE svg PUBLIC "-//W3C//DTD SVG 1.1//EN" "http://www.w3.org/Graphics/SVG/1.1/DTD/svg11.dtd">
<svg width="100%" height="100%" viewBox="0 0 48 48" version="1.1" xmlns="http://www.w3.org/2000/svg" xmlns:xlink="http://www.w3.org/1999/xlink" xml:space="preserve" xmlns:serif="http://www.serif.com/" style="fill-rule:evenodd;clip-rule:evenodd;stroke-linejoin:round;stroke-miterlimit:2;">
    <path d="M33.2,33.3C33.2,34.9 32.2,36 30.7,36C29.2,36 28.2,34.9 28.2,33.3L28.2,24.7C28.2,22.4 26.8,21.3 25,21.3C23,21.3 21.8,22.8 21.8,24.7L21.8,33.3C21.8,34.9 20.8,36 19.3,36C17.8,36 16.8,34.9 16.8,33.3L16.8,12.2C16.8,10.6 17.8,9.5 19.3,9.5C20.8,9.5 21.8,10.6 21.8,12.2L21.8,18.9L21.9,18.9C22.9,17.6 24.9,17.2 26.4,17.2C30.3,17.2 33.2,19.7 33.2,23.9L33.2,33.3Z" style="fill-rule:nonzero;"/>
</svg>
