<?xml version="1.0" encoding="UTF-8" standalone="no"?>
<!DOCTYPE svg PUBLIC "-//W3C//DTD SVG 1.1//EN" "http://www.w3.org/Graphics/SVG/1.1/DTD/svg11.dtd">
<svg width="100%" height="100%" viewBox="0 0 48 48" version="1.1" xmlns="http://www.w3.org/2000/svg" xmlns:xlink="http://www.w3.org/1999/xlink" xml:space="preserve" xmlns:serif="http://www.serif.com/" style="fill-rule:evenodd;clip-rule:evenodd;stroke-linejoin:round;stroke-miterlimit:2;">
    <path d="M26.805,33.393L36.129,24.069L26.805,14.745C26.342,14.283 26.342,13.512 26.805,12.973C27.036,12.742 27.344,12.588 27.652,12.588C27.961,12.588 28.269,12.742 28.5,12.973L38.749,23.222C38.98,23.453 39.134,23.761 39.134,24.069C39.134,24.377 38.98,24.686 38.749,24.917L28.577,35.166C28.115,35.628 27.344,35.628 26.805,35.166C26.342,34.703 26.342,33.933 26.805,33.393ZM21.258,14.707L11.934,24.031L21.258,33.355C21.72,33.817 21.72,34.588 21.258,35.127C21.027,35.358 20.718,35.512 20.41,35.512C20.102,35.512 19.794,35.358 19.563,35.127L9.314,24.878C9.083,24.647 8.929,24.339 8.929,24.031C8.929,23.723 9.083,23.414 9.314,23.183L19.486,12.934C19.948,12.472 20.718,12.472 21.258,12.934C21.72,13.397 21.72,14.167 21.258,14.707Z" style="fill-rule:nonzero;"/>
</svg>
