<?xml version="1.0" encoding="UTF-8" standalone="no"?>
<!DOCTYPE svg PUBLIC "-//W3C//DTD SVG 1.1//EN" "http://www.w3.org/Graphics/SVG/1.1/DTD/svg11.dtd">
<svg width="100%" height="100%" viewBox="0 0 48 48" version="1.1" xmlns="http://www.w3.org/2000/svg" xmlns:xlink="http://www.w3.org/1999/xlink" xml:space="preserve" xmlns:serif="http://www.serif.com/" style="fill-rule:evenodd;clip-rule:evenodd;stroke-linejoin:round;stroke-miterlimit:2;">
    <path d="M14.2,36.1C12.6,36.1 11.3,34.8 11.3,33.2C11.3,31.6 12.6,30.3 14.2,30.3C15.8,30.3 17.1,31.6 17.1,33.2C17.1,34.8 15.8,36.1 14.2,36.1ZM14.2,26.9C12.6,26.9 11.3,25.6 11.3,24C11.3,22.4 12.6,21.1 14.2,21.1C15.8,21.1 17.1,22.4 17.1,24C17.1,25.6 15.8,26.9 14.2,26.9ZM14.2,17.7C12.6,17.7 11.3,16.4 11.3,14.8C11.3,13.2 12.6,11.9 14.2,11.9C15.8,11.9 17.1,13.2 17.1,14.8C17.1,16.4 15.8,17.7 14.2,17.7ZM33.9,36.1L21.8,36.1C20.2,36.1 18.9,34.8 18.9,33.2C18.9,31.6 20.2,30.3 21.8,30.3L34,30.3C35.6,30.3 36.9,31.6 36.9,33.2C36.8,34.8 35.5,36.1 33.9,36.1ZM33.9,26.9L21.8,26.9C20.2,26.9 18.9,25.6 18.9,24C18.9,22.4 20.2,21.1 21.8,21.1L34,21.1C35.6,21.1 36.9,22.4 36.9,24C36.9,25.6 35.5,26.9 33.9,26.9ZM33.9,17.7L21.8,17.7C20.2,17.7 18.9,16.4 18.9,14.8C18.9,13.2 20.2,11.9 21.8,11.9L34,11.9C35.6,11.9 36.9,13.2 36.9,14.8C36.8,16.4 35.5,17.7 33.9,17.7Z" style="fill-rule:nonzero;"/>
</svg>
