<svg xmlns="http://www.w3.org/2000/svg"><symbol fill-rule="evenodd" clip-rule="evenodd" stroke-linejoin="round" stroke-miterlimit="2" id="sprite-admin_button" viewBox="0 0 48 48"><title>admin_button</title><path d="M31.381 46.413c-2.275.683-4.664 1.138-7.167 1.138H24.1c-1.024 0-1.82-.114-2.844-.228v-3.982h2.389c.91 0 1.593-.682 1.593-1.593 0-.91-.683-1.592-1.593-1.592h-2.389v-2.731h2.389c.91 0 1.593-.683 1.593-1.593 0-.91-.683-1.593-1.593-1.593h-2.389v-2.73h2.389c.91 0 1.593-.683 1.593-1.593 0-.91-.683-1.593-1.593-1.593h-2.389v-2.73h2.389c.91 0 1.593-.683 1.593-1.593 0-.91-.683-1.593-1.593-1.593h-2.389v-2.958h2.389c.91 0 1.593-.683 1.593-1.593 0-.91-.683-1.593-1.593-1.593h-2.389v-2.161h10.125v32.311zm1.821-36.976c-.683 0-1.365.455-1.593 1.138H19.435c-1.024 0-1.706.796-1.706 1.706v3.982h-2.617c-.91 0-1.593.683-1.593 1.593 0 .91.683 1.593 1.593 1.593h2.617v2.617h-2.503c-.91 0-1.593.683-1.593 1.593 0 .91.683 1.592 1.593 1.592h2.503v2.731h-2.617c-.91 0-1.593.683-1.593 1.593 0 .91.683 1.593 1.593 1.593h2.617v2.73h-2.617c-.91 0-1.593.683-1.593 1.593 0 .91.683 1.593 1.593 1.593h2.617v2.73h-2.503c-.91 0-1.593.683-1.593 1.593 0 .91.683 1.593 1.593 1.593h2.503v3.754a23.716 23.716 0 01-17.18-22.64C.435 11.144 10.902.563 23.986.449c8.078 0 15.132 3.982 19.455 10.126h-8.533c-.341-.683-1.024-1.138-1.706-1.138zm7.623 31.174c-1.707 1.706-3.755 3.299-5.917 4.323V14.102h10.467c1.366 2.958 2.162 6.257 2.276 9.784 0 6.258-2.389 12.174-6.826 16.725z"/></symbol><symbol id="sprite-admin" viewBox="0 0 48 48"><title>icon</title><path d="M24.1.1C10.7.2 0 11 .2 24.2.3 37.3 11 48 24.1 48h.2c6.4-.1 12.4-2.6 16.9-7.1s7-10.6 6.9-17C47.9 10.8 37.2.1 24.1.1zm6.4 43.6c-2 .6-4.1 1-6.3 1h-.1c-.9 0-1.6-.1-2.5-.2V41h2.1c.8 0 1.4-.6 1.4-1.4 0-.8-.6-1.4-1.4-1.4h-2.1v-2.4h2.1c.8 0 1.4-.6 1.4-1.4 0-.8-.6-1.4-1.4-1.4h-2.1v-2.4h2.1c.8 0 1.4-.6 1.4-1.4s-.6-1.4-1.4-1.4h-2.1v-2.4h2.1c.8 0 1.4-.6 1.4-1.4 0-.8-.6-1.4-1.4-1.4h-2.1V20h2.1c.8 0 1.4-.6 1.4-1.4 0-.8-.6-1.4-1.4-1.4h-2.1v-1.9h8.9v28.4zm1.6-32.5c-.6 0-1.2.4-1.4 1H20c-.9 0-1.5.7-1.5 1.5v3.5h-2.3c-.8 0-1.4.6-1.4 1.4s.6 1.4 1.4 1.4h2.3v2.3h-2.2c-.8 0-1.4.6-1.4 1.4s.6 1.4 1.4 1.4h2.2v2.4h-2.3c-.8 0-1.4.6-1.4 1.4 0 .8.6 1.4 1.4 1.4h2.3v2.4h-2.3c-.8 0-1.4.6-1.4 1.4 0 .8.6 1.4 1.4 1.4h2.3v2.4h-2.2c-.8 0-1.4.6-1.4 1.4 0 .8.6 1.4 1.4 1.4h2.2V44c-8.7-2.5-15-10.4-15.1-19.9C3.3 12.7 12.5 3.4 24 3.3c7.1 0 13.3 3.5 17.1 8.9h-7.5c-.3-.6-.9-1-1.5-1zm6.7 27.4c-1.5 1.5-3.3 2.9-5.2 3.8V15.3h9.2c1.2 2.6 1.9 5.5 2 8.6 0 5.5-2.1 10.7-6 14.7z"/></symbol><symbol id="sprite-anchor_button" viewBox="0 0 48 48"><title>anchor_button</title><path class="fg" d="M40.3 7.8c-9-9-23.5-9-32.5 0s-9 23.5 0 32.5 23.5 9 32.5 0 8.9-23.5 0-32.5zM23.2 36.1c-1.6 1.6-3.7 2.6-6 2.5-2.2-.1-4.1-.9-5.6-2.5-3-3.2-2.8-8.2.3-11.3l4.9-4.9c.1-.1.2-.2.3-.2.4-.4 1-.8 1.6-1.1 1.5-.8 3.2-1.1 4.9-.9.4 0 .8.1 1.2.2.4.1.8.2 1.1.4.8.4 1.5.9 2.2 1.5.8.8.7 2.2-.1 3l-1 1c-.1.2-.3.3-.5.4-.2-.7-.6-1.4-1.1-1.9-.6-.6-1.4-1-2.2-1.2-.3-.1-.6-.1-.9-.1h-.2c-.4.1-.7.1-1.1.2-.7.2-1.4.6-1.9 1.1l-4.9 4.9c-.7.7-1.3 1.7-1.4 2.8-.1 1.2.3 2.5 1.2 3.4.9.9 2.1 1.4 3.4 1.2 1.1-.1 2-.6 2.8-1.4l.9-.9c.5-.5 1.2-.6 1.8-.4.4.1.8.2 1.2.2.4.1.7.1 1.1.1.4 0 .8-.1 1.2-.1l-3.2 4zm12.9-12.8l-4.9 4.9c-.1.1-.2.2-.3.2-.4.4-1 .9-1.6 1.2-1.2.6-2.5.9-3.8.9-.4 0-.7 0-1.1-.1-.4 0-.8-.1-1.2-.2-.4-.1-.8-.2-1.1-.4-.8-.4-1.5-.9-2.2-1.5-.8-.8-.8-2.2.1-3l1-1c.2-.2.4-.3.6-.4.2.7.6 1.4 1.1 1.9.6.6 1.4 1 2.2 1.2.3.1.6.1.9.1h.1c.4-.1.7-.1 1.1-.2.7-.2 1.4-.6 1.9-1.1l4.9-4.9c1.6-1.6 1.9-4.2.4-5.9-.9-1.1-2.2-1.7-3.7-1.5-1.1.1-2.1.6-2.8 1.4l-1 1c-.4.4-.9.5-1.4.3-.4-.1-.8-.2-1.2-.2-.9-.1-1.8-.1-2.7.1l3.7-3.7c1.6-1.6 3.7-2.6 6-2.5 2.2.1 4.1.9 5.6 2.5 2.8 2.6 2.6 7.7-.6 10.9z"/></symbol><symbol id="sprite-bold_button" viewBox="0 0 48 48"><title>bold_button</title><path class="fg" d="M26.5 18.4c0-1.6-1.3-2.4-2.8-2.4H21v5.1h2.7c1.7 0 2.8-1 2.8-2.7zm-1.8 7.3H21v5.7h4c1.9 0 3.2-1.1 3.2-3 .1-1.6-1.1-2.7-3.5-2.7z"/><path class="fg" d="M40.3 7.8c-9-9-23.5-9-32.5 0s-9 23.5 0 32.5 23.5 9 32.5 0 8.9-23.5 0-32.5zM25.7 35.9h-7.1c-1.6 0-2.7-1-2.7-2.6V14c0-1.6 1.1-2.6 2.7-2.6h6.6c3.6 0 6.5 2.4 6.5 6 0 2.4-1 4-3.2 5v.1c2.9.4 5.2 2.8 5.2 5.8 0 5-3.3 7.6-8 7.6z"/></symbol><symbol fill-rule="evenodd" clip-rule="evenodd" stroke-linejoin="round" stroke-miterlimit="2" id="sprite-branch" viewBox="0 0 48 48"><title>branch</title><path d="M47.6 24v.3c0 12.3-10 23.4-23.3 23.6C11.2 48.1.6 37.4.4 24.6.2 11.4 10.8.8 23.9.7h.2C37 .7 47.4 11.2 47.6 24zm-30.686 8.827h10.472c.2 0 .3 0 .4-.2.7-1.6 2.4-2.6 4.1-2.5 1.9.1 3.6 1.7 3.8 3.7v.5c0 2.1-1.5 3.8-3.5 4.2-1.9.3-3.7-.7-4.5-2.4-.1-.2-.2-.2-.3-.2H15.462c-.9 0-1.4-.5-1.6-1.3-.031-.139-.041-.279-.031-.415a.411.411 0 01-.017-.098V19.027a4.27 4.27 0 01-2.1-2.08c-.1-.2-.2-.2-.3-.2H4.985A20.715 20.715 0 003.5 24.3c0 11.1 9 20.4 20.3 20.4 11.5 0 20.6-9.1 20.6-20.4 0-11.1-9-20.4-20.5-20.4-7.278 0-13.74 3.869-17.354 9.747h4.868c.2 0 .3 0 .4-.2.7-1.6 2.4-2.6 4.1-2.5 1.9.1 3.6 1.7 3.8 3.7v.5c0 1.846-1.16 3.384-2.8 4v3.845h10.472c.2 0 .3 0 .4-.2.7-1.6 2.4-2.6 4.1-2.5 1.9.1 3.6 1.7 3.8 3.7v.5c0 2.1-1.5 3.8-3.5 4.2-1.9.3-3.7-.7-4.5-2.4-.1-.2-.2-.2-.3-.2H16.914v6.735zm14.572 2.9c.7 0 1.4-.7 1.4-1.5s-.6-1.4-1.4-1.4c-.8 0-1.4.6-1.4 1.4 0 .9.6 1.5 1.4 1.5zm0-9.835c.7 0 1.4-.7 1.4-1.5s-.6-1.4-1.4-1.4c-.8 0-1.4.6-1.4 1.4 0 .9.6 1.5 1.4 1.5zm-15.972-9.345c.7 0 1.4-.7 1.4-1.5s-.6-1.4-1.4-1.4c-.8 0-1.4.6-1.4 1.4 0 .9.6 1.5 1.4 1.5z" fill-rule="nonzero"/></symbol><symbol id="sprite-chosen" viewBox="0 0 48 48"><title>chosen</title><path d="M24.3.3c13 .2 23.5 10.9 23.4 24C47.5 37.2 37 47.7 24 47.7h-.3C10.9 47.6.3 37 .3 24v-.4C.5 10.8 11.2.1 24.3.3zm10.2 15c-.7-.2-1.5 0-1.9.5L20 28.4l-4.7-4.7c-.5-.6-1.3-.8-2-.5-.7.2-1.1.9-1.1 1.6 0 .5.4 1 .5 1.2l6 6c.3.3.8.5 1.3.5s.9-.2 1.3-.5l13.8-13.8c.2-.2.6-.7.6-1.3-.1-.7-.5-1.3-1.2-1.6z" fill="#74b87a"/></symbol><symbol id="sprite-clear_button" viewBox="0 0 48 48"><title>clear_button</title><path class="fg" d="M40.3 7.8c-9-9-23.5-9-32.5 0s-9 23.5 0 32.5 23.5 9 32.5 0 8.9-23.5 0-32.5zM26.8 24.1l8.5 8.5c.7.7.8 1.8.1 2.5-.7.8-1.8.8-2.6.1l-.2-.2-8.4-8.4-.2-.2-.2.2-8.5 8.5c-.8.8-2 .8-2.7-.1-.6-.7-.5-1.7.1-2.4l1.5-1.5 7.1-7.1c0-.1.1-.1.2-.1-.1-.1-.1-.2-.2-.2l-8.5-8.5c-.7-.7-.8-1.8-.1-2.5.7-.8 1.8-.8 2.6-.1l.2.2 8.4 8.4c.1.1.1.1.2.3.1-.1.1-.2.2-.2l8.5-8.5c.7-.9 2-.8 2.7 0 .6.7.5 1.7-.1 2.4l-.8.8-7.8 7.8c-.1 0-.1.1-.2.1l.2.2z"/></symbol><symbol id="sprite-close" viewBox="0 0 48 48"><title>close</title><path d="M41.2 7.1c-.6-.6-1.7-.6-2.3 0L24.1 21.9 9.3 6.9c-.6-.6-1.6-.6-2.3 0-.6.6-.6 1.7 0 2.3l14.8 15L6.8 39c-.6.6-.6 1.7 0 2.3.4.4.8.4 1.3.4.4 0 .8 0 1.3-.4l14.8-14.8L39 41.3c.4.4.8.4 1.3.4s.8 0 1.3-.4c.6-.6.6-1.7 0-2.3l-15-14.8L41.2 9.4c.6-.6.6-1.7 0-2.3z"/></symbol><symbol id="sprite-cog_button" viewBox="0 0 100 100"><title>cog_button</title><path class="fg" d="M50 5C25.3 5 5.2 25.1 5 49.7c-.1 12 4.5 23.4 13 31.9 8.4 8.6 19.7 13.3 31.7 13.4h.3c24.7 0 44.8-20.1 45-44.7C95.2 25.5 75.1 5.2 50 5zm23.9 51.1c-.1.5-.3 1-.4 1.4-.2.5-.3 1-.5 1.5-.4 1.1-1.6 1.6-2.7 1.3-.9-.3-2 .1-2.5.9-1.1 1.7-2.3 3.2-3.8 4.5-.7.7-1 1.7-.5 2.6.5 1 .2 2.3-.8 2.9-.9.5-1.8 1-2.8 1.4-1 .5-2.3 0-2.8-1-.5-.9-1.5-1.3-2.4-1.1-1.9.4-3.9.6-5.8.5-1-.1-1.9.6-2.2 1.5-.4 1.1-1.5 1.7-2.6 1.4-.5-.1-1-.3-1.5-.4-.5-.2-1-.3-1.5-.5-1.1-.4-1.6-1.6-1.3-2.7.3-.9-.1-2-.9-2.5-1.7-1.1-3.2-2.3-4.5-3.8-.7-.7-1.7-1-2.6-.5-1 .5-2.3.2-2.9-.8-.5-.9-1-1.8-1.4-2.8-.5-1 0-2.3 1-2.8.9-.5 1.3-1.5 1.1-2.4-.4-1.9-.6-3.8-.5-5.8.1-1-.6-1.9-1.5-2.2-1.1-.4-1.7-1.5-1.4-2.6.1-.5.3-1 .4-1.5.2-.5.3-.9.5-1.4.4-1.1 1.6-1.7 2.7-1.3.9.3 2-.1 2.5-.9 1.1-1.7 2.3-3.2 3.8-4.5.7-.7 1-1.7.5-2.6v-.1c-.5-1-.2-2.3.8-2.9.9-.5 1.8-1 2.8-1.4 1-.5 2.3 0 2.8 1v.1c.5.9 1.5 1.3 2.4 1.1 1.9-.4 3.8-.6 5.8-.5 1 .1 1.9-.6 2.2-1.5v-.1c.4-1.1 1.5-1.7 2.6-1.4.5.1 1 .3 1.5.4.5.2 1 .3 1.5.5 1.1.4 1.6 1.6 1.3 2.7v.1c-.3.9.1 2 .9 2.5 1.7 1.1 3.2 2.3 4.5 3.8.7.7 1.7 1 2.6.5h.1c1-.5 2.3-.2 2.9.8.5.9 1 1.8 1.4 2.8.5 1 0 2.3-1 2.8h-.1c-.9.5-1.3 1.5-1.1 2.4.4 1.9.6 3.8.5 5.8-.1 1 .6 1.9 1.5 2.2 1 .4 1.7 1.5 1.4 2.6z"/></symbol><symbol id="sprite-cross_button" viewBox="0 0 48 48"><title>cross_button</title><path d="M41 7.5C31.8-2 16.7-2 7.5 7c-.1.1-.2.2-.3.2C-2 16.4-2 31.4 7 40.5l.2.2c9.2 9.2 24 9.2 33.3.2 9.4-9.1 9.5-24.1.5-33.4zm-7 26.8c-.7.6-1.7.6-2.4-.1L24 26.6l-7.5 7.5c-.7.7-1.9.8-2.5.1-.7-.7-.7-1.7 0-2.5l.2-.2 7.4-7.4-7.6-7.7c-.4-.4-.6-.9-.6-1.5.1-.5.3-1 .7-1.3.7-.6 1.6-.5 2.4.1l7.6 7.6 7.6-7.6c.7-.7 1.9-.8 2.5-.1.4.4.6.8.6 1.3.1.5-.1 1-.5 1.3l-.3.3-7.4 7.4-.1.1 7.4 7.4c.4.3.6.8.6 1.3.2.6 0 1.2-.5 1.6z"/></symbol><symbol id="sprite-cross" viewBox="0 0 48 48"><title>cross</title><path d="M7.5 7c9.3-9 24.3-8.9 33.5.5 9 9.3 9 24.1-.2 33.3l-.2.2c-9.1 9-24.1 9-33.3-.2l-.3-.3c-8.9-9.2-8.9-24.3.5-33.5zm36.2 11.3c-1-3.5-2.8-6.6-5.5-9.2-7.9-7.4-20.2-7.5-28.1-.2-7.8 7.3-8.8 19.5-1.9 27.9 3.2 3.9 7.2 6.4 12.2 7.2 6.9 1.1 12.9-.8 18.1-5.5l.1-.1.1-.1c2.7-2.7 4.4-5.8 5.3-9.4.7-3.4.6-7-.3-10.6zM34.1 14c.5.6.4 1.5-.1 2.1l-.7.7-6.9 6.9c-.1 0-.1.1-.2.1l.2.2 7.5 7.5c.6.6.7 1.6.1 2.2-.6.7-1.6.7-2.3.1l-.2-.2-7.4-7.4-.2-.2-.2.2-7.5 7.5c-.7.7-1.8.7-2.4-.1-.5-.6-.4-1.5.1-2.1l1.3-1.3 6.3-6.3c0-.1.1-.1.2-.1-.1-.1-.1-.2-.2-.2L14 16.1c-.6-.6-.7-1.6-.1-2.2.6-.7 1.6-.7 2.3-.1l.2.2 7.4 7.4c.1.1.1.1.2.4.1-.1.1-.2.2-.2l7.5-7.5c.6-.8 1.8-.7 2.4-.1z"/></symbol><symbol fill-rule="evenodd" clip-rule="evenodd" stroke-linejoin="round" stroke-miterlimit="2" id="sprite-doc" viewBox="0 0 100 100"><title>doc</title><path d="M90.055 18.158c0-6.391-5.188-11.58-11.579-11.58H23.01c-6.391 0-11.579 5.189-11.579 11.58v61.279c0 6.391 5.188 11.579 11.579 11.579h55.466c6.391 0 11.579-5.188 11.579-11.579V18.158zm-4 37.475H15.431v23.804a7.583 7.583 0 007.579 7.579h55.466a7.583 7.583 0 007.579-7.579V55.633zm-6.814 7.214v3.529c-1.721-1.441-3.503-2.161-5.344-2.161-2.028 0-3.737.729-5.127 2.186-1.398 1.449-2.096 3.222-2.096 5.319 0 2.071.698 3.818 2.096 5.242 1.398 1.423 3.111 2.135 5.14 2.135 1.048 0 1.939-.171 2.672-.511a7.742 7.742 0 001.272-.691c.439-.29.902-.639 1.387-1.048v3.592c-1.704.964-3.494 1.445-5.369 1.445-2.822 0-5.23-.984-7.224-2.953-1.986-1.986-2.979-4.381-2.979-7.186 0-2.514.831-4.756 2.493-6.725 2.046-2.412 4.692-3.618 7.94-3.618 1.773 0 3.486.482 5.139 1.445zm-38.969 8.719c0-2.778 1.018-5.165 3.056-7.159 2.028-1.995 4.466-2.992 7.313-2.992 2.813 0 5.225 1.006 7.236 3.017 2.02 2.012 3.03 4.428 3.03 7.249 0 2.839-1.014 5.247-3.043 7.224-2.037 1.986-4.496 2.979-7.377 2.979-2.548 0-4.837-.882-6.865-2.646-2.234-1.952-3.35-4.509-3.35-7.672zm-18.027 9.96v-19.74h4.142c1.986 0 3.554.196 4.705.588 1.236.383 2.357 1.035 3.363 1.956 2.037 1.858 3.055 4.3 3.055 7.326 0 3.034-1.061 5.489-3.183 7.364-1.066.938-2.182 1.59-3.35 1.956-1.091.367-2.638.55-4.641.55h-4.091zm21.031-9.921c0 2.182.733 3.976 2.2 5.382 1.457 1.407 3.14 2.11 5.05 2.11 2.071 0 3.818-.716 5.242-2.148 1.423-1.449 2.135-3.213 2.135-5.293 0-2.105-.703-3.87-2.11-5.293-1.398-1.432-3.128-2.148-5.191-2.148-2.054 0-3.788.716-5.203 2.148-1.415 1.415-2.123 3.162-2.123 5.242zm-18.052 7.121h1.342c1.338 0 2.451-.14 3.337-.422a6.77 6.77 0 002.404-1.419c1.466-1.338 2.199-3.081 2.199-5.229 0-2.165-.725-3.921-2.174-5.268-1.304-1.201-3.226-1.802-5.766-1.802h-1.342v14.14zm38.81-31.878H21.675V50h42.359v-3.152zm14.42-6.048H21.493v3.153h56.961V40.8zm-4.229-6.047H21.463v3.153h52.762v-3.153zm-2.921-6.047H21.362v3.153h49.942v-3.153zm5.66-6.047H21.39v3.152h55.574v-3.152zm-19.74-8.528H21.362v5.211h35.862v-5.211z"/></symbol><symbol id="sprite-document_button" viewBox="0 0 48 48"><title>document_button</title><path class="fg" d="M24.6 22.3c.7.9 1.5 1.9 2.4 2.9h-.1c-1.2.1-2.9.4-4.9.8.8-1.5 1.5-3.1 2.1-4.5.1.3.2.6.5.8zm-.8-7.8c.2-3.1-.3-3.9-.4-4-.1 0-.3.3-.5.8-.5 1.4-.2 3.4.5 5.3.2-.9.4-1.6.4-2.1zm-11 20.1c.4 0 .7-.1 1-.4.7-.5 2-2 3.3-4.2-1.1.5-2 1.2-2.7 1.9-1.5 1.6-1.7 2.5-1.6 2.7zM40.7 41c-4.4 4.4-10.3 6.8-16.6 6.8-6.5 0-12.4-2.4-16.9-7C2.7 36.3.3 30.4.3 24c.1-6.3 2.5-12.2 7.1-16.7C11.8 2.9 17.7.5 24 .5c6.4 0 12.3 2.5 16.9 7 9.2 9.4 9.1 24.4-.2 33.5zm-1.8-13.3c-1-1.7-3.9-2.6-8.2-2.6h-1c-1.2-1.3-2.4-2.8-3.4-4.1-.5-.6-1-1.2-1.4-1.8.6-1.9 1-3.4 1.1-4.5.2-2.9-.1-4.8-1-5.7-.6-.6-1.5-.9-2.3-.6-.6.2-1.4.7-1.9 2.1-.7 2.1-.4 5.9 1.6 8.9-.9 2.3-2.1 4.9-3.4 7.4-2.5.9-4.6 2.1-6.1 3.5-1.9 1.9-2.7 3.7-2.1 5.1.4.9 1.1 1.4 2.1 1.4.7 0 1.4-.2 2.1-.7 1.8-1.2 4.2-5.1 5.4-7.4 2.6-.8 5.2-1.1 6.5-1.3.6 0 1.2-.1 1.8-.1 2.3 2.4 4.2 3.7 5.9 4 .4 0 .7.1 1 .1 1.4 0 2.6-.5 3.1-1.5.6-.7.6-1.5.2-2.2zm-7-.4c1.3 1.1 2.3 1.7 3.2 1.9h.6c.7 0 1.1-.2 1.2-.4v-.1c-.2-.5-1.6-1.3-5-1.4z"/></symbol><symbol id="sprite-document" viewBox="0 0 48 48"><title>document</title><path class="fg" d="M40.9 7.5C36.3 3 30.4.5 24 .5 17.7.5 11.8 2.9 7.4 7.3 2.8 11.8.4 17.7.3 24c0 6.4 2.4 12.3 6.9 16.8 4.5 4.6 10.4 7 16.9 7 6.3 0 12.2-2.4 16.6-6.8 9.3-9.1 9.4-24.1.2-33.5zm-2.5 31.3c-3.8 3.8-8.9 6-14.4 6s-10.7-2.1-14.6-6.1c-3.9-4-6-9-6-14.6 0-5.4 2.2-10.6 6.1-14.5 3.9-3.9 8.9-6 14.4-6s10.7 2.1 14.6 6.1c8.1 8.1 8 21.1-.1 29.1zm-1.6-12.1c-.8-1.5-3.3-2.3-7.1-2.3H29c-1-1.2-2.1-2.4-2.8-3.3l-.2-.3c-.3-.4-.6-.7-.8-1.1.5-1.5.8-2.8.9-3.7.2-2.5-.1-4.1-.9-4.9-.6-.6-1.4-.8-2.2-.6-.5.1-1.3.6-1.7 1.9-.6 1.7-.4 4.8 1.3 7.6-.7 1.8-1.7 3.9-2.8 5.9-2.1.8-3.8 1.7-5.1 2.9-1.7 1.6-2.3 3.3-1.8 4.5.3.8 1.1 1.3 2 1.3.6 0 1.3-.2 1.9-.6 1.4-.9 3.3-3.8 4.6-6.2 1.5-.5 3.3-.8 5.3-1l1.4-.1c1.9 2 3.5 3.1 5 3.4h.1c.3 0 .5.1.8.1 1.3 0 2.3-.5 2.8-1.4.3-.7.3-1.4 0-2.1zm-2.1 1c-.1.1-.3.1-.7.1h-.5c-.6-.1-1.2-.5-2-1 2 .2 2.9.7 3.2.9zm-19.6 4.6c.1-.3.4-.9 1.2-1.8.4-.4.9-.7 1.3-1-.9 1.4-1.7 2.3-2.1 2.6-.2.1-.3.2-.4.2zm9.1-10.1l.3.3c.5.6 1.1 1.3 1.7 2-.9.1-2.1.3-3.3.5.4-1 .9-1.9 1.3-2.8zm-.5-6.4c0 .2-.1.5-.1.8-.4-1.3-.4-2.6-.1-3.5 0-.1.1-.2.1-.3.1.5.3 1.3.1 3z"/></symbol><symbol fill-rule="evenodd" clip-rule="evenodd" stroke-linejoin="round" stroke-miterlimit="2" id="sprite-download_button" viewBox="0 0 100 100"><title>download_button</title><path d="M53.282 92.392c21.585-1.69 38.8-19.895 39.007-42.064C92.397 26.827 73.638 7.59 50.325 7.48 26.904 7.48 7.928 26.499 7.82 49.781c-.109 11.368 4.229 22.08 12.036 30.059 7.213 7.271 16.441 11.627 26.424 12.513V41.207L30.527 56.96c-1.312 1.313-3.5 1.313-4.813 0-1.313-1.313-1.313-3.501 0-4.813l21.66-21.661c1.094-1.313 3.501-1.313 4.814 0l22.098 21.661c1.313 1.312 1.313 3.5 0 4.813-.656.657-1.75.875-2.626.875-1.094 0-1.969-.218-2.625-.875L53.282 41.207v51.185z" transform="rotate(-180 53.91 53.782) scale(1.15407)"/></symbol><symbol fill-rule="evenodd" clip-rule="evenodd" stroke-linejoin="round" stroke-miterlimit="2" id="sprite-download" viewBox="0 0 100 100"><title>download</title><path d="M50 .813c-26.783 0-48.578 21.97-48.795 48.859-.108 13.117 4.88 25.577 14.097 34.868 9.108 9.401 21.361 14.538 34.373 14.647H50c26.783 0 48.578-21.97 48.795-48.859C99.012 23.22 77.217 1.031 50 .813zm3.282 91.579c21.585-1.69 38.8-19.895 39.007-42.064C92.397 26.827 73.638 7.59 50.325 7.48 26.904 7.48 7.928 26.499 7.82 49.781c-.109 11.368 4.229 22.08 12.036 30.059 7.213 7.271 16.441 11.627 26.424 12.513V41.207L30.527 56.96c-1.312 1.313-3.5 1.313-4.813 0-1.313-1.313-1.313-3.501 0-4.813l21.66-21.661c1.094-1.313 3.501-1.313 4.814 0l22.098 21.661c1.313 1.312 1.313 3.5 0 4.813-.656.657-1.75.875-2.626.875-1.094 0-1.969-.218-2.625-.875L53.282 41.207v51.185z" transform="rotate(-180 50 50)"/></symbol><symbol id="sprite-exit_button" viewBox="0 0 48 48"><title>exit_button</title><style>.st0{fill:#1d1d1b}</style><path class="st0" d="M13.7 36.7V10.4c0-.8.7-1.5 1.5-1.5H33c.8 0 1.5.7 1.5 1.5v26.3h9.3c2.5-3.9 3.9-8.3 3.8-13C47.5 10.8 36.9.2 23.9.2 10.7.3.1 11 .2 24.1c0 4.6 1.4 9 3.8 12.6h9.7z"/><path class="st0" d="M25.2 33V11.9h-8.5v24.3l8.5-3.2zm-1.8-13.2c.6 0 1.1.8 1.1 1.8s-.5 1.8-1.1 1.8-1.1-.8-1.1-1.8.4-1.8 1.1-1.8z"/><path class="st0" d="M33 39.7c-.8 0-1.5-.7-1.5-1.5V11.9h-3.2v21.6c0 1-.7 1.9-1.6 2.2l-10.5 3.9c-.3.1-.6.2-.9.2h-9c4.3 4.8 10.6 7.9 17.6 7.9h.2c6.3-.1 12.3-2.5 16.7-7.1.2-.3.5-.5.7-.8H33z"/></symbol><symbol id="sprite-exit" viewBox="0 0 48 48"><title>exit</title><path d="M23.9.2C10.7.3.1 11 .2 24.1.3 37 10.9 47.6 23.9 47.6h.2c6.3-.1 12.3-2.5 16.7-7.1 4.4-4.6 6.9-10.5 6.8-16.8C47.5 10.8 36.9.2 23.9.2zm-.1 3.2c11.4 0 20.5 9.2 20.6 20.4 0 4.8-1.6 9.3-4.5 12.9h-5.4V10.4c0-.8-.7-1.5-1.5-1.5H15.2c-.8 0-1.5.7-1.5 1.5v26.3H8C5.2 33.2 3.4 28.8 3.4 24c0-11.3 9.1-20.5 20.4-20.6zm1.4 8.5V33l-8.5 3.1V11.9h8.5zM24 44.4c-5 0-9.5-1.8-13-4.7h4.3c.3 0 .6-.1.9-.3v.1l10.5-3.9c1-.3 1.6-1.2 1.6-2.2V11.9h3.2v26.3c0 .8.7 1.5 1.5 1.5h4c-3.7 3-8.2 4.7-13 4.7zm-1.8-22.8c0-1 .5-1.8 1.1-1.8s1.1.8 1.1 1.8-.5 1.8-1.1 1.8-1.1-.8-1.1-1.8z"/></symbol><symbol fill-rule="evenodd" clip-rule="evenodd" stroke-linejoin="round" stroke-miterlimit="2" id="sprite-file" viewBox="0 0 100 100"><title>file</title><path d="M90.055 18.158c0-6.391-5.188-11.58-11.579-11.58H23.01c-6.391 0-11.579 5.189-11.579 11.58v61.279c0 6.391 5.188 11.579 11.579 11.579h55.466c6.391 0 11.579-5.188 11.579-11.579V18.158zm-4 37.475H15.431v23.804a7.583 7.583 0 007.579 7.579h55.466a7.583 7.583 0 007.579-7.579V55.633z"/></symbol><symbol fill-rule="evenodd" clip-rule="evenodd" stroke-linejoin="round" stroke-miterlimit="2" id="sprite-flask_button" viewBox="0 0 48 48"><title>flask_button</title><path d="M47.6 24v.3c0 12.3-10 23.4-23.3 23.6C11.2 48.1.6 37.4.4 24.6.2 11.4 10.8.8 23.9.7h.2C37 .7 47.4 11.2 47.6 24zm-10.471 7.059l-9.502-15.777v-6.09h2.121V7.285H18.984v1.938h1.938v6.059L10.895 31.059c-.984 1.353-1.015 2.492-1.015 2.614 0 1.507 1.199 2.737 2.675 2.737h22.883c1.476 0 2.675-1.23 2.675-2.737.031-.123 0-1.261-.984-2.614zm-10.303 1.722a1.313 1.313 0 01-1.322-1.323c0-.738.583-1.323 1.322-1.323.738 0 1.323.584 1.323 1.323s-.584 1.323-1.323 1.323zm-5.336-2.729a2.888 2.888 0 01-2.876-2.876A2.888 2.888 0 0121.49 24.3a2.888 2.888 0 012.876 2.876 2.888 2.888 0 01-2.876 2.876zm6.997-7.729h1.846l-3.999-6.643V9.19h-3.722v6.519l-.054.087c.823-.186 1.808.286 1.808 1.414 0 .969-.727 1.454-1.454 1.454-.654 0-1.307-.393-1.432-1.177l-3.081 4.835h5.777a2.671 2.671 0 01-.042-.477c0-2.93 4.396-2.93 4.396 0 0 .169-.015.329-.043.478zm-2.64-8.863c0 .632-.474.948-.948.948-.063 0-.125-.005-.186-.016-.405-.072-.763-.383-.763-.932 0-1.265 1.897-1.265 1.897 0z" fill-rule="nonzero"/></symbol><symbol fill-rule="evenodd" clip-rule="evenodd" stroke-linejoin="round" stroke-miterlimit="2" id="sprite-flask" viewBox="0 0 48 48"><title>flask</title><path d="M47.6 24v.3c0 12.3-10 23.4-23.3 23.6C11.2 48.1.6 37.4.4 24.6.2 11.4 10.8.8 23.9.7h.2C37 .7 47.4 11.2 47.6 24zm-3.2.3c0-11.1-9-20.4-20.5-20.4-11.1 0-20.3 9-20.4 20.4 0 11.1 9 20.4 20.3 20.4 11.5 0 20.6-9.1 20.6-20.4z" fill-rule="nonzero"/><path d="M37.129 31.059l-9.502-15.777v-6.09h2.121V7.285H18.984v1.938h1.938v6.059L10.895 31.059c-.984 1.353-1.015 2.492-1.015 2.614 0 1.507 1.199 2.737 2.675 2.737h22.883c1.476 0 2.675-1.23 2.675-2.737.031-.123 0-1.261-.984-2.614zm-10.303 1.722a1.313 1.313 0 01-1.322-1.323c0-.738.583-1.323 1.322-1.323.738 0 1.323.584 1.323 1.323s-.584 1.323-1.323 1.323zm-5.336-2.729a2.888 2.888 0 01-2.876-2.876A2.888 2.888 0 0121.49 24.3a2.888 2.888 0 012.876 2.876 2.888 2.888 0 01-2.876 2.876zm6.997-7.729h1.846l-3.999-6.643V9.19h-3.722v6.519l-.054.087c.823-.186 1.808.286 1.808 1.414 0 .969-.727 1.454-1.454 1.454-.654 0-1.307-.393-1.432-1.177l-3.081 4.835h5.777a2.671 2.671 0 01-.042-.477c0-2.93 4.396-2.93 4.396 0 0 .169-.015.329-.043.478zm-2.64-8.863c0 .632-.474.948-.948.948-.063 0-.125-.005-.186-.016-.405-.072-.763-.383-.763-.932 0-1.265 1.897-1.265 1.897 0z"/></symbol><symbol id="sprite-footnote_button" viewBox="0 0 48 48"><title>footnote_button</title><path class="fg" d="M40.3 7.8c-9-9-23.5-9-32.5 0s-9 23.5 0 32.5 23.5 9 32.5 0 8.9-23.5 0-32.5zm-6.6 19.9l-1.8 3.1-6.5-4.4.3 7.9h-3.5l.3-7.8-6.4 4.2-1.8-3 7.4-3.6-7.4-3.6 1.8-3 6.4 4.3-.4-7.8h3.5l-.3 7.8 6.5-4.3 1.8 3-7.4 3.5 7.5 3.7z"/></symbol><symbol fill-rule="evenodd" clip-rule="evenodd" stroke-linejoin="round" stroke-miterlimit="2" id="sprite-h2_button" viewBox="0 0 48 48"><title>h2_button</title><path d="M40.3 7.8c-9-9-23.5-9-32.5 0s-9 23.5 0 32.5 23.5 9 32.5 0 8.9-23.5 0-32.5zm-5.7 25.9c0 1.7-1.1 2.7-2.6 2.7s-2.6-1-2.6-2.7v-7.5H18.7v7.5c0 1.7-1.1 2.7-2.6 2.7s-2.6-1-2.6-2.7V14.3c0-1.7 1.1-2.7 2.6-2.7s2.6 1 2.6 2.7v7.3h10.8v-7.3c0-1.7 1.1-2.7 2.6-2.7s2.6 1 2.6 2.7v19.4h-.1z" fill-rule="nonzero"/></symbol><symbol fill-rule="evenodd" clip-rule="evenodd" stroke-linejoin="round" stroke-miterlimit="2" id="sprite-h2" viewBox="0 0 48 48"><title>h2</title><path d="M34.6 33.7c0 1.7-1.1 2.7-2.6 2.7s-2.6-1-2.6-2.7v-7.5H18.7v7.5c0 1.7-1.1 2.7-2.6 2.7s-2.6-1-2.6-2.7V14.3c0-1.7 1.1-2.7 2.6-2.7s2.6 1 2.6 2.7v7.3h10.8v-7.3c0-1.7 1.1-2.7 2.6-2.7s2.6 1 2.6 2.7v19.4h-.1z" fill-rule="nonzero"/></symbol><symbol fill-rule="evenodd" clip-rule="evenodd" stroke-linejoin="round" stroke-miterlimit="2" id="sprite-h3_button" viewBox="0 0 48 48"><title>h3_button</title><path d="M40.3 7.8c-9-9-23.5-9-32.5 0s-9 23.5 0 32.5 23.5 9 32.5 0 8.9-23.5 0-32.5zm-7.1 25.5c0 1.6-1 2.7-2.5 2.7s-2.5-1.1-2.5-2.7v-8.6c0-2.3-1.4-3.4-3.2-3.4-2 0-3.2 1.5-3.2 3.4v8.6c0 1.6-1 2.7-2.5 2.7s-2.5-1.1-2.5-2.7V12.2c0-1.6 1-2.7 2.5-2.7s2.5 1.1 2.5 2.7v6.7h.1c1-1.3 3-1.7 4.5-1.7 3.9 0 6.8 2.5 6.8 6.7v9.4z" fill-rule="nonzero"/></symbol><symbol fill-rule="evenodd" clip-rule="evenodd" stroke-linejoin="round" stroke-miterlimit="2" id="sprite-h3" viewBox="0 0 48 48"><title>h3</title><path d="M33.2 33.3c0 1.6-1 2.7-2.5 2.7s-2.5-1.1-2.5-2.7v-8.6c0-2.3-1.4-3.4-3.2-3.4-2 0-3.2 1.5-3.2 3.4v8.6c0 1.6-1 2.7-2.5 2.7s-2.5-1.1-2.5-2.7V12.2c0-1.6 1-2.7 2.5-2.7s2.5 1.1 2.5 2.7v6.7h.1c1-1.3 3-1.7 4.5-1.7 3.9 0 6.8 2.5 6.8 6.7v9.4z" fill-rule="nonzero"/></symbol><symbol id="sprite-image_button" viewBox="0 0 100 100"><title>image_button</title><path class="fg" d="M93.9 71.8c3.4-6.7 5.3-14.2 5.3-22.1C99 23.3 76.5.8 49.9.8c-7.3 0-14.2 1.6-20.5 4.5-.8.3-1.4.7-2.2 1.1C11.3 14.6.5 31.2.6 50.4c0 5.4 1 10.5 2.5 15.3 0 .2.1.4.2.7.1.4.3.8.4 1.2C11 86 28.9 99.2 49.8 99.2h.3c19 0 35.7-11.4 43.8-27.4zM64.4 8.5c4.1 0 7.4 3.3 7.4 7.4s-3.3 7.4-7.4 7.4c-4.1 0-7.4-3.3-7.4-7.4s3.3-7.4 7.4-7.4zM10.1 65.9l25.8-22.3c.2-.2.5-.2.7-.2.1 0 .4.1.7.3l31.2 45c-5.6 2.7-11.8 4.2-18.3 4.2H50c-18 0-33.5-11.2-39.9-27zm70.4 14.2c-2 2-4.2 3.8-6.5 5.4L58.6 63.3l13.2-11.5c.2-.2.5-.2.7-.2.1 0 .4.1.7.3l14 19.3c-1.8 3.3-4.1 6.3-6.7 8.9z"/></symbol><symbol id="sprite-image" viewBox="0 0 100 100"><title>image</title><path d="M50 .8C22.5 1 .6 23.2.8 50.3c0 5 .9 10 2.3 14.5 0 .7.2 1.3.7 1.9 6.9 18.9 25 32.5 46.3 32.5h.3C63.5 99.1 75.8 94 85 84.6s14.3-21.8 14.2-34.9C99 22.8 77 .8 50 .8zM69.6 16c0 2.8-2.3 5.1-5.1 5.1s-5.1-2.3-5.1-5.1 2.3-5.1 5.1-5.1c2.8-.1 5.1 2.2 5.1 5.1zM50.2 92.6H50c-17.9 0-33.4-11.3-39.6-27L36.5 43l31.7 45.6c-5.5 2.5-11.6 4-18 4zM80.3 80c-2.1 2.1-4.3 3.8-6.6 5.5l-15.2-22 14.1-12.1 14.1 20.3c-1.8 2.9-3.9 5.6-6.4 8.3zm9.5-14.9l-14-20.3c-.5-.8-1.3-1.2-2.2-1.3-.9-.1-1.8.1-2.5.8l-16.3 14-15.1-22c-.5-.8-1.3-1.2-2.2-1.3-.9-.1-1.8.1-2.5.8L8.3 58.9c-.5-2.7-.9-5.7-1-8.6-.1-23.6 18.9-42.7 42.4-43 2.3 0 4.5.2 6.6.5-2.1 2.2-3.3 5-3.3 8.2 0 6.3 5.1 11.5 11.5 11.5 6.2 0 11.3-4.9 11.5-11 10 7.7 16.4 19.7 16.6 33.3.1 5.2-.9 10.4-2.8 15.3z"/></symbol><symbol id="sprite-import_image" viewBox="0 0 100 100"><title>import_image</title><path class="fg" d="M59.9 1.8v40l6.4-6.4c.6-.6 1.3-.8 2.3-.8.8 0 1.7.2 2.3.8 1.1 1.1 1.1 3 0 4.1L58.9 51c-1.1 1.1-3.2 1.1-4.1 0L43.4 39.6c-1.1-1.1-1.1-3 0-4.1 1.1-1.1 3-1.1 4.1 0l6.3 6.3V1C52.5.9 51.2.8 49.9.8 22.5 1 .6 23.2.8 50.3c0 5 .9 10 2.3 14.5 0 .7.2 1.3.7 1.9 6.9 18.9 25 32.5 46.3 32.5h.3C63.5 99.1 75.8 94 85 84.6c9.2-9.4 14.3-21.8 14.2-34.9-.2-23.5-17-43.3-39.3-47.9zm-9.7 90.8H50c-17.9 0-33.4-11.3-39.6-27L36.5 43l31.7 45.6c-5.5 2.5-11.6 4-18 4zM80.3 80c-2.1 2.1-4.3 3.8-6.6 5.5l-15.2-22 14.1-12.1 14.1 20.3c-1.8 2.9-3.9 5.6-6.4 8.3z"/></symbol><symbol id="sprite-import_video" viewBox="0 0 100 100"><title>import_video</title><path class="fg" d="M85.2 15.1C75.7 5.8 63.3.6 50 .6c-13 0-25.5 5.2-34.6 14.1C5.9 24.1.9 36.5.5 49.5c0 13.3 5.2 25.7 14.3 35C24.1 94.1 36.6 99 50 99c13 0 25.5-5.2 34.6-14.1 19.5-19 19.7-50.3.6-69.8zm-6 51.2c0 1.4-1.2 2.7-2.7 2.7-17.8 1.2-35.4 1.2-53.2 0-1.4 0-2.7-1.2-2.7-2.7-.6-10.8-.6-21.7 0-32.7 0-1.4 1.2-2.7 2.7-2.7 7.5-.5 15-.8 22.4-.9v20.8l-6.3-6.3c-1.1-1.1-3-1.1-4.1 0-1.1 1.1-1.1 3 0 4.1L46.7 60c.9 1.1 3 1.1 4.1 0l11.9-11.5c1.1-1.1 1.1-3 0-4.1-.6-.6-1.5-.8-2.3-.8-.9 0-1.7.2-2.3.8l-6.4 6.4V30c8.2 0 16.5.3 24.8.9 1.4 0 2.7 1.2 2.7 2.7.9 11 .9 21.7 0 32.7z"/></symbol><symbol id="sprite-insert" viewBox="0 0 48 48"><title>insert</title><path class="fg" d="M39.7 22.7H25.5V8.5h-2.6v14.2H8.7v2.6h14.2v14.2h2.6V25.3h14.2z"/></symbol><symbol fill-rule="evenodd" clip-rule="evenodd" stroke-linejoin="round" stroke-miterlimit="2" id="sprite-italic_button" viewBox="0 0 48 48"><title>italic_button</title><path d="M40.3 7.8c-9-9-23.5-9-32.5 0s-9 23.5 0 32.5 23.5 9 32.5 0 8.9-23.5 0-32.5zM23.072 37.228c-1.173 0-2.12-.367-2.841-1.1-.721-.733-1.081-1.833-1.081-3.299 0-.611.098-1.405.293-2.383l2.047-9.948c.658-3.315 5.604-2.576 4.977.581l-1.892 10.064a4.52 4.52 0 00-.147 1.173c0 .489.117.837.349 1.045.232.207.617.311 1.154.311.44 0 .831-.073 1.173-.22-.097 1.222-.531 2.157-1.301 2.804-.77.648-1.68.972-2.731.972zM25.565 16.7c-.807 0-1.491-.281-2.053-.843a2.793 2.793 0 01-.843-2.052c0-.807.281-1.497.843-2.071a2.761 2.761 0 012.053-.862c.806 0 1.497.287 2.071.862.574.574.861 1.264.861 2.071 0 .806-.287 1.49-.861 2.052a2.855 2.855 0 01-2.071.843z" fill-rule="nonzero"/></symbol><symbol id="sprite-linkbutton_button" viewBox="0 0 48 48"><title>linkbutton_button</title><path class="fg" d="M40.9 7.5C36.3 3 30.4.5 24 .5 17.7.5 11.8 2.9 7.4 7.3 2.8 11.8.4 17.7.3 24c0 6.4 2.4 12.3 6.9 16.8 4.5 4.6 10.4 7 16.9 7 6.3 0 12.2-2.4 16.6-6.8 9.3-9.1 9.4-24.1.2-33.5zm-27.4 9.2c-.6-.7-.5-1.7.2-2.3s1.7-.5 2.3.2l2.4 2.9c-1.1.2-2.2.6-3.1 1.3l-1.8-2.1zm-.4 9.1h-2.9c-.9 0-1.6-.7-1.6-1.6 0-.9.7-1.6 1.6-1.6h2.9c-.1.4-.1.8-.1 1.2v.7c-.1.4 0 .9.1 1.3zm26.5-1.6c0 .9-.7 1.6-1.6 1.6h-3.2c.1-.4.2-.9.2-1.4v-.7c0-.4 0-.8-.1-1.2H38c.9.1 1.6.9 1.6 1.7zM32.8 19c-.9-.7-1.9-1.2-3.1-1.4l2.5-2.6c.6-.6 1.6-.6 2.3 0s.6 1.6 0 2.3L32.8 19zm-7.2-1.5h-3.2V14c0-.9.7-1.6 1.6-1.6s1.6.7 1.6 1.6v3.5zm9.1 13.6c.6.7.5 1.7-.2 2.3s-1.7.5-2.3-.2l-2.1-2.5c1.1-.3 2.1-.8 2.9-1.6l1.7 2zm-19.4-1.8c.9.7 2 1.2 3.2 1.4l-2.8 2.9c-.6.6-1.6.6-2.3 0-.6-.6-.6-1.6 0-2.3l1.9-2zm7.7 1.5h3.2v3.7c0 .9-.7 1.6-1.6 1.6s-1.6-.8-1.6-1.7v-3.6zm5-1.8h-8.1c-2.6 0-4.8-2.2-4.8-4.8 0-2.6 2.2-4.8 4.8-4.8H28c2.6 0 4.8 2.2 4.8 4.8 0 2.6-2.1 4.8-4.8 4.8z"/></symbol><symbol id="sprite-linkbutton" viewBox="0 0 48 48"><title>linkbutton</title><path class="fg" d="M40.9 7.5C36.3 3 30.4.5 24 .5 17.7.5 11.8 2.9 7.4 7.3 2.8 11.8.4 17.7.3 24c0 6.4 2.4 12.3 6.9 16.8 4.5 4.6 10.4 7 16.9 7 6.3 0 12.2-2.4 16.6-6.8 9.3-9.1 9.4-24.1.2-33.5zm-2.5 31.3c-3.8 3.8-8.9 6-14.4 6s-10.7-2.1-14.6-6.1c-3.9-4-6-9-6-14.6 0-5.4 2.2-10.6 6.1-14.5 3.9-3.9 8.9-6 14.4-6s10.7 2.1 14.6 6.1c8.1 8.1 8 21.1-.1 29.1zM13.5 16.7c-.6-.7-.5-1.7.2-2.3s1.7-.5 2.3.2l2.4 2.9c-1.1.2-2.2.6-3.1 1.3l-1.8-2.1zm-.4 9.1h-2.9c-.9 0-1.6-.7-1.6-1.6 0-.9.7-1.6 1.6-1.6h2.9c-.1.4-.1.8-.1 1.2v.7c-.1.4 0 .9.1 1.3zm26.5-1.6c0 .9-.7 1.6-1.6 1.6h-3.2c.1-.4.2-.9.2-1.4v-.7c0-.4 0-.8-.1-1.2H38c.9.1 1.6.9 1.6 1.7zM32.8 19c-.9-.7-1.9-1.2-3.1-1.4l2.5-2.6c.6-.6 1.6-.6 2.3 0s.6 1.6 0 2.3L32.8 19zm-7.2-1.5h-3.2V14c0-.9.7-1.6 1.6-1.6s1.6.7 1.6 1.6v3.5zm9.1 13.6c.6.7.5 1.7-.2 2.3s-1.7.5-2.3-.2l-2.1-2.5c1.1-.3 2.1-.8 2.9-1.6l1.7 2zm-19.4-1.8c.9.7 2 1.2 3.2 1.4l-2.8 2.9c-.6.6-1.6.6-2.3 0-.6-.6-.6-1.6 0-2.3l1.9-2zm7.7 1.5h3.2v3.7c0 .9-.7 1.6-1.6 1.6s-1.6-.8-1.6-1.7v-3.6zm5-1.8h-8.1c-2.6 0-4.8-2.2-4.8-4.8 0-2.6 2.2-4.8 4.8-4.8H28c2.6 0 4.8 2.2 4.8 4.8 0 2.6-2.1 4.8-4.8 4.8z"/></symbol><symbol fill-rule="evenodd" clip-rule="evenodd" stroke-linejoin="round" stroke-miterlimit="2" id="sprite-list" viewBox="0 0 48 48"><title>list</title><path d="M47.6 24v.3c0 12.3-10 23.4-23.3 23.6C11.2 48.1.6 37.4.4 24.6.2 11.4 10.8.8 23.9.7h.2C37 .7 47.4 11.2 47.6 24zm-3.2.3c0-11.1-9-20.4-20.5-20.4-11.1 0-20.3 9-20.4 20.4 0 11.1 9 20.4 20.3 20.4 11.5 0 20.6-9.1 20.6-20.4zM13.827 34.873v-.5c0-2.1 1.5-3.8 3.5-4.2 1.9-.3 3.7.7 4.5 2.4.1.2.2.2.3.2h11.04c.9 0 1.4.5 1.6 1.3.2.9-.5 1.8-1.4 1.8h-11.24c-.2 0-.3 0-.4.2-.7 1.6-2.4 2.6-4.1 2.5-1.9-.1-3.6-1.7-3.8-3.7zm4.2-1.9c-.7 0-1.4.7-1.4 1.5s.6 1.4 1.4 1.4c.8 0 1.4-.6 1.4-1.4 0-.9-.6-1.5-1.4-1.5zm-4.2-7.935v-.5c0-2.1 1.5-3.8 3.5-4.2 1.9-.3 3.7.7 4.5 2.4.1.2.2.2.3.2h11.924c.9 0 1.4.5 1.6 1.3.2.9-.5 1.8-1.4 1.8H22.127c-.2 0-.3 0-.4.2-.7 1.6-2.4 2.6-4.1 2.5-1.9-.1-3.6-1.7-3.8-3.7zm4.2-1.9c-.7 0-1.4.7-1.4 1.5s.6 1.4 1.4 1.4c.8 0 1.4-.6 1.4-1.4 0-.9-.6-1.5-1.4-1.5zm-4.2-7.909v-.5c0-2.1 1.5-3.8 3.5-4.2 1.9-.3 3.7.7 4.5 2.4.1.2.2.2.3.2h11.924c.9 0 1.4.5 1.6 1.3.2.9-.5 1.8-1.4 1.8H22.127c-.2 0-.3 0-.4.2-.7 1.6-2.4 2.6-4.1 2.5-1.9-.1-3.6-1.7-3.8-3.7zm4.2-1.9c-.7 0-1.4.7-1.4 1.5s.6 1.4 1.4 1.4c.8 0 1.4-.6 1.4-1.4 0-.9-.6-1.5-1.4-1.5z" fill-rule="nonzero"/></symbol><symbol id="sprite-new_page" viewBox="0 0 48 64"><title>new_page</title><path d="M46.1 13.4L34.4 1.8c-.6-.5-1.3-.8-2.1-.8H3.9C2.3.9 1 2.3 1 3.9v55.8c0 .8.3 1.5.9 2.1.6.6 1.3.9 2.1.9h40.1c.8 0 1.5-.3 2.1-.9.6-.6.9-1.3.9-2.1V15.5c-.1-.8-.4-1.5-1-2.1zm-3.5 44.1c0 .2-.1.4-.2.5-.1.1-.3.2-.5.2H6.1c-.4 0-.7-.3-.7-.7V6.1c0-.4.3-.7.7-.7h22.5c.2 0 .4.1.5.2s.2.3.2.5v9.5c0 .8.3 1.5.9 2.1.6.6 1.3.9 2.1.9h8.8c.4 0 .8.2 1 .4.3.3.4.6.4 1v37.5zm-7-19.9c0 1.2-1 2.2-2.2 2.2h-7.5v7.5c0 1.2-1 2.2-2.2 2.2-1.2 0-2.2-1-2.2-2.2v-7.5H14c-1.2 0-2.2-1-2.2-2.2 0-1.2 1-2.2 2.2-2.2h7.5v-7.5c0-1.2 1-2.2 2.2-2.2 1.2 0 2.2 1 2.2 2.2v7.5h7.5c1.2 0 2.2 1 2.2 2.2z"/></symbol><symbol id="sprite-next_bare" viewBox="0 0 48 48"><title>next_bare</title><path d="M33.1 23c.3.3.5.7.5 1.1s-.2.8-.5 1.1L20 38.3c-.3.3-.7.5-1.1.5s-.8-.2-1.1-.5c-.6-.7-.6-1.7 0-2.3l12-12-12-12c-.6-.7-.6-1.7 0-2.3.7-.6 1.7-.6 2.3 0l13 13.3z"/></symbol><symbol id="sprite-next_button" viewBox="0 0 48 48"><title>next_button</title><path d="M40.8 7.3C36.3 2.8 30.4.3 24 .3 17.7.3 11.9 2.7 7.4 7.1c-4.5 4.4-7 10.3-7 16.7 0 6.4 2.4 12.3 6.8 16.7 4.5 4.5 10.4 7 16.8 7 6.3 0 12.1-2.4 16.6-6.8 4.5-4.4 7-10.3 7-16.7s-2.4-12.3-6.8-16.7zm-7.7 17.9L20 38.3c-.3.3-.7.5-1.1.5-.4 0-.8-.2-1.1-.5-.6-.7-.6-1.7 0-2.3l12-12-12-12c-.6-.7-.6-1.7 0-2.3.7-.6 1.7-.6 2.3 0l13 13.3c.3.3.5.7.5 1.1 0 .4-.2.8-.5 1.1z"/></symbol><symbol id="sprite-note_button" viewBox="0 0 48 48"><title>note_button</title><path class="fg" d="M45.9 33.2c-1.2 2.9-2.9 5.5-5.2 7.8-4.4 4.4-10.3 6.8-16.6 6.8-6.5 0-12.5-2.4-16.9-7C2.7 36.3.3 30.4.3 24c.1-6.3 2.6-12.2 7.1-16.7C11.8 2.9 17.7.5 24 .5c6.4 0 12.3 2.6 16.9 7 2.2 2.3 3.9 4.9 5 7.7H28.3v4h18.9c.2 1 .4 2 .5 3H28.3v4h19.3c-.1 1-.2 2-.4 3H28.3v4h17.6z"/></symbol><symbol id="sprite-note" viewBox="0 0 48 48"><title>note</title><path class="fg" d="M40.9 7.5C36.3 3 30.4.5 24 .5 17.7.5 11.8 2.9 7.4 7.3 2.8 11.8.4 17.7.3 24c0 6.4 2.4 12.3 6.9 16.8 4.5 4.6 10.4 7 16.9 7 6.3 0 12.2-2.4 16.6-6.8 9.3-9.1 9.4-24.1.2-33.5zm-2.5 31.3c-3.8 3.8-8.9 6-14.4 6s-10.7-2.1-14.6-6.1c-3.8-3.9-6-9-6-14.6 0-5.4 2.2-10.6 6.1-14.5 3.8-3.8 8.9-6 14.4-6s10.7 2.1 14.6 6.1c1.6 1.6 2.9 3.5 3.9 5.5H28.3v4h15.5c.2 1 .4 2 .5 3h-16v4h16.1c-.1 1-.3 2-.5 3H28.3v4h14.1c-1 2-2.3 3.9-4 5.6z"/></symbol><symbol fill-rule="evenodd" clip-rule="evenodd" stroke-linejoin="round" stroke-miterlimit="2" id="sprite-ol_button" viewBox="0 0 48 48"><title>ol_button</title><path d="M40.3 7.8c-9-9-23.5-9-32.5 0s-9 23.5 0 32.5 23.5 9 32.5 0 8.9-23.5 0-32.5zm-27.9 4h1.2c.4 0 .6.3.6.6v4.7c0 .4-.3.6-.6.6s-.6-.2-.6-.6v-4.2h-.5c-.4 0-.6-.3-.6-.6-.1-.2.1-.5.5-.5zm.9 24.4c-1.2 0-2-.9-2-1.6 0-.3.3-.6.6-.6.6 0 .4 1 1.4 1 .4 0 .8-.3.8-.8 0-1.2-1.4-.3-1.4-1.3 0-.9 1.2-.3 1.2-1.2 0-.3-.2-.6-.6-.6-.8 0-.7.8-1.2.8-.3 0-.5-.3-.5-.6 0-.6.9-1.3 1.8-1.3 1.2 0 1.8.9 1.8 1.5 0 .5-.2 1-.7 1.3.6.3 1 .8 1 1.5-.1 1.1-1 1.9-2.2 1.9zm1.6-9.3h-2.8c-.4 0-.6-.2-.6-.5 0-.2.1-.3.2-.4.7-.8 1.4-1.6 2.1-2.5.1-.2.3-.5.3-.8 0-.3-.3-.6-.6-.6-1 0-.5 1.3-1.3 1.3-.4 0-.6-.3-.6-.6 0-1 .9-1.9 1.9-1.9 1 0 1.8.7 1.8 1.7 0 1.2-1.3 2.3-2 3.2h1.5c.4 0 .6.2.6.5.1.4-.2.6-.5.6zm19 9.2H21.8c-1.6 0-2.9-1.3-2.9-2.9 0-1.6 1.3-2.9 2.9-2.9H34c1.6 0 2.9 1.3 2.9 2.9 0 1.6-1.4 2.9-3 2.9zm0-9.2H21.8c-1.6 0-2.9-1.3-2.9-2.9 0-1.6 1.3-2.9 2.9-2.9H34c1.6 0 2.9 1.3 2.9 2.9 0 1.6-1.4 2.9-3 2.9zm0-9.2H21.8c-1.6 0-2.9-1.3-2.9-2.9 0-1.6 1.3-2.9 2.9-2.9H34c1.6 0 2.9 1.3 2.9 2.9 0 1.6-1.4 2.9-3 2.9z" fill-rule="nonzero"/></symbol><symbol fill-rule="evenodd" clip-rule="evenodd" stroke-linejoin="round" stroke-miterlimit="2" id="sprite-ol" viewBox="0 0 48 48"><title>ol</title><path d="M12.4 11.8h1.2c.4 0 .6.3.6.6v4.7c0 .4-.3.6-.6.6s-.6-.2-.6-.6v-4.2h-.5c-.4 0-.6-.3-.6-.6-.1-.2.1-.5.5-.5zm.9 24.4c-1.2 0-2-.9-2-1.6 0-.3.3-.6.6-.6.6 0 .4 1 1.4 1 .4 0 .8-.3.8-.8 0-1.2-1.4-.3-1.4-1.3 0-.9 1.2-.3 1.2-1.2 0-.3-.2-.6-.6-.6-.8 0-.7.8-1.2.8-.3 0-.5-.3-.5-.6 0-.6.9-1.3 1.8-1.3 1.2 0 1.8.9 1.8 1.5 0 .5-.2 1-.7 1.3.6.3 1 .8 1 1.5-.1 1.1-1 1.9-2.2 1.9zm1.6-9.3h-2.8c-.4 0-.6-.2-.6-.5 0-.2.1-.3.2-.4.7-.8 1.4-1.6 2.1-2.5.1-.2.3-.5.3-.8 0-.3-.3-.6-.6-.6-1 0-.5 1.3-1.3 1.3-.4 0-.6-.3-.6-.6 0-1 .9-1.9 1.9-1.9 1 0 1.8.7 1.8 1.7 0 1.2-1.3 2.3-2 3.2h1.5c.4 0 .6.2.6.5.1.4-.2.6-.5.6zm19 9.2H21.8c-1.6 0-2.9-1.3-2.9-2.9 0-1.6 1.3-2.9 2.9-2.9H34c1.6 0 2.9 1.3 2.9 2.9 0 1.6-1.4 2.9-3 2.9zm0-9.2H21.8c-1.6 0-2.9-1.3-2.9-2.9 0-1.6 1.3-2.9 2.9-2.9H34c1.6 0 2.9 1.3 2.9 2.9 0 1.6-1.4 2.9-3 2.9zm0-9.2H21.8c-1.6 0-2.9-1.3-2.9-2.9 0-1.6 1.3-2.9 2.9-2.9H34c1.6 0 2.9 1.3 2.9 2.9 0 1.6-1.4 2.9-3 2.9z" fill-rule="nonzero"/></symbol><symbol fill-rule="evenodd" clip-rule="evenodd" stroke-linejoin="round" stroke-miterlimit="2" id="sprite-open" viewBox="0 0 48 48"><title>open</title><path d="M19.676 20.761l-4.515-4.518c-1.054-1.248-.561-3.391 1.603-3.33.491.042.942.243 1.302.583l7.91 7.91c.25.264.298.36.387.544.326.675.307 1.391-.193 2.056a1.58 1.58 0 01-.449.486l-7.729 7.799c-1.441 1.375-4.846-.676-2.841-2.815l4.59-4.633H5.173c-1.489-.046-1.482-.487-1.791-1.109-.597-1.199.314-2.845 1.791-2.891 4.834 0 9.669-.109 14.503-.082z" fill-rule="nonzero" transform="translate(9.636 2.02)"/></symbol><symbol fill-rule="evenodd" clip-rule="evenodd" stroke-linejoin="round" stroke-miterlimit="2" id="sprite-p_button" viewBox="0 0 48 48"><title>p_button</title><path d="M40.3 7.8c-9-9-23.5-9-32.5 0s-9 23.5 0 32.5 23.5 9 32.5 0 8.9-23.5 0-32.5zM23.793 35.765c0 .971-.787 1.758-1.758 1.758a1.756 1.756 0 01-1.758-1.758V22.372c-1.833-.135-3.242-.723-4.226-1.765-.984-1.042-1.476-2.422-1.476-4.139 0-1.013.198-1.942.594-2.786.395-.844.928-1.512 1.599-2.004.67-.492 1.459-.834 2.366-1.027.54-.116 1.596-.174 3.169-.174h8.308a1.888 1.888 0 011.888 1.888v.001a1.888 1.888 0 01-1.888 1.888h-1.305v21.555c0 .947-.767 1.714-1.713 1.714h-.002a1.714 1.714 0 01-1.714-1.714V14.254h-2.084v21.511z" fill-rule="nonzero"/></symbol><symbol fill-rule="evenodd" clip-rule="evenodd" stroke-linejoin="round" stroke-miterlimit="2" id="sprite-p" viewBox="0 0 48 48"><title>p</title><path d="M23.793 35.765c0 .971-.787 1.758-1.758 1.758a1.756 1.756 0 01-1.758-1.758V22.372c-1.833-.135-3.242-.723-4.226-1.765-.984-1.042-1.476-2.422-1.476-4.139 0-1.013.198-1.942.594-2.786.395-.844.928-1.512 1.599-2.004.67-.492 1.459-.834 2.366-1.027.54-.116 1.596-.174 3.169-.174h8.308a1.888 1.888 0 011.888 1.888v.001a1.888 1.888 0 01-1.888 1.888h-1.305v21.555c0 .947-.767 1.714-1.713 1.714h-.002a1.714 1.714 0 01-1.714-1.714V14.254h-2.084v21.511z" fill-rule="nonzero"/></symbol><symbol fill-rule="evenodd" clip-rule="evenodd" stroke-linejoin="round" stroke-miterlimit="2" id="sprite-page_button" viewBox="0 0 48 48"><title>page_button</title><path d="M40.083 36.686v-6.943a.499.499 0 00-.5-.5h-12.5c-1.656 0-3-1.344-3-3v-12.5a.499.499 0 00-.5-.5h-11c-.277 0-.5.223-.5.5v15.385l.061 11.621A20.315 20.315 0 0023.9 44.5a20.592 20.592 0 0016.183-7.814zm2.809-4.733A20.352 20.352 0 0044.5 24c0-11.3-9.2-20.5-20.4-20.5C12.8 3.4 3.5 12.7 3.5 24c-.048 5.455 2.094 10.42 5.582 14.097V13.243c0-1.656 1.344-3 3-3h14c.797 0 1.559.317 2.122.879l14 14a3 3 0 01.878 2.121s-.103 2.396-.19 4.71zm-4.411-5.71H27.583a.498.498 0 01-.5-.5V14.845a.25.25 0 01.43-.172l11.141 11.141a.25.25 0 01-.172.43l-.001-.001z" transform="translate(-3.578 -3.578) scale(1.14908)"/></symbol><symbol fill-rule="evenodd" clip-rule="evenodd" stroke-linejoin="round" stroke-miterlimit="2" id="sprite-page-gallery" viewBox="0 0 120 96"><title>page-gallery</title><path d="M115.273 9.878v74.624c0 1.3-.5 2.6-1.5 3.5-1 .9-2.2 1.5-3.5 1.5H10c-1.3 0-2.6-.5-3.5-1.5-1-.9-1.5-2.2-1.5-3.5V9.946c0-2.8 2.2-5 5-5 0 0 23.273.044 100.273.044 3.402 0 5 2.251 5 4.888zM91.766 80.542v-1.6c0-.9-.8-1.7-1.7-1.7H30.582c-.9 0-1.7.8-1.7 1.7v1.6c0 .9.8 1.7 1.7 1.7h59.484c.9 0 1.7-.8 1.7-1.7z" fill-rule="nonzero" transform="translate(.174)"/></symbol><symbol fill-rule="evenodd" clip-rule="evenodd" stroke-linejoin="round" stroke-miterlimit="2" id="sprite-page-heroic" viewBox="0 0 120 96"><title>page-heroic</title><path d="M115.273 9.878v74.624c0 1.3-.5 2.6-1.5 3.5-1 .9-2.2 1.5-3.5 1.5H10c-1.3 0-2.6-.5-3.5-1.5-1-.9-1.5-2.2-1.5-3.5V9.946c0-2.8 2.2-5 5-5 0 0 23.273.044 100.273.044 3.402 0 5 2.251 5 4.888zm-5 0H83.844v73.624c0 .6.4 1 1 1h24.429c.3 0 .5-.1.7-.3.2-.2.3-.4.3-.7V9.878zm-2.502 67.955v-1.6c0-.9-.8-1.7-1.7-1.7H88.844c-.9 0-1.7.8-1.7 1.7v1.6c0 .9.8 1.7 1.7 1.7h17.227c.9 0 1.7-.8 1.7-1.7zm0-9.141v-1.6c0-.9-.8-1.7-1.7-1.7H88.844c-.9 0-1.7.8-1.7 1.7v1.6c0 .9.8 1.7 1.7 1.7h17.227c.9 0 1.7-.8 1.7-1.7zm0-8.927v-1.6c0-.9-.8-1.7-1.7-1.7H88.844c-.9 0-1.7.8-1.7 1.7v1.6c0 .9.8 1.7 1.7 1.7h17.227c.9 0 1.7-.8 1.7-1.7zm0-9v-1.6c0-.9-.8-1.7-1.7-1.7H88.844c-.9 0-1.7.8-1.7 1.7v1.6c0 .9.8 1.7 1.7 1.7h17.227c.9 0 1.7-.8 1.7-1.7zm0-9v-1.6c0-.9-.8-1.7-1.7-1.7H88.844c-.9 0-1.7.8-1.7 1.7v1.6c0 .9.8 1.7 1.7 1.7h17.227c.9 0 1.7-.8 1.7-1.7zm-1.7-7.3H88.844c-.9 0-1.7-.8-1.7-1.7v-3.457c0-.9.8-1.7 1.7-1.7h17.227c.9 0 1.7.8 1.7 1.7v3.457c0 .9-.8 1.7-1.7 1.7z" fill-rule="nonzero" transform="translate(.174)"/></symbol><symbol fill-rule="evenodd" clip-rule="evenodd" stroke-linejoin="round" stroke-miterlimit="2" id="sprite-page-illustrated" viewBox="0 0 120 96"><title>page-illustrated</title><path d="M115.273 9.878v74.624c0 1.3-.5 2.6-1.5 3.5-1 .9-2.2 1.5-3.5 1.5H10c-1.3 0-2.6-.5-3.5-1.5-1-.9-1.5-2.2-1.5-3.5V9.946c0-2.8 2.2-5 5-5 0 0 23.273.044 100.273.044 3.402 0 5 2.251 5 4.888zm-5 0H41.588v73.624c0 .6.4 1 1 1h66.685c.3 0 .5-.1.7-.3.2-.2.3-.4.3-.7V9.878zm-2.502 67.955v-1.6c0-.9-.8-1.7-1.7-1.7H46.587c-.9 0-1.7.8-1.7 1.7v1.6c0 .9.8 1.7 1.7 1.7h59.484c.9 0 1.7-.8 1.7-1.7zm0-9.141v-1.6c0-.9-.8-1.7-1.7-1.7H46.587c-.9 0-1.7.8-1.7 1.7v1.6c0 .9.8 1.7 1.7 1.7h59.484c.9 0 1.7-.8 1.7-1.7zm0-8.927v-1.6c0-.9-.8-1.7-1.7-1.7H46.587c-.9 0-1.7.8-1.7 1.7v1.6c0 .9.8 1.7 1.7 1.7h59.484c.9 0 1.7-.8 1.7-1.7zm0-9v-1.6c0-.9-.8-1.7-1.7-1.7H46.587c-.9 0-1.7.8-1.7 1.7v1.6c0 .9.8 1.7 1.7 1.7h59.484c.9 0 1.7-.8 1.7-1.7zm0-9v-1.6c0-.9-.8-1.7-1.7-1.7H46.587c-.9 0-1.7.8-1.7 1.7v1.6c0 .9.8 1.7 1.7 1.7h59.484c.9 0 1.7-.8 1.7-1.7zm-10.645-7.3H46.587c-.9 0-1.7-.8-1.7-1.7v-3.457c0-.9.8-1.7 1.7-1.7h50.539c.9 0 1.7.8 1.7 1.7v3.457c0 .9-.8 1.7-1.7 1.7z" fill-rule="nonzero" transform="translate(.174)"/></symbol><symbol fill-rule="evenodd" clip-rule="evenodd" stroke-linejoin="round" stroke-miterlimit="2" id="sprite-page-texty" viewBox="0 0 120 96"><title>page-texty</title><path d="M115.273 9.878v74.624c0 1.3-.5 2.6-1.5 3.5-1 .9-2.2 1.5-3.5 1.5H10c-1.3 0-2.6-.5-3.5-1.5-1-.9-1.5-2.2-1.5-3.5V9.946c0-2.8 2.2-5 5-5 0 0 23.273.044 100.273.044 3.402 0 5 2.251 5 4.888zm-5 0H9.988v73.624c0 .6.4 1 1 1h98.285c.3 0 .5-.1.7-.3.2-.2.3-.4.3-.7V9.878zM91.766 74.433v-1.6c0-.9-.8-1.7-1.7-1.7H30.582c-.9 0-1.7.8-1.7 1.7v1.6c0 .9.8 1.7 1.7 1.7h59.484c.9 0 1.7-.8 1.7-1.7zm0-9.141v-1.6c0-.9-.8-1.7-1.7-1.7H30.582c-.9 0-1.7.8-1.7 1.7v1.6c0 .9.8 1.7 1.7 1.7h59.484c.9 0 1.7-.8 1.7-1.7zm0-8.927v-1.6c0-.9-.8-1.7-1.7-1.7H30.582c-.9 0-1.7.8-1.7 1.7v1.6c0 .9.8 1.7 1.7 1.7h59.484c.9 0 1.7-.8 1.7-1.7zm0-9v-1.6c0-.9-.8-1.7-1.7-1.7H30.582c-.9 0-1.7.8-1.7 1.7v1.6c0 .9.8 1.7 1.7 1.7h59.484c.9 0 1.7-.8 1.7-1.7zm0-9v-1.6c0-.9-.8-1.7-1.7-1.7H30.582c-.9 0-1.7.8-1.7 1.7v1.6c0 .9.8 1.7 1.7 1.7h59.484c.9 0 1.7-.8 1.7-1.7zm-5.824-10.429H35.403c-.9 0-1.7-.8-1.7-1.7v-3.458c0-.9.8-1.7 1.7-1.7h50.539c.9 0 1.7.8 1.7 1.7v3.458c0 .9-.8 1.7-1.7 1.7z" fill-rule="nonzero" transform="translate(.174)"/></symbol><symbol fill-rule="evenodd" clip-rule="evenodd" stroke-linejoin="round" stroke-miterlimit="2" id="sprite-page" viewBox="0 0 48 48"><title>page</title><path d="M24.2.3c13.1.2 23.6 10.8 23.5 23.8 0 13-10.7 23.6-23.7 23.6h-.3C10.8 47.6.3 37 .3 24v-.3C.5 10.7 11.1.1 24.2.3zm15.883 36.386v-6.943a.499.499 0 00-.5-.5h-12.5c-1.656 0-3-1.344-3-3v-12.5a.499.499 0 00-.5-.5h-11c-.277 0-.5.223-.5.5v15.385l.061 11.621A20.315 20.315 0 0023.9 44.5a20.592 20.592 0 0016.183-7.814zm2.809-4.733A20.352 20.352 0 0044.5 24c0-11.3-9.2-20.5-20.4-20.5C12.8 3.4 3.5 12.7 3.5 24c-.048 5.455 2.094 10.42 5.582 14.097V13.243c0-1.656 1.344-3 3-3h14c.797 0 1.559.317 2.122.879l14 14a3 3 0 01.878 2.121s-.103 2.396-.19 4.71zm-4.411-5.71H27.583a.498.498 0 01-.5-.5V14.845a.25.25 0 01.43-.172l11.141 11.141a.25.25 0 01-.172.43l-.001-.001z"/></symbol><symbol fill-rule="evenodd" clip-rule="evenodd" stroke-linejoin="round" stroke-miterlimit="2" id="sprite-pdf" viewBox="0 0 100 100"><title>pdf</title><path d="M90.055 18.158c0-6.391-5.188-11.58-11.579-11.58H23.01c-6.391 0-11.579 5.189-11.579 11.58v61.279c0 6.391 5.188 11.579 11.579 11.579h55.466c6.391 0 11.579-5.188 11.579-11.579V18.158zm-4 37.475H15.431v23.804a7.583 7.583 0 007.579 7.579h55.466a7.583 7.583 0 007.579-7.579V55.633zm-12.498 9.008h-6.878v4.744h6.635v2.8h-6.635v9.397H63.7V61.841h9.857v2.8zm-42.649 8.924v8.017h-2.979V61.841h3.375c1.654 0 2.903.115 3.746.345a5.027 5.027 0 012.251 1.305c1.133 1.108 1.7 2.505 1.7 4.193 0 1.807-.605 3.239-1.815 4.296-1.211 1.057-2.843 1.585-4.897 1.585h-1.381zm12.471 8.017V61.841h4.142c1.986 0 3.554.196 4.705.588 1.236.384 2.357 1.036 3.363 1.957 2.037 1.858 3.055 4.3 3.055 7.326 0 3.034-1.061 5.489-3.183 7.364-1.066.937-2.182 1.589-3.35 1.956-1.091.367-2.638.55-4.641.55h-4.091zm2.979-2.8H47.7c1.338 0 2.451-.141 3.337-.422a6.776 6.776 0 002.404-1.419c1.466-1.338 2.199-3.082 2.199-5.229 0-2.165-.725-3.921-2.174-5.268-1.304-1.202-3.226-1.803-5.766-1.803h-1.342v14.141zm-15.45-7.978h1.112c2.736 0 4.104-1.053 4.104-3.158 0-2.037-1.41-3.056-4.232-3.056h-.984v6.214zm26.459-36.549c-1.089-.934-2.182-2.103-3.427-3.351-.859-.935-1.793-2.259-2.573-3.662 1.48-5.066 2.183-9.896.624-12.234-.7-1.09-1.793-1.638-3.196-1.638-1.558 0-2.727.7-3.272 2.027-1.248 2.807.624 7.948 2.882 12.159-.624 2.027-1.403 4.207-2.337 6.624a59.234 59.234 0 01-1.793 3.896c-6.39 2.493-10.286 5.3-10.831 7.948-.234 1.248.155 2.338 1.248 3.197.624.468 1.324.779 2.104.779.31 0 .624-.079.934-.155 2.962-.78 6.155-5.145 8.493-9.586a44.633 44.633 0 014.831-1.559c2.103-.624 3.975-1.09 5.61-1.403 3.038 2.417 5.61 3.741 7.873 3.741 1.713.079 2.962-.545 4.13-1.714 1.714-1.714 1.014-3.196.78-3.586-1.404-2.186-5.69-2.651-12.079-1.482l-.001-.001zM36.951 47.114c-.311.079-.469 0-.624-.079-.311-.235-.311-.39-.235-.545.155-.935 1.948-2.649 5.845-4.521-1.869 2.807-3.741 4.831-4.986 5.145zm29.689-9.742c-.545.625-1.248.859-2.103.859-1.169 0-2.573-.545-4.207-1.638 4.52-.624 7.089-.155 6.31.779zm-16.442-1.403c-.779.234-1.558.469-2.337.7.234-.545.468-1.09.7-1.558.545-1.48 1.169-2.962 1.714-4.521.624.859 1.169 1.638 1.713 2.183.701.779 1.404 1.479 2.104 2.182-1.245.314-2.569.624-3.894 1.014zm-2.182-19.482c.079-.156.155-.39.779-.39.545 0 .779.234.935.39.7 1.013.624 3.586-.235 7.013-1.324-2.962-2.024-5.765-1.479-7.013z"/></symbol><symbol id="sprite-placement_full" viewBox="0 0 100 100"><title>placement_full</title><path class="fg" d="M97.9 64.4v-1.2c0-1.8-1.6-3.4-3.4-3.4H6.3c-1.8 0-3.4 1.6-3.4 3.4v1.2c0 1.8 1.6 3.4 3.4 3.4h88.1c1.9.1 3.5-1.6 3.5-3.4zm0 14.2v-1.2c0-1.8-1.6-3.4-3.4-3.4H6.3c-1.8 0-3.4 1.6-3.4 3.4v1.2c0 1.8 1.6 3.4 3.4 3.4h88.1c1.9-.1 3.5-1.6 3.5-3.4zm0 14v-1.2c0-1.8-1.6-3.4-3.4-3.4H6.3c-1.8 0-3.4 1.6-3.4 3.4v1.2c0 1.8 1.6 3.4 3.4 3.4h88.1c1.9-.1 3.5-1.6 3.5-3.4z"/><path class="hl" d="M97.5 49.6v-43c0-1.8-1.6-3.4-3.4-3.4H6.3c-1.8 0-3.4 1.6-3.4 3.4v43c0 1.8 1.6 3.4 3.4 3.4H94c1.9-.2 3.5-1.6 3.5-3.4z"/></symbol><symbol id="sprite-placement_right" viewBox="0 0 100 100"><title>placement_right</title><path class="fg" d="M6.3 11.1h36.2c1.8 0 3.4-1.6 3.4-3.4V6.4c0-1.8-1.6-3.4-3.4-3.4H6.3C4.5 3 2.9 4.6 2.9 6.4v1.2c0 1.8 1.6 3.3 3.4 3.5zm0 14.2h36.2c1.8 0 3.4-1.6 3.4-3.4v-1.2c0-1.8-1.6-3.4-3.4-3.4H6.3c-1.8 0-3.4 1.6-3.4 3.4v1.2c0 1.7 1.6 3.4 3.4 3.4zm0 14.2h36.2c1.8 0 3.4-1.6 3.4-3.4v-1.2c0-1.8-1.6-3.4-3.4-3.4H6.3c-1.8 0-3.4 1.6-3.4 3.4V36c0 1.8 1.6 3.3 3.4 3.5zm91.6 10.7V49c0-1.8-1.6-3.4-3.4-3.4H6.3c-1.8 0-3.4 1.6-3.4 3.4v1.2c0 1.8 1.6 3.4 3.4 3.4h88.1c1.9-.1 3.5-1.6 3.5-3.4zm0 14.2v-1.2c0-1.8-1.6-3.4-3.4-3.4H6.3c-1.8 0-3.4 1.6-3.4 3.4v1.2c0 1.8 1.6 3.4 3.4 3.4h88.1c1.9.1 3.5-1.6 3.5-3.4zm0 14.2v-1.2c0-1.8-1.6-3.4-3.4-3.4H6.3c-1.8 0-3.4 1.6-3.4 3.4v1.2c0 1.8 1.6 3.4 3.4 3.4h88.1c1.9-.1 3.5-1.6 3.5-3.4zm0 14v-1.2c0-1.8-1.6-3.4-3.4-3.4H6.3c-1.8 0-3.4 1.6-3.4 3.4v1.2c0 1.8 1.6 3.4 3.4 3.4h88.1c1.9-.1 3.5-1.6 3.5-3.4z"/><path class="hl" d="M56.8 39.1h37.7c1.8 0 3.4-1.6 3.4-3.4v-29c0-1.8-1.6-3.4-3.4-3.4H56.8c-1.8 0-3.4 1.6-3.4 3.4v29c-.1 1.7 1.5 3.1 3.4 3.4z"/></symbol><symbol id="sprite-placement_thumb" viewBox="0 0 100 100"><title>placement_thumb</title><path class="fg" d="M97.9 7.6V6.4c0-1.8-1.6-3.4-3.4-3.4H34.3c-1.8 0-3.4 1.6-3.4 3.4v1.2c0 1.8 1.6 3.4 3.4 3.4h60.2c1.8-.1 3.4-1.6 3.4-3.4zm0 14.2v-1.2c0-1.8-1.6-3.4-3.4-3.4H34.3c-1.8 0-3.4 1.6-3.4 3.4v1.2c0 1.8 1.6 3.4 3.4 3.4h60.2c1.8.1 3.4-1.6 3.4-3.4zm0 14.2v-1.2c0-1.8-1.6-3.4-3.4-3.4H6.3c-1.8 0-3.4 1.6-3.4 3.4V36c0 1.8 1.6 3.4 3.4 3.4h88.2c1.8-.1 3.4-1.6 3.4-3.4zm0 14.2V49c0-1.8-1.6-3.4-3.4-3.4H6.3c-1.8 0-3.4 1.6-3.4 3.4v1.2c0 1.8 1.6 3.4 3.4 3.4h88.1c1.9-.1 3.5-1.6 3.5-3.4zm0 14.2v-1.2c0-1.8-1.6-3.4-3.4-3.4H6.3c-1.8 0-3.4 1.6-3.4 3.4v1.2c0 1.8 1.6 3.4 3.4 3.4h88.1c1.9.1 3.5-1.6 3.5-3.4zm0 14.2v-1.2c0-1.8-1.6-3.4-3.4-3.4H6.3c-1.8 0-3.4 1.6-3.4 3.4v1.2c0 1.8 1.6 3.4 3.4 3.4h88.1c1.9-.1 3.5-1.6 3.5-3.4zm0 14v-1.2c0-1.8-1.6-3.4-3.4-3.4H6.3c-1.8 0-3.4 1.6-3.4 3.4v1.2c0 1.8 1.6 3.4 3.4 3.4h88.1c1.9-.1 3.5-1.6 3.5-3.4z"/><path class="hl" d="M25.5 21.6v-15c0-1.8-1.6-3.4-3.4-3.4H6.3c-1.8 0-3.4 1.6-3.4 3.4v15c0 1.8 1.6 3.4 3.4 3.4H22c1.9-.2 3.5-1.6 3.5-3.4z"/></symbol><symbol fill-rule="evenodd" clip-rule="evenodd" stroke-linejoin="round" stroke-miterlimit="2" id="sprite-plus_bare" viewBox="0 0 48 48"><title>plus_bare</title><path d="M38.234 23.774c0 .9-.734 1.523-1.634 1.523H25.8c-.156 0-.2.2-.2.2V36.3c0 .8-.6 1.6-1.5 1.6-.9.1-1.7-.595-1.7-1.6V25.5c0-.171-.1-.3-.3-.3H11.5c-1 0-1.8-.8-1.6-1.8.1-.8.8-1.3 1.6-1.4h10.7c.141 0 .2-.059.2-.2V11.2c0-.8.6-1.6 1.5-1.6.9-.1 1.6.6 1.7 1.6v10.622c0 .1.1.226.2.226h10.6c.9 0 1.834.826 1.834 1.726z" fill-rule="nonzero"/></symbol><symbol id="sprite-plus_button" viewBox="0 0 48 48"><title>plus_button</title><path d="M24.3.3C11.2.1.5 10.8.3 23.6v.4c0 13 10.6 23.6 23.4 23.7h.3c13 0 23.5-10.5 23.7-23.4C47.8 11.2 37.3.5 24.3.3zm14.1 23.9c-.1.9-.8 1.6-1.8 1.6H25.9v10.6c0 1-.8 1.9-1.7 1.9h-.1c-1 0-1.7-.7-1.8-1.8V25.7H11.6c-.6 0-1.1-.2-1.5-.6-.3-.4-.5-.9-.4-1.4.1-.9.8-1.5 1.8-1.6h10.7V11.4c0-1 .8-1.9 1.7-1.9.5 0 1 .1 1.3.5.4.3.6.8.6 1.3v10.9h10.5c.5-.1 1 .1 1.3.5.6.3.8.9.8 1.5z"/></symbol><symbol id="sprite-plus" viewBox="0 0 48 48"><title>plus</title><path d="M24.3.3c13 .2 23.5 10.9 23.4 24C47.5 37.2 37 47.7 24 47.7h-.3C10.9 47.6.3 37 .3 24v-.4C.5 10.8 11.2.1 24.3.3zm17.6 33.6c1.8-3.2 2.7-6.7 2.6-10.4-.3-10.8-8.9-19.6-19.7-20-10.7-.4-20 7.6-21.1 18.4-.5 5 .6 9.6 3.5 13.7 4.1 5.7 9.7 8.6 16.7 8.9h.2c3.8 0 7.2-1 10.4-2.9 3.1-1.9 5.6-4.5 7.4-7.7zm-3.7-9.8c-.1.8-.8 1.3-1.6 1.4H25.8c-.1-.1-.1 0-.2-.1v10.9c0 .8-.6 1.6-1.5 1.6-.9.1-1.6-.6-1.7-1.6V25.2H11.5c-1 0-1.8-.8-1.6-1.8.1-.8.8-1.3 1.6-1.4h10.7c.1-.1.1 0 .2.1 0-.1.1-.2 0-.3V11.2c0-.8.6-1.6 1.5-1.6.9-.1 1.6.6 1.7 1.6V22c0 .1 0 .1-.1.4.1 0 .2-.1.3 0h10.6c1-.1 1.8.8 1.8 1.7z"/></symbol><symbol fill-rule="evenodd" clip-rule="evenodd" stroke-linejoin="round" stroke-miterlimit="2" id="sprite-ppt" viewBox="0 0 100 100"><title>ppt</title><path d="M90.055 18.158c0-6.391-5.188-11.58-11.579-11.58H23.01c-6.391 0-11.579 5.189-11.579 11.58v61.279c0 6.391 5.188 11.579 11.579 11.579h55.466c6.391 0 11.579-5.188 11.579-11.579V18.158zm-4 37.475H15.431v23.804a7.583 7.583 0 007.579 7.579h55.466a7.583 7.583 0 007.579-7.579V55.633zM34.732 73.535v8.017h-2.979V61.811h3.375c1.653 0 2.902.115 3.746.345a5.036 5.036 0 012.25 1.304c1.134 1.109 1.701 2.506 1.701 4.194 0 1.807-.606 3.239-1.816 4.296-1.21 1.057-2.842 1.585-4.897 1.585h-1.38zm15.449 0v8.017h-2.979V61.811h3.376c1.653 0 2.902.115 3.746.345a5.036 5.036 0 012.25 1.304c1.134 1.109 1.7 2.506 1.7 4.194 0 1.807-.605 3.239-1.815 4.296-1.21 1.057-2.843 1.585-4.897 1.585h-1.381zm17.918-8.924v16.941H65.12V64.611h-4.539v-2.8h12.044v2.8h-4.526zm-33.367 6.163h1.112c2.736 0 4.104-1.053 4.104-3.158 0-2.037-1.411-3.056-4.232-3.056h-.984v6.214zm15.449 0h1.113c2.736 0 4.104-1.053 4.104-3.158 0-2.037-1.411-3.056-4.232-3.056h-.985v6.214zM26.964 38.618h-6.958V50h6.958V38.618zm26.515-9.51h-6.958v20.883h6.958V29.108zm-17.676-6.592h-6.959v27.446h6.959V22.516zm26.514 21.793h-6.958v5.609h6.958v-5.609zM44.641 31.546h-6.958v18.317h6.958V31.546zm26.515-9.03h-6.959v27.347h6.959V22.516zm8.838-7.826h-6.958v35.173h6.958V14.69z"/></symbol><symbol fill-rule="evenodd" clip-rule="evenodd" stroke-linejoin="round" stroke-miterlimit="2" id="sprite-pre_button" viewBox="0 0 48 48"><title>pre_button</title><path d="M40.3 7.8c-9-9-23.5-9-32.5 0s-9 23.5 0 32.5 23.5 9 32.5 0 8.9-23.5 0-32.5zM26.805 33.393l9.324-9.324-9.324-9.324c-.463-.462-.463-1.233 0-1.772.231-.231.539-.385.847-.385.309 0 .617.154.848.385l10.249 10.249c.231.231.385.539.385.847 0 .308-.154.617-.385.848L28.577 35.166c-.462.462-1.233.462-1.772 0-.463-.463-.463-1.233 0-1.773zm-5.547-18.686l-9.324 9.324 9.324 9.324c.462.462.462 1.233 0 1.772-.231.231-.54.385-.848.385-.308 0-.616-.154-.847-.385L9.314 24.878c-.231-.231-.385-.539-.385-.847 0-.308.154-.617.385-.848l10.172-10.249c.462-.462 1.232-.462 1.772 0 .462.463.462 1.233 0 1.773z" fill-rule="nonzero"/></symbol><symbol fill-rule="evenodd" clip-rule="evenodd" stroke-linejoin="round" stroke-miterlimit="2" id="sprite-pre" viewBox="0 0 48 48"><title>pre</title><path d="M26.805 33.393l9.324-9.324-9.324-9.324c-.463-.462-.463-1.233 0-1.772.231-.231.539-.385.847-.385.309 0 .617.154.848.385l10.249 10.249c.231.231.385.539.385.847 0 .308-.154.617-.385.848L28.577 35.166c-.462.462-1.233.462-1.772 0-.463-.463-.463-1.233 0-1.773zm-5.547-18.686l-9.324 9.324 9.324 9.324c.462.462.462 1.233 0 1.772-.231.231-.54.385-.848.385-.308 0-.616-.154-.847-.385L9.314 24.878c-.231-.231-.385-.539-.385-.847 0-.308.154-.617.385-.848l10.172-10.249c.462-.462 1.232-.462 1.772 0 .462.463.462 1.233 0 1.773z" fill-rule="nonzero"/></symbol><symbol id="sprite-prev_bare" viewBox="0 0 48 48"><title>prev_bare</title><path d="M30.2 11.9L18.1 24l12.1 12.1c.6.6.6 1.6 0 2.3-.3.3-.7.5-1.1.5s-.8-.2-1.1-.5L14.7 25.1c-.3-.3-.5-.7-.5-1.1s.2-.8.5-1.1L27.9 9.6c.6-.6 1.6-.6 2.3 0 .6.6.6 1.6 0 2.3z"/></symbol><symbol id="sprite-prev_button" viewBox="0 0 48 48"><title>prev_button</title><path d="M40.8 7.1C36.3 2.6 30.3.2 24 .2c-6.4 0-12.5 2.5-17 7S.1 17.7.1 24.1c0 6.4 2.6 12.4 7.1 16.9 4.5 4.4 10.4 6.9 16.8 6.9s12.4-2.5 17-7.1c4.5-4.5 6.9-10.5 6.9-16.9 0-6.4-2.6-12.3-7.1-16.8zm-10.6 29c.6.6.6 1.6 0 2.3-.3.3-.7.5-1.1.5-.4 0-.8-.2-1.1-.5L14.7 25.1c-.3-.3-.5-.7-.5-1.1s.2-.8.5-1.1L27.9 9.6c.6-.6 1.6-.6 2.3 0 .6.6.6 1.6 0 2.3L18.1 24l12.1 12.1z"/></symbol><symbol id="sprite-publish_button" viewBox="0 0 48 48"><title>publish_button</title><path d="M7.9 7c-9.4 9.1-9.4 24.3-.5 33.4l.3.3c4.2 4.2 9.7 6.5 15.2 6.8V25.4l-3.8 3.3c-.6.6-1.8.5-2.4-.1-.6-.6-.5-1.8.1-2.4l6.6-5.8c.2-.2.7-.4 1.1-.4.4 0 .7.1 1.1.4L32 26c.6.6.8 1.7.1 2.4-.6.6-1.7.7-2.4.1l-3.6-3.1v22.2c5.4-.4 10.7-2.6 14.8-6.6l.2-.2c9.2-9.2 9.2-24 .2-33.3C32.2-1.9 17.2-2.1 7.9 7zm25.3 28h-3.7v-3.7h3.7c2.2 0 3.9-1.7 3.9-3.9s-1.7-3.9-3.9-3.9h-.4c-.5 0-1-.2-1.4-.6-.4-.4-.5-.9-.5-1.5.2-2-.4-4-1.9-5.4-1.2-1.2-2.9-1.9-4.6-1.9-1.8 0-3.4.7-4.6 1.9-1.1 1.1-1.7 2.4-1.9 3.9-.1.9-.8 1.6-1.7 1.6-2.5.2-4.4 2.3-4.4 4.9 0 2.7 2.2 4.9 4.9 4.9h2.9V35h-2.9c-4.7 0-8.6-3.9-8.6-8.6 0-3.9 2.7-7.3 6.4-8.3.5-1.8 1.4-3.4 2.7-4.7 1.9-1.9 4.5-3 7.3-3 2.7 0 5.3 1.1 7.3 3 1.8 1.8 2.8 4.1 2.9 6.6 3.5.7 6.1 3.7 6.1 7.4 0 4.2-3.4 7.6-7.6 7.6z"/></symbol><symbol id="sprite-publish" viewBox="0 0 48 48"><title>publish</title><path d="M7.9 7c-9.4 9.1-9.4 24.3-.5 33.4l.3.3c9.2 9.2 24.2 9.2 33.3.2l.2-.2c9.2-9.2 9.2-24 .2-33.3C32.2-1.9 17.2-2.1 7.9 7zm36.4 22c-.9 3.6-2.6 6.7-5.3 9.4l-.1.1c-3.8 3.4-8 5.4-12.7 5.7V25.4l3.6 3.1c.6.6 1.7.5 2.4-.1.6-.6.5-1.8-.1-2.4l-6.4-5.6c-.4-.3-.7-.4-1.1-.4-.4 0-.9.2-1.1.4l-6.6 5.8c-.7.6-.7 1.7-.1 2.4.6.6 1.7.7 2.4.1l3.8-3.3v18.9c-.7 0-1.4-.1-2.1-.2-4.9-.8-9-3.3-12.2-7.2C1.8 28.5 2.8 16.3 10.6 9c7.9-7.4 20.2-7.2 28.1.2 2.7 2.5 4.5 5.7 5.5 9.2s1 7 .1 10.6zm-19.7-9zm16.2 7.4c0 4.2-3.4 7.6-7.6 7.6h-3.7v-3.7h3.7c2.2 0 3.9-1.7 3.9-3.9s-1.7-3.9-3.9-3.9h-.4c-.5 0-1-.2-1.4-.6-.4-.4-.5-.9-.5-1.5.2-2-.4-4-1.9-5.4-1.2-1.2-2.9-1.9-4.6-1.9-1.8 0-3.4.7-4.6 1.9-1.1 1.1-1.7 2.4-1.9 3.9-.1.9-.8 1.6-1.7 1.6-2.5.2-4.4 2.3-4.4 4.9 0 2.7 2.2 4.9 4.9 4.9h2.9V35h-2.9c-4.7 0-8.6-3.9-8.6-8.6 0-3.9 2.7-7.3 6.4-8.3.5-1.8 1.4-3.4 2.7-4.7 1.9-1.9 4.5-3 7.3-3 2.7 0 5.3 1.1 7.3 3 1.8 1.8 2.8 4.1 2.9 6.6 3.5.6 6.1 3.7 6.1 7.4z"/></symbol><symbol id="sprite-quote_button" viewBox="0 0 48 48"><title>quote_button</title><path class="fg" d="M40.9 7.5C36.3 3 30.4.5 24 .5 17.7.5 11.8 2.9 7.4 7.3 2.8 11.8.4 17.7.3 24c0 6.4 2.4 12.3 6.9 16.8 4.5 4.6 10.4 7 16.9 7 6.3 0 12.2-2.4 16.6-6.8 9.3-9.1 9.4-24.1.2-33.5zm-23.1 8c3.2 0 5.7 3 5.7 7 0 5.2-4.8 10.4-9.8 10.4-.7 0-1.4-.6-1.4-1.2 0-2.6 3.7-.8 4.6-6.5-2.7-.7-4.3-2.4-4.3-4.6.1-2.7 2.4-5.1 5.2-5.1zm12.5 0c3.2 0 5.7 3 5.7 7 0 5.2-4.8 10.4-9.8 10.4-.7 0-1.4-.6-1.4-1.2 0-2.6 3.7-.8 4.6-6.5-2.7-.7-4.3-2.4-4.3-4.6 0-2.7 2.4-5.1 5.2-5.1z"/></symbol><symbol id="sprite-quote" viewBox="0 0 48 48"><title>quote</title><path class="fg" d="M40.9 7.5C36.3 3 30.4.5 24 .5 17.7.5 11.8 2.9 7.4 7.3 2.8 11.8.4 17.7.3 24c0 6.4 2.4 12.3 6.9 16.8 4.5 4.6 10.4 7 16.9 7 6.3 0 12.2-2.4 16.6-6.8 9.3-9.1 9.4-24.1.2-33.5zm-2.5 31.3c-3.8 3.8-8.9 6-14.4 6s-10.7-2.1-14.6-6.1-6-9-6-14.6c0-5.4 2.2-10.6 6.1-14.5s8.9-6 14.4-6 10.7 2.1 14.6 6.1c8.1 8.1 8 21.1-.1 29.1zM17.8 15.5c3.2 0 5.7 3 5.7 7 0 5.2-4.8 10.4-9.8 10.4-.7 0-1.4-.6-1.4-1.2 0-2.6 3.7-.8 4.6-6.5-2.7-.7-4.3-2.4-4.3-4.6.1-2.7 2.4-5.1 5.2-5.1zm12.5 0c3.2 0 5.7 3 5.7 7 0 5.2-4.8 10.4-9.8 10.4-.7 0-1.4-.6-1.4-1.2 0-2.6 3.7-.8 4.6-6.5-2.7-.7-4.3-2.4-4.3-4.6 0-2.7 2.4-5.1 5.2-5.1z"/></symbol><symbol id="sprite-required" viewBox="0 0 48 48"><title>required</title><path d="M35.7 22.5h-8l5.7-5.7c.6-.6.6-1.6 0-2.2-.6-.6-1.6-.6-2.2 0l-5.7 5.7v-8c0-.8-.7-1.5-1.5-1.5s-1.5.7-1.5 1.5v8l-5.7-5.7c-.6-.6-1.6-.6-2.2 0-.6.6-.6 1.6 0 2.2l5.7 5.7h-8c-.8 0-1.5.7-1.5 1.5s.7 1.5 1.5 1.5h8l-5.7 5.7c-.6.6-.6 1.6 0 2.2.3.3.7.4 1.1.4s.8-.2 1.1-.4l5.6-5.7v8c0 .8.7 1.5 1.5 1.5s1.5-.7 1.5-1.5v-8l5.7 5.7c.3.3.7.4 1.1.4.4 0 .8-.2 1.1-.4.6-.6.6-1.6 0-2.2l-5.7-5.7h8c.8 0 1.5-.7 1.5-1.5.1-.8-.6-1.5-1.4-1.5z" fill="#ff675d"/></symbol><symbol id="sprite-revert_button" viewBox="0 0 48 48"><title>revert_button</title><path d="M39.9 8.5C35.6 4.3 30 1.9 24 1.9c-5.9 0-11.5 2.3-15.6 6.4-4.3 4.2-6.6 9.8-6.7 15.7 0 6 2.3 11.6 6.5 15.8 4.2 4.3 9.8 6.6 15.9 6.6 5.9 0 11.5-2.3 15.6-6.4 8.7-8.6 8.8-22.7.2-31.5zm-2.5 15.7c0 .8-.7 1.5-1.5 1.5H12.2c-.8 0-1.5-.7-1.5-1.5s.7-1.5 1.5-1.5h23.6c.9 0 1.5.6 1.6 1.5z"/></symbol><symbol id="sprite-revert" viewBox="0 0 48 48"><title>revert</title><path d="M39.9 8.5C35.6 4.3 30 1.9 24 1.9c-5.9 0-11.5 2.3-15.6 6.4-4.3 4.2-6.6 9.8-6.7 15.7 0 6 2.3 11.6 6.5 15.8 4.2 4.3 9.8 6.6 15.9 6.6 5.9 0 11.5-2.3 15.6-6.4 8.7-8.6 8.8-22.7.2-31.5zm-2.4 29.4c-3.6 3.6-8.4 5.6-13.5 5.6-5.2 0-10.1-2-13.7-5.7-3.6-3.7-5.6-8.5-5.6-13.7 0-5.1 2.1-10 5.7-13.6 3.6-3.6 8.4-5.6 13.5-5.6 5.2 0 10.1 2 13.7 5.7 7.6 7.6 7.5 19.8-.1 27.3zm-.1-13.7c0 .8-.7 1.5-1.5 1.5H12.2c-.8 0-1.5-.7-1.5-1.5s.7-1.5 1.5-1.5h23.6c.9 0 1.5.6 1.6 1.5z"/></symbol><symbol id="sprite-save_button" viewBox="0 0 48 48"><title>save_button</title><path d="M3.6 11.8C1.4 15.4.3 19.6.3 23.9c0 6.3 2.4 12.3 6.8 16.9 4.5 4.5 10.5 7 16.9 7 6.3 0 12.3-2.5 16.7-6.8 4.6-4.5 7-10.5 7.2-16.8 0-4.5-1.2-8.7-3.4-12.4H3.6zm31.6 16.6c-.3.3-.8.4-1.2.4-.5 0-.9-.1-1.2-.4l-7.2-7.2V36c0 .9-.7 1.6-1.6 1.6-.9 0-1.6-.7-1.6-1.6V21.2l-7.2 7.2c-.6.6-1.6.6-2.2 0-.6-.6-.6-1.6 0-2.2l9.9-9.9c.5-.6 1.6-.6 2.2 0l10.1 9.9c.6.6.6 1.6 0 2.2zM6 8.5c.4-.5.8-.9 1.3-1.4C11.8 2.8 17.8.3 24.1.3c6.5 0 12.5 2.4 17 7 .4.4.7.8 1.1 1.2H6z"/></symbol><symbol id="sprite-save" viewBox="0 0 48 48"><title>save</title><path d="M13 28.4c-.6-.6-.6-1.6 0-2.2l9.9-9.9c.5-.6 1.6-.6 2.2 0l10.1 9.9c.6.6.6 1.6 0 2.2-.3.3-.8.4-1.2.4-.5 0-.9-.1-1.2-.4l-7.2-7.2V36c0 .9-.7 1.6-1.6 1.6-.9 0-1.6-.7-1.6-1.6V21.2l-7.2 7.2c-.6.6-1.6.6-2.2 0zM.3 23.9c0-6.3 2.5-12.3 7-16.8C11.8 2.8 17.8.3 24.1.3c6.5 0 12.5 2.4 17 7 4.3 4.5 6.8 10.5 6.8 16.9-.2 6.3-2.6 12.3-7.2 16.8-4.4 4.3-10.4 6.8-16.7 6.8-6.4 0-12.4-2.5-16.9-7C2.7 36.2.3 30.2.3 23.9zM10.6 8.5h26.9c-3.8-3.2-8.5-5-13.5-5s-9.7 1.8-13.4 5zM3.4 24.1c0 5.5 2.2 10.7 6 14.6 3.8 4 9 6.1 14.6 6.1 5.4 0 10.6-2.2 14.4-6 7.5-7.4 8.1-19 1.9-27.1-.1.1-.3.1-.5.1H8.2c-.2 0-.4-.1-.5-.1-2.7 3.5-4.2 7.8-4.3 12.4z"/></symbol><symbol id="sprite-search" viewBox="0 0 48 48"><title>search</title><path d="M19.5 4.5c8.3 0 15 6.7 15 15s-6.7 15-15 15-15-6.7-15-15 6.7-15 15-15zm28 40.6L33.6 31.2c2.7-3.2 4.2-7.3 4.2-11.7 0-10.1-8.2-18.4-18.4-18.4S1.1 9.4 1.1 19.5s8.2 18.4 18.4 18.4c4.5 0 8.5-1.6 11.7-4.2l13.9 13.9 2.4-2.5z"/></symbol><symbol fill-rule="evenodd" clip-rule="evenodd" stroke-linejoin="round" stroke-miterlimit="2" id="sprite-strikethrough_button" viewBox="0 0 48 48"><title>strikethrough_button</title><path d="M40.3 7.8c-9-9-23.5-9-32.5 0s-9 23.5 0 32.5 23.5 9 32.5 0 8.9-23.5 0-32.5zM27.213 26.659h5.947c.36.801.53 1.713.53 2.747 0 4.816-3.789 7.844-9.756 7.844-4.958 0-8.357-2.143-9.349-5.117a4.14 4.14 0 01-.212-1.24c0-1.151.708-1.894 1.788-1.894.903 0 1.487.407 1.877 1.363.797 2.39 3.116 3.506 6.073 3.506 3.24 0 5.56-1.665 5.56-3.949 0-1.454-.724-2.508-2.458-3.26zm11.23-1.138H9.62c-.978 0-1.576-.57-1.576-1.521 0-.937.598-1.521 1.576-1.521h28.823c.978 0 1.575.57 1.575 1.521 0 .937-.597 1.521-1.575 1.521zm-22.983-4.08c-.518-.928-.768-1.997-.768-3.207 0-4.374 3.842-7.384 9.277-7.384 4.409 0 7.879 2.072 8.871 5.489.088.248.142.549.142.921 0 1.027-.726 1.7-1.753 1.7-.956 0-1.541-.443-1.948-1.364-.868-2.355-2.815-3.364-5.365-3.364-2.992 0-5.205 1.452-5.205 3.789 0 1.558.932 2.681 3.183 3.42H15.46z" fill-rule="nonzero"/></symbol><symbol id="sprite-tick_button" viewBox="0 0 48 48"><title>tick_button</title><path d="M24.1 1.9c-12.3 0-22.2 9.9-22.2 22.2 0 12.3 9.9 22.2 22.2 22.2 12.3 0 22.2-9.9 22.2-22.2 0-12.3-10-22.2-22.2-22.2zM35 19.3L21.2 33.1c-.3.3-.7.4-1.1.4-.4 0-.8-.1-1.1-.4l-5.9-5.9c-.1-.2-.4-.6-.4-1.1 0-.6.4-1.1.9-1.3.6-.2 1.3 0 1.7.4l4.9 4.9L33 17.2c.4-.4 1-.6 1.6-.4.6.2.9.7.9 1.4 0 .5-.4.9-.5 1.1z"/></symbol><symbol id="sprite-tick" viewBox="0 0 48 48"><title>tick</title><path d="M24.3.3c13 .2 23.5 10.9 23.4 24C47.5 37.2 37 47.7 24 47.7h-.3C10.9 47.6.3 37 .3 24v-.4C.5 10.8 11.2.1 24.3.3zm17.6 33.6c1.8-3.2 2.7-6.7 2.6-10.4-.3-10.8-8.9-19.6-19.7-20-10.7-.4-20 7.6-21.1 18.4-.5 5 .6 9.6 3.5 13.7 4.1 5.7 9.7 8.6 16.7 8.9h.2c3.8 0 7.2-1 10.4-2.9 3.1-1.9 5.6-4.5 7.4-7.7zm-7.4-18.6c-.7-.2-1.5 0-1.9.5L20 28.4l-4.7-4.7c-.5-.6-1.3-.8-2-.5-.7.2-1.1.9-1.1 1.6 0 .5.4 1 .5 1.2l6 6c.3.3.8.5 1.3.5s.9-.2 1.3-.5l13.8-13.8c.2-.2.6-.7.6-1.3-.1-.7-.5-1.3-1.2-1.6z"/></symbol><symbol fill-rule="evenodd" clip-rule="evenodd" stroke-linejoin="round" stroke-miterlimit="2" id="sprite-ul_button" viewBox="0 0 48 48"><title>ul_button</title><path d="M40.3 7.8c-9-9-23.5-9-32.5 0s-9 23.5 0 32.5 23.5 9 32.5 0 8.9-23.5 0-32.5zM14.2 36.1c-1.6 0-2.9-1.3-2.9-2.9 0-1.6 1.3-2.9 2.9-2.9 1.6 0 2.9 1.3 2.9 2.9 0 1.6-1.3 2.9-2.9 2.9zm0-9.2c-1.6 0-2.9-1.3-2.9-2.9 0-1.6 1.3-2.9 2.9-2.9 1.6 0 2.9 1.3 2.9 2.9 0 1.6-1.3 2.9-2.9 2.9zm0-9.2c-1.6 0-2.9-1.3-2.9-2.9 0-1.6 1.3-2.9 2.9-2.9 1.6 0 2.9 1.3 2.9 2.9 0 1.6-1.3 2.9-2.9 2.9zm19.7 18.4H21.8c-1.6 0-2.9-1.3-2.9-2.9 0-1.6 1.3-2.9 2.9-2.9H34c1.6 0 2.9 1.3 2.9 2.9-.1 1.6-1.4 2.9-3 2.9zm0-9.2H21.8c-1.6 0-2.9-1.3-2.9-2.9 0-1.6 1.3-2.9 2.9-2.9H34c1.6 0 2.9 1.3 2.9 2.9 0 1.6-1.4 2.9-3 2.9zm0-9.2H21.8c-1.6 0-2.9-1.3-2.9-2.9 0-1.6 1.3-2.9 2.9-2.9H34c1.6 0 2.9 1.3 2.9 2.9-.1 1.6-1.4 2.9-3 2.9z" fill-rule="nonzero"/></symbol><symbol fill-rule="evenodd" clip-rule="evenodd" stroke-linejoin="round" stroke-miterlimit="2" id="sprite-ul" viewBox="0 0 48 48"><title>ul</title><path d="M14.2 36.1c-1.6 0-2.9-1.3-2.9-2.9 0-1.6 1.3-2.9 2.9-2.9 1.6 0 2.9 1.3 2.9 2.9 0 1.6-1.3 2.9-2.9 2.9zm0-9.2c-1.6 0-2.9-1.3-2.9-2.9 0-1.6 1.3-2.9 2.9-2.9 1.6 0 2.9 1.3 2.9 2.9 0 1.6-1.3 2.9-2.9 2.9zm0-9.2c-1.6 0-2.9-1.3-2.9-2.9 0-1.6 1.3-2.9 2.9-2.9 1.6 0 2.9 1.3 2.9 2.9 0 1.6-1.3 2.9-2.9 2.9zm19.7 18.4H21.8c-1.6 0-2.9-1.3-2.9-2.9 0-1.6 1.3-2.9 2.9-2.9H34c1.6 0 2.9 1.3 2.9 2.9-.1 1.6-1.4 2.9-3 2.9zm0-9.2H21.8c-1.6 0-2.9-1.3-2.9-2.9 0-1.6 1.3-2.9 2.9-2.9H34c1.6 0 2.9 1.3 2.9 2.9 0 1.6-1.4 2.9-3 2.9zm0-9.2H21.8c-1.6 0-2.9-1.3-2.9-2.9 0-1.6 1.3-2.9 2.9-2.9H34c1.6 0 2.9 1.3 2.9 2.9-.1 1.6-1.4 2.9-3 2.9z" fill-rule="nonzero"/></symbol><symbol id="sprite-unchosen" viewBox="0 0 48 48"><title>unchosen</title><path d="M34.1 14c.5.6.4 1.5-.1 2.1l-.7.7-6.9 6.9c-.1 0-.1.1-.2.1l.2.2 7.5 7.5c.6.6.7 1.6.1 2.2-.6.7-1.6.7-2.3.1l-.2-.2-7.4-7.4-.2-.2-.2.2-7.5 7.5c-.7.7-1.8.7-2.4-.1-.5-.6-.4-1.5.1-2.1l1.3-1.3 6.3-6.3c0-.1.1-.1.2-.1-.1-.1-.1-.2-.2-.2L14 16.1c-.6-.6-.7-1.6-.1-2.2.6-.7 1.6-.7 2.3-.1l.2.2 7.4 7.4c.1.1.1.1.2.4.1-.1.1-.2.2-.2l7.5-7.5c.6-.8 1.8-.7 2.4-.1z" fill="#bdbdbd"/></symbol><symbol fill-rule="evenodd" clip-rule="evenodd" stroke-linejoin="round" stroke-miterlimit="2" id="sprite-underline_button" viewBox="0 0 48 48"><title>underline_button</title><path d="M40.3 7.8c-9-9-23.5-9-32.5 0s-9 23.5 0 32.5 23.5 9 32.5 0 8.9-23.5 0-32.5zm-9.151 29.666H16.851c-.978 0-1.576-.571-1.576-1.522 0-.937.598-1.521 1.576-1.521h14.298c.978 0 1.576.57 1.576 1.521 0 .937-.598 1.522-1.576 1.522zM24 30.678c4.917 0 7.932-2.989 7.932-7.213V12.11c0-.978-.57-1.576-1.507-1.576-.951 0-1.522.598-1.522 1.576v11.097c0 2.798-1.779 4.768-4.903 4.768-3.124 0-4.89-1.97-4.89-4.768V12.11c0-.978-.584-1.576-1.521-1.576-.951 0-1.521.598-1.521 1.576v11.355c0 4.224 3.015 7.213 7.932 7.213z"/></symbol><symbol fill-rule="evenodd" clip-rule="evenodd" stroke-linejoin="round" stroke-miterlimit="2" id="sprite-upload_button" viewBox="0 0 100 100"><title>upload_button</title><path d="M53.282 92.392c21.585-1.69 38.8-19.895 39.007-42.064C92.397 26.827 73.638 7.59 50.325 7.48 26.904 7.48 7.928 26.499 7.82 49.781c-.109 11.368 4.229 22.08 12.036 30.059 7.213 7.271 16.441 11.627 26.424 12.513V41.207L30.527 56.96c-1.312 1.313-3.5 1.313-4.813 0-1.313-1.313-1.313-3.501 0-4.813l21.66-21.661c1.094-1.313 3.501-1.313 4.814 0l22.098 21.661c1.313 1.312 1.313 3.5 0 4.813-.656.657-1.75.875-2.626.875-1.094 0-1.969-.218-2.625-.875L53.282 41.207v51.185z" transform="translate(-7.712 -7.693) scale(1.15407)"/></symbol><symbol id="sprite-upload_image" viewBox="0 0 100 100"><title>upload_image</title><path class="fg" d="M50 .8C22.5 1 .6 23.2.8 50.3c0 5 .9 10 2.3 14.5 0 .7.2 1.3.7 1.9 6.9 18.9 25 32.5 46.3 32.5h.3C63.5 99.1 75.8 94 85 84.6c9.2-9.4 14.3-21.8 14.2-34.9C99 22.8 77 .8 50 .8zm-7.6 22.3l11.4-11.4c.9-1.1 3-1.1 4.1 0l11.9 11.5c1.1 1.1 1.1 3 0 4.1-.6.6-1.5.8-2.3.8-.9 0-1.7-.2-2.3-.8L58.9 21v27.8c0 1.7-1.3 3-3 3s-3-1.3-3-3V21l-6.3 6.3c-1.1 1.1-3 1.1-4.1 0-1.2-1.2-1.2-3.1-.1-4.2zm7.8 69.5H50c-17.9 0-33.4-11.3-39.6-27L36.5 43l31.7 45.6c-5.5 2.5-11.6 4-18 4zM80.3 80c-2.1 2.1-4.3 3.8-6.6 5.5l-15.2-22 14.1-12.1 14.1 20.3c-1.8 2.9-3.9 5.6-6.4 8.3z"/></symbol><symbol id="sprite-upload_video" viewBox="0 0 100 100"><title>upload_video</title><path class="fg" d="M85.2 15.1C75.7 5.8 63.3.6 50 .6c-13 0-25.5 5.2-34.6 14.1C5.9 24.1.9 36.5.5 49.5c0 13.3 5.2 25.7 14.3 35C24.1 94.1 36.6 99 50 99c13 0 25.5-5.2 34.6-14.1 19.5-19 19.7-50.3.6-69.8zM20.8 33.6c0-1.4 1.2-2.7 2.7-2.7 17.8-1.2 35.4-1.2 53.2 0 1.4 0 2.7 1.2 2.7 2.7.6 10.8.6 21.7 0 32.7 0 1.4-1.2 2.7-2.7 2.7-7.5.5-15 .8-22.4.9V49.1l6.3 6.3c1.1 1.1 3 1.1 4.1 0 1.1-1.1 1.1-3 0-4.1L53.3 39.9c-.9-1.1-3-1.1-4.1 0L37.3 51.4c-1.1 1.1-1.1 3 0 4.1.6.6 1.5.8 2.3.8.9 0 1.7-.2 2.3-.8l6.4-6.4v20.8c-8.2 0-16.5-.3-24.8-.9-1.4 0-2.7-1.2-2.7-2.7-.9-11-.9-21.7 0-32.7z"/></symbol><symbol fill-rule="evenodd" clip-rule="evenodd" stroke-linejoin="round" stroke-miterlimit="2" id="sprite-upload" viewBox="0 0 100 100"><title>upload</title><path d="M50 .813c-26.783 0-48.578 21.97-48.795 48.859-.108 13.117 4.88 25.577 14.097 34.868 9.108 9.401 21.361 14.538 34.373 14.647H50c26.783 0 48.578-21.97 48.795-48.859C99.012 23.22 77.217 1.031 50 .813zm3.282 91.579c21.585-1.69 38.8-19.895 39.007-42.064C92.397 26.827 73.638 7.59 50.325 7.48 26.904 7.48 7.928 26.499 7.82 49.781c-.109 11.368 4.229 22.08 12.036 30.059 7.213 7.271 16.441 11.627 26.424 12.513V41.207L30.527 56.96c-1.312 1.313-3.5 1.313-4.813 0-1.313-1.313-1.313-3.501 0-4.813l21.66-21.661c1.094-1.313 3.501-1.313 4.814 0l22.098 21.661c1.313 1.312 1.313 3.5 0 4.813-.656.657-1.75.875-2.626.875-1.094 0-1.969-.218-2.625-.875L53.282 41.207v51.185z"/></symbol><symbol id="sprite-valid" viewBox="0 0 24 24"><title>valid</title><path d="M13.1 7.5c-2.6 0-4.7 2.1-4.7 4.7s2.1 4.7 4.7 4.7 4.7-2.1 4.7-4.7-2.1-4.7-4.7-4.7zm2.3 3.7l-2.9 2.9c-.1.1-.1.1-.2.1s-.2 0-.2-.1l-1.3-1.3s-.1-.1-.1-.2.1-.2.2-.3c.1 0 .3 0 .4.1l1 1 2.7-2.7c.1-.1.2-.1.3-.1s.2.1.2.3c0 .2-.1.3-.1.3z" fill="#74b87a"/></symbol><symbol fill-rule="evenodd" clip-rule="evenodd" stroke-linejoin="round" stroke-miterlimit="2" id="sprite-video_button" viewBox="0 0 48 48"><title>video_button</title><path d="M41 7.4c-4.6-4.5-10.6-7-17-7-6.3 0-12.3 2.5-16.7 6.8C2.7 11.7.3 17.7.1 24c0 6.4 2.5 12.4 6.9 16.9 4.5 4.6 10.5 7 17 7 6.3 0 12.3-2.5 16.7-6.8 9.4-9.2 9.5-24.3.3-33.7zm-2.9 24.7c0 .7-.6 1.3-1.3 1.3-8.6.6-17.1.6-25.7 0-.7 0-1.3-.6-1.3-1.3-.3-5.2-.3-10.5 0-15.8 0-.7.6-1.3 1.3-1.3 8.6-.6 17.1-.6 25.7 0 .7 0 1.3.6 1.3 1.3.4 5.3.4 10.5 0 15.8zM29 24.6L21.3 29c-.3.2-.6 0-.6-.4v-8.9c0-.3.3-.6.6-.4l7.7 4.4c.3.3.3.7 0 .9z" fill-rule="nonzero" transform="translate(.037 -.15)"/></symbol><symbol id="sprite-video" viewBox="0 0 48 48"><title>video</title><path class="fg" d="M40.9 7.5C36.3 3 30.4.5 24 .5 17.7.5 11.8 2.9 7.4 7.3 2.8 11.8.4 17.7.3 24c0 6.4 2.4 12.3 6.9 16.8 4.5 4.6 10.4 7 16.9 7 6.3 0 12.2-2.4 16.6-6.8 9.3-9.1 9.4-24.1.2-33.5zm-2.5 31.3c-3.8 3.8-8.9 6-14.4 6s-10.7-2.1-14.6-6.1-6-9-6-14.6c0-5.4 2.2-10.6 6.1-14.5s8.9-6 14.4-6 10.7 2.1 14.6 6.1c8.1 8.1 8 21.1-.1 29.1zm-.3-22.4c0-.7-.6-1.3-1.3-1.3-8.6-.6-17-.6-25.6 0-.7 0-1.3.6-1.3 1.3-.3 5.2-.3 10.5 0 15.7 0 .7.6 1.3 1.3 1.3 8.6.6 17 .6 25.6 0 .7 0 1.3-.6 1.3-1.3.3-5.3.3-10.5 0-15.7zM29 24.6L21.3 29c-.3.2-.6 0-.6-.4v-8.9c0-.3.3-.6.6-.4l7.7 4.4c.3.3.3.7 0 .9z"/></symbol><symbol fill-rule="evenodd" clip-rule="evenodd" stroke-linejoin="round" stroke-miterlimit="2" id="sprite-x_button" viewBox="0 0 48 48"><title>x_button</title><path d="M41 7.5C31.8-2 16.7-2 7.5 7c-.1.1-.2.2-.3.2C-2 16.4-2 31.4 7 40.5l.2.2c9.2 9.2 24 9.2 33.3.2 9.4-9.1 9.5-24.1.5-33.4zm-7 26.8c-.7.6-1.7.6-2.4-.1L24 26.6l-7.5 7.5c-.7.7-1.9.8-2.5.1-.7-.7-.7-1.7 0-2.5l7.6-7.6-7.6-7.7c-.4-.4-.6-.9-.6-1.5.1-.5.3-1 .7-1.3.7-.6 1.6-.5 2.4.1l7.6 7.6 7.6-7.6c.7-.7 1.9-.8 2.5-.1.4.4.6.8.6 1.3.1.5-.1 1-.5 1.3L26.5 24l7.4 7.4c.4.3.6.8.6 1.3.2.6 0 1.2-.5 1.6z" fill-rule="nonzero"/></symbol><symbol fill-rule="evenodd" clip-rule="evenodd" stroke-linejoin="round" stroke-miterlimit="2" id="sprite-x" viewBox="0 0 48 48"><title>x</title><path d="M34 34.3c-.7.6-1.7.6-2.4-.1L24 26.6l-7.5 7.5c-.7.7-1.9.8-2.5.1-.7-.7-.7-1.7 0-2.5l7.6-7.6-7.6-7.7c-.4-.4-.6-.9-.6-1.5.1-.5.3-1 .7-1.3.7-.6 1.6-.5 2.4.1l7.6 7.6 7.6-7.6c.7-.7 1.9-.8 2.5-.1.4.4.6.8.6 1.3.1.5-.1 1-.5 1.3L26.5 24l7.4 7.4c.4.3.6.8.6 1.3.2.6 0 1.2-.5 1.6z" fill-rule="nonzero"/></symbol><symbol fill-rule="evenodd" clip-rule="evenodd" stroke-linejoin="round" stroke-miterlimit="2" id="sprite-xls" viewBox="0 0 100 100"><title>xls</title><path d="M90.055 18.158c0-6.391-5.188-11.58-11.579-11.58H23.01c-6.391 0-11.579 5.189-11.579 11.58v61.279c0 6.391 5.188 11.579 11.579 11.579h55.466c6.391 0 11.579-5.188 11.579-11.579V18.158zm-4 37.475H15.431v23.804a7.583 7.583 0 007.579 7.579h55.466a7.583 7.583 0 007.579-7.579V55.633zm-14.456 9.093l-2.416 1.432c-.452-.784-.882-1.295-1.291-1.534-.426-.273-.976-.409-1.65-.409-.826 0-1.512.234-2.058.703-.546.46-.818 1.04-.818 1.739 0 .963.716 1.739 2.148 2.327l1.969.805c1.602.648 2.774 1.439 3.516 2.372.741.933 1.112 2.078 1.112 3.433 0 1.815-.605 3.315-1.816 4.5-1.218 1.193-2.731 1.79-4.538 1.79-1.714 0-3.129-.507-4.245-1.521-1.1-1.015-1.786-2.442-2.059-4.283l3.018-.665c.136 1.159.375 1.96.716 2.403.613.853 1.508 1.279 2.685 1.279.929 0 1.7-.311 2.314-.933.613-.623.92-1.411.92-2.366a3.33 3.33 0 00-.159-1.054 2.688 2.688 0 00-.499-.883 3.991 3.991 0 00-.876-.754 8.476 8.476 0 00-1.278-.671l-1.905-.793c-2.702-1.142-4.053-2.813-4.053-5.012 0-1.483.566-2.723 1.7-3.72 1.134-1.006 2.544-1.509 4.232-1.509 2.276 0 4.053 1.108 5.331 3.324zm-21.177-2.94v16.94h5.804v2.8h-8.783v-19.74h2.979zM34.09 71.208l-5.434-9.422h3.388l3.772 6.686 3.963-6.686h3.414l-5.689 9.422 5.97 10.318h-3.337l-4.372-7.556-4.501 7.556h-3.375l6.201-10.318zm-.04-28.15H21.605V50H34.05v-6.942zm15.029-.075H36.634v6.941h12.445v-6.941zm15.03-.156H51.663v6.942h12.446v-6.942zm15.029 0H66.692v6.942h12.446v-6.942zm-45.149-9.408H21.543v6.942h12.446v-6.942zm15.029-.075H36.573v6.941h12.445v-6.941zm15.029-.156H51.602v6.942h12.445v-6.942zm15.03 0H66.631v6.942h12.446v-6.942zm-45.17-9.408H21.461v6.942h12.446V23.78zm15.029-.076H36.491v6.942h12.445v-6.942zm15.029-.155H51.52v6.942h12.445v-6.942zm15.03 0H66.549v6.942h12.446v-6.942zm-45.188-9.408H21.362v6.942h12.445v-6.942zm15.03-.076H36.391v6.942h12.446v-6.942zm15.029-.155H51.421v6.942h12.445V13.91zm15.029 0H66.45v6.942h12.445V13.91z"/></symbol></svg>