<svg xmlns="http://www.w3.org/2000/svg"><symbol fill-rule="evenodd" clip-rule="evenodd" stroke-linejoin="round" stroke-miterlimit="2" id="sprite-admin_button" viewBox="0 0 48 48"><title>admin_button</title><path d="M31.381 46.413c-2.275.683-4.664 1.138-7.167 1.138H24.1c-1.024 0-1.82-.114-2.844-.228v-3.982h2.389c.91 0 1.593-.682 1.593-1.593 0-.91-.683-1.592-1.593-1.592h-2.389v-2.731h2.389c.91 0 1.593-.683 1.593-1.593 0-.91-.683-1.593-1.593-1.593h-2.389v-2.73h2.389c.91 0 1.593-.683 1.593-1.593 0-.91-.683-1.593-1.593-1.593h-2.389v-2.73h2.389c.91 0 1.593-.683 1.593-1.593 0-.91-.683-1.593-1.593-1.593h-2.389v-2.958h2.389c.91 0 1.593-.683 1.593-1.593 0-.91-.683-1.593-1.593-1.593h-2.389v-2.161h10.125v32.311zm1.821-36.976c-.683 0-1.365.455-1.593 1.138H19.435c-1.024 0-1.706.796-1.706 1.706v3.982h-2.617c-.91 0-1.593.683-1.593 1.593 0 .91.683 1.593 1.593 1.593h2.617v2.617h-2.503c-.91 0-1.593.683-1.593 1.593 0 .91.683 1.592 1.593 1.592h2.503v2.731h-2.617c-.91 0-1.593.683-1.593 1.593 0 .91.683 1.593 1.593 1.593h2.617v2.73h-2.617c-.91 0-1.593.683-1.593 1.593 0 .91.683 1.593 1.593 1.593h2.617v2.73h-2.503c-.91 0-1.593.683-1.593 1.593 0 .91.683 1.593 1.593 1.593h2.503v3.754a23.716 23.716 0 01-17.18-22.64C.435 11.144 10.902.563 23.986.449c8.078 0 15.132 3.982 19.455 10.126h-8.533c-.341-.683-1.024-1.138-1.706-1.138zm7.623 31.174c-1.707 1.706-3.755 3.299-5.917 4.323V14.102h10.467c1.366 2.958 2.162 6.257 2.276 9.784 0 6.258-2.389 12.174-6.826 16.725z"/></symbol><symbol id="sprite-admin" viewBox="0 0 48 48"><title>icon</title><path d="M24.1.1C10.7.2 0 11 .2 24.2.3 37.3 11 48 24.1 48h.2c6.4-.1 12.4-2.6 16.9-7.1s7-10.6 6.9-17C47.9 10.8 37.2.1 24.1.1zm6.4 43.6c-2 .6-4.1 1-6.3 1h-.1c-.9 0-1.6-.1-2.5-.2V41h2.1c.8 0 1.4-.6 1.4-1.4 0-.8-.6-1.4-1.4-1.4h-2.1v-2.4h2.1c.8 0 1.4-.6 1.4-1.4 0-.8-.6-1.4-1.4-1.4h-2.1v-2.4h2.1c.8 0 1.4-.6 1.4-1.4s-.6-1.4-1.4-1.4h-2.1v-2.4h2.1c.8 0 1.4-.6 1.4-1.4 0-.8-.6-1.4-1.4-1.4h-2.1V20h2.1c.8 0 1.4-.6 1.4-1.4 0-.8-.6-1.4-1.4-1.4h-2.1v-1.9h8.9v28.4zm1.6-32.5c-.6 0-1.2.4-1.4 1H20c-.9 0-1.5.7-1.5 1.5v3.5h-2.3c-.8 0-1.4.6-1.4 1.4s.6 1.4 1.4 1.4h2.3v2.3h-2.2c-.8 0-1.4.6-1.4 1.4s.6 1.4 1.4 1.4h2.2v2.4h-2.3c-.8 0-1.4.6-1.4 1.4 0 .8.6 1.4 1.4 1.4h2.3v2.4h-2.3c-.8 0-1.4.6-1.4 1.4 0 .8.6 1.4 1.4 1.4h2.3v2.4h-2.2c-.8 0-1.4.6-1.4 1.4 0 .8.6 1.4 1.4 1.4h2.2V44c-8.7-2.5-15-10.4-15.1-19.9C3.3 12.7 12.5 3.4 24 3.3c7.1 0 13.3 3.5 17.1 8.9h-7.5c-.3-.6-.9-1-1.5-1zm6.7 27.4c-1.5 1.5-3.3 2.9-5.2 3.8V15.3h9.2c1.2 2.6 1.9 5.5 2 8.6 0 5.5-2.1 10.7-6 14.7z"/></symbol><symbol id="sprite-asterisk_button" viewBox="0 0 48 48"><title>asterisk_button</title><path d="M24 .4C10.8.5.3 11.1.4 24.2.5 37.1 11 47.6 24 47.6h.2c6.3-.1 12.2-2.5 16.6-7s6.9-10.4 6.8-16.7C47.5 10.9 37 .4 24 .4zm11.7 25.1h-8l5.7 5.7c.6.6.6 1.6 0 2.2-.3.3-.7.4-1.1.4-.4 0-.8-.2-1.1-.4l-5.6-5.7v8c0 .8-.7 1.5-1.5 1.5s-1.5-.7-1.5-1.5v-8l-5.7 5.7c-.3.3-.7.4-1.1.4-.4 0-.8-.2-1.1-.4-.6-.6-.6-1.6 0-2.2l5.7-5.7h-8c-.8 0-1.5-.7-1.5-1.5s.7-1.5 1.5-1.5h8l-5.7-5.7c-.6-.6-.6-1.6 0-2.2s1.6-.6 2.2 0l5.7 5.7v-8c0-.8.7-1.5 1.5-1.5s1.5.7 1.5 1.5v8l5.7-5.7c.6-.6 1.6-.6 2.2 0 .6.6.6 1.6 0 2.2l-5.7 5.7h8c.8 0 1.5.7 1.5 1.5-.1.8-.8 1.5-1.6 1.5z" fill="#010202"/></symbol><symbol id="sprite-asterisk" viewBox="0 0 48 48"><title>asterisk</title><path d="M24 .5C10.8.6.3 11.2.4 24.2.5 37.1 11 47.7 24 47.7h.2c6.3-.1 12.2-2.5 16.6-7s6.9-10.4 6.8-16.7C47.5 11 37 .5 24 .5zm14.5 37.9c-3.8 3.9-9 6-14.4 6.1H24c-11.2 0-20.4-9.1-20.4-20.3-.1-11.3 9-20.5 20.3-20.6 11.3 0 20.5 9.1 20.6 20.3 0 5.5-2.1 10.7-6 14.5zm-2.8-15.9h-8l5.7-5.7c.6-.6.6-1.6 0-2.2-.6-.6-1.6-.6-2.2 0l-5.7 5.7v-8c0-.8-.7-1.5-1.5-1.5s-1.5.7-1.5 1.5v8l-5.7-5.7c-.6-.6-1.6-.6-2.2 0-.6.6-.6 1.6 0 2.2l5.7 5.7h-8c-.8 0-1.5.7-1.5 1.5s.7 1.5 1.5 1.5h8l-5.7 5.7c-.6.6-.6 1.6 0 2.2.3.3.7.4 1.1.4.4 0 .8-.2 1.1-.4l5.6-5.7v8c0 .8.7 1.5 1.5 1.5s1.5-.7 1.5-1.5v-8l5.7 5.7c.3.3.7.4 1.1.4.4 0 .8-.2 1.1-.4.6-.6.6-1.6 0-2.2l-5.7-5.7h8c.8 0 1.5-.7 1.5-1.5.1-.8-.6-1.5-1.4-1.5z"/></symbol><symbol id="sprite-back_button" viewBox="0 0 48 48"><title>back_button</title><path d="M24 0C10.7 0 0 10.8 0 24s10.7 24 24 24 24-10.7 24-24S37.2 0 24 0zm4.6 34c.8.8.8 2.2 0 3l-.5.5c-.8.8-2.2.8-3 0L12 24.3l13.2-13.1c.8-.8 2.2-.8 3 0l.4.4c.8.8.8 2.2 0 3l-9.8 9.7 9.8 9.7z"/></symbol><symbol id="sprite-back" viewBox="0 0 48 48"><title>back</title><path d="M40.9 12.4c1-1 2.8-1 3.9 0l.5.5c1 1 1 2.8 0 3.9L32.8 29.2l12.4 12.4c1 1 1 2.8 0 3.9l-.6.6c-1 1-2.8 1-3.9 0L24 29.2l16.9-16.8z"/></symbol><symbol fill-rule="evenodd" clip-rule="evenodd" stroke-linejoin="round" stroke-miterlimit="2" id="sprite-calendar" viewBox="0 0 200 200"><title>calendar</title><path d="M45.446 182.326A98.344 98.344 0 0130.417 170l-1.25-1.25C-7.917 130.417-7.917 67.5 31.25 29.167 70-8.333 132.5-7.917 170.833 31.25 208.333 70 208.333 131.667 170 170l-.833.833c-33.128 32.764-85.022 36.902-123.163 11.861h-.558v-.368zm48.781 2.059v-30.172H58.933v20.212c7.869 4.373 16.532 7.383 26.067 8.908 3.119.498 6.195.848 9.227 1.052zm48.781-11.174v-18.998h-35.294v30.096c12.553-1.023 24.303-4.752 35.294-11.098zm-97.562-8.244v-10.754H34.897c3.309 3.945 6.821 7.535 10.549 10.754zm120.753-10.754h-9.704v9.591a114.84 114.84 0 003.922-3.387l.833-.834a88.399 88.399 0 004.949-5.37zM25.57 140.726h19.876v-35.294H15.129c.826 12.161 4.269 24.221 10.441 35.294zm33.363-35.294v35.294h35.294v-35.294H58.933zm48.781 0v35.294h35.294v-35.294h-35.294zm77.45 0h-28.669v35.294h18.986c3.456-6.317 6.043-13.07 7.852-20.309a93.438 93.438 0 001.831-14.985zm.083-4.018zM15.282 91.946h30.164V56.652H26.502a85.75 85.75 0 00-11.22 35.294zm43.651-35.294v35.294h35.294V56.652H58.933zm48.781 0v35.294h35.294V56.652h-35.294zm66.137 0h-17.356v35.294h28.299a106.257 106.257 0 00-2.711-15.696c-1.978-6.923-4.707-13.47-8.232-19.598zM45.446 34.135a86.346 86.346 0 00-3.363 2.948 85.997 85.997 0 00-5.89 6.082h9.253v-9.03zM94.227 14.72c-12.224.813-24.291 4.225-35.294 10.243v18.202h35.294V14.72zm13.487.154v28.291h35.294V25.962a86.512 86.512 0 00-35.294-11.088zm48.781 20.641v7.65h7.689a87.001 87.001 0 00-5.017-5.248 86.658 86.658 0 00-2.672-2.402z" fill-rule="nonzero"/><path fill="#dc3c3c" d="M106.422 105.432h36.585v36.585h-36.585z"/></symbol><symbol id="sprite-chosen" viewBox="0 0 48 48"><title>chosen</title><path d="M24.3.3c13 .2 23.5 10.9 23.4 24C47.5 37.2 37 47.7 24 47.7h-.3C10.9 47.6.3 37 .3 24v-.4C.5 10.8 11.2.1 24.3.3zm10.2 15c-.7-.2-1.5 0-1.9.5L20 28.4l-4.7-4.7c-.5-.6-1.3-.8-2-.5-.7.2-1.1.9-1.1 1.6 0 .5.4 1 .5 1.2l6 6c.3.3.8.5 1.3.5s.9-.2 1.3-.5l13.8-13.8c.2-.2.6-.7.6-1.3-.1-.7-.5-1.3-1.2-1.6z"/></symbol><symbol id="sprite-clear_button" viewBox="0 0 48 48"><title>clear_button</title><path class="fg" d="M40.3 7.8c-9-9-23.5-9-32.5 0s-9 23.5 0 32.5 23.5 9 32.5 0 8.9-23.5 0-32.5zM26.8 24.1l8.5 8.5c.7.7.8 1.8.1 2.5-.7.8-1.8.8-2.6.1l-.2-.2-8.4-8.4-.2-.2-.2.2-8.5 8.5c-.8.8-2 .8-2.7-.1-.6-.7-.5-1.7.1-2.4l1.5-1.5 7.1-7.1c0-.1.1-.1.2-.1-.1-.1-.1-.2-.2-.2l-8.5-8.5c-.7-.7-.8-1.8-.1-2.5.7-.8 1.8-.8 2.6-.1l.2.2 8.4 8.4c.1.1.1.1.2.3.1-.1.1-.2.2-.2l8.5-8.5c.7-.9 2-.8 2.7 0 .6.7.5 1.7-.1 2.4l-.8.8-7.8 7.8c-.1 0-.1.1-.2.1l.2.2z"/></symbol><symbol id="sprite-clock_button" viewBox="0 0 48 48"><title>clock_button</title><path d="M24.1 1.9c-12.3 0-22.2 9.9-22.2 22.2 0 12.3 9.9 22.2 22.2 22.2 12.3 0 22.2-9.9 22.2-22.2 0-12.3-10-22.2-22.2-22.2zm12.3 18.8l-11.6 5.6c-1 .5-2.2-.3-2.2-1.3V11.1c0-1.7 2.8-1.8 2.8 0v11.6l9.8-4.4c1.8-.8 2.9 1.6 1.2 2.4z"/></symbol><symbol id="sprite-close" viewBox="0 0 48 48"><title>close</title><path d="M41.2 7.1c-.6-.6-1.7-.6-2.3 0L24.1 21.9 9.3 6.9c-.6-.6-1.6-.6-2.3 0-.6.6-.6 1.7 0 2.3l14.8 15L6.8 39c-.6.6-.6 1.7 0 2.3.4.4.8.4 1.3.4.4 0 .8 0 1.3-.4l14.8-14.8L39 41.3c.4.4.8.4 1.3.4s.8 0 1.3-.4c.6-.6.6-1.7 0-2.3l-15-14.8L41.2 9.4c.6-.6.6-1.7 0-2.3z"/></symbol><symbol fill-rule="evenodd" clip-rule="evenodd" stroke-linejoin="round" stroke-miterlimit="2" id="sprite-coach" viewBox="0 0 200 200"><title>coach</title><path d="M151.667 85.417c-2.5 0-5 0-7.5.416 6.666-30 16.25-54.583 16.25-54.583s-22.5-12.5-62.084-12.5c-40 0-62.5 12.917-62.5 12.917s7.084 17.5 12.917 40.833l-30 .833-3.75 30c-8.333 7.917-12.917 18.75-12.917 30.834 0 24.166 19.167 43.333 42.5 43.333 22.5 0 40.834-17.5 42.5-39.583 6.25.416 12.084.833 17.5.833h1.667c3.333 22.083 22.5 38.75 45 38.75 25.417 0 45.417-20.833 45.417-45.833s-19.584-46.25-45-46.25zM45 165.417a30.764 30.764 0 01-30.833-30.834A30.764 30.764 0 0145 103.75a30.764 30.764 0 0130.833 30.833A30.764 30.764 0 0145 165.417zm16.25-77.5c-4.167-19.167-7.917-32.5-12.917-47.5 0 0 9.167-5.417 25.834-8.334C77.917 52.5 80 68.75 80.417 88.75c-7.084-.417-13.334-.417-19.167-.833zm26.667.833c0-20.417-2.5-37.083-6.25-57.917 5-.416 10-.833 15.833-.833 7.5 0 18.75.833 24.583 1.667-1.666 18.75-4.166 35-4.166 55.416-9.167.834-20 1.667-30 1.667zm63.75 76.667c-18.75 0-33.75-15.417-33.75-34.167s15-34.167 33.75-34.167 33.75 15.417 33.75 34.167-15 34.167-33.75 34.167zM45 125.833c-4.583 0-8.75 3.75-8.75 8.75 0 4.584 3.75 8.75 8.75 8.75 4.583 0 8.75-3.75 8.75-8.75s-3.75-8.75-8.75-8.75zm106.667-2.916c-5 0-8.75 4.166-8.75 8.75 0 5 3.75 8.75 8.75 8.75s8.75-4.167 8.75-8.75c0-5.417-3.75-8.75-8.75-8.75z" fill-rule="nonzero"/></symbol><symbol id="sprite-cog_button" viewBox="0 0 100 100"><title>cog_button</title><path class="fg" d="M50 5C25.3 5 5.2 25.1 5 49.7c-.1 12 4.5 23.4 13 31.9 8.4 8.6 19.7 13.3 31.7 13.4h.3c24.7 0 44.8-20.1 45-44.7C95.2 25.5 75.1 5.2 50 5zm23.9 51.1c-.1.5-.3 1-.4 1.4-.2.5-.3 1-.5 1.5-.4 1.1-1.6 1.6-2.7 1.3-.9-.3-2 .1-2.5.9-1.1 1.7-2.3 3.2-3.8 4.5-.7.7-1 1.7-.5 2.6.5 1 .2 2.3-.8 2.9-.9.5-1.8 1-2.8 1.4-1 .5-2.3 0-2.8-1-.5-.9-1.5-1.3-2.4-1.1-1.9.4-3.9.6-5.8.5-1-.1-1.9.6-2.2 1.5-.4 1.1-1.5 1.7-2.6 1.4-.5-.1-1-.3-1.5-.4-.5-.2-1-.3-1.5-.5-1.1-.4-1.6-1.6-1.3-2.7.3-.9-.1-2-.9-2.5-1.7-1.1-3.2-2.3-4.5-3.8-.7-.7-1.7-1-2.6-.5-1 .5-2.3.2-2.9-.8-.5-.9-1-1.8-1.4-2.8-.5-1 0-2.3 1-2.8.9-.5 1.3-1.5 1.1-2.4-.4-1.9-.6-3.8-.5-5.8.1-1-.6-1.9-1.5-2.2-1.1-.4-1.7-1.5-1.4-2.6.1-.5.3-1 .4-1.5.2-.5.3-.9.5-1.4.4-1.1 1.6-1.7 2.7-1.3.9.3 2-.1 2.5-.9 1.1-1.7 2.3-3.2 3.8-4.5.7-.7 1-1.7.5-2.6v-.1c-.5-1-.2-2.3.8-2.9.9-.5 1.8-1 2.8-1.4 1-.5 2.3 0 2.8 1v.1c.5.9 1.5 1.3 2.4 1.1 1.9-.4 3.8-.6 5.8-.5 1 .1 1.9-.6 2.2-1.5v-.1c.4-1.1 1.5-1.7 2.6-1.4.5.1 1 .3 1.5.4.5.2 1 .3 1.5.5 1.1.4 1.6 1.6 1.3 2.7v.1c-.3.9.1 2 .9 2.5 1.7 1.1 3.2 2.3 4.5 3.8.7.7 1.7 1 2.6.5h.1c1-.5 2.3-.2 2.9.8.5.9 1 1.8 1.4 2.8.5 1 0 2.3-1 2.8h-.1c-.9.5-1.3 1.5-1.1 2.4.4 1.9.6 3.8.5 5.8-.1 1 .6 1.9 1.5 2.2 1 .4 1.7 1.5 1.4 2.6z"/></symbol><symbol id="sprite-cross_button" viewBox="0 0 48 48"><title>cross_button</title><path d="M41 7.5C31.8-2 16.7-2 7.5 7c-.1.1-.2.2-.3.2C-2 16.4-2 31.4 7 40.5l.2.2c9.2 9.2 24 9.2 33.3.2 9.4-9.1 9.5-24.1.5-33.4zm-7 26.8c-.7.6-1.7.6-2.4-.1L24 26.6l-7.5 7.5c-.7.7-1.9.8-2.5.1-.7-.7-.7-1.7 0-2.5l.2-.2 7.4-7.4-7.6-7.7c-.4-.4-.6-.9-.6-1.5.1-.5.3-1 .7-1.3.7-.6 1.6-.5 2.4.1l7.6 7.6 7.6-7.6c.7-.7 1.9-.8 2.5-.1.4.4.6.8.6 1.3.1.5-.1 1-.5 1.3l-.3.3-7.4 7.4-.1.1 7.4 7.4c.4.3.6.8.6 1.3.2.6 0 1.2-.5 1.6z"/></symbol><symbol id="sprite-cross" viewBox="0 0 48 48"><title>cross</title><path d="M7.5 7c9.3-9 24.3-8.9 33.5.5 9 9.3 9 24.1-.2 33.3l-.2.2c-9.1 9-24.1 9-33.3-.2l-.3-.3c-8.9-9.2-8.9-24.3.5-33.5zm36.2 11.3c-1-3.5-2.8-6.6-5.5-9.2-7.9-7.4-20.2-7.5-28.1-.2-7.8 7.3-8.8 19.5-1.9 27.9 3.2 3.9 7.2 6.4 12.2 7.2 6.9 1.1 12.9-.8 18.1-5.5l.1-.1.1-.1c2.7-2.7 4.4-5.8 5.3-9.4.7-3.4.6-7-.3-10.6zM34.1 14c.5.6.4 1.5-.1 2.1l-.7.7-6.9 6.9c-.1 0-.1.1-.2.1l.2.2 7.5 7.5c.6.6.7 1.6.1 2.2-.6.7-1.6.7-2.3.1l-.2-.2-7.4-7.4-.2-.2-.2.2-7.5 7.5c-.7.7-1.8.7-2.4-.1-.5-.6-.4-1.5.1-2.1l1.3-1.3 6.3-6.3c0-.1.1-.1.2-.1-.1-.1-.1-.2-.2-.2L14 16.1c-.6-.6-.7-1.6-.1-2.2.6-.7 1.6-.7 2.3-.1l.2.2 7.4 7.4c.1.1.1.1.2.4.1-.1.1-.2.2-.2l7.5-7.5c.6-.8 1.8-.7 2.4-.1z"/></symbol><symbol id="sprite-door_button" viewBox="0 0 48 48"><title>door_button</title><path d="M13.7 36.7V10.4c0-.8.7-1.5 1.5-1.5H33c.8 0 1.5.7 1.5 1.5v26.3h9.3c2.5-3.9 3.9-8.3 3.8-13C47.5 10.8 36.9.2 23.9.2 10.7.3.1 11 .2 24.1c0 4.6 1.4 9 3.8 12.6h9.7z"/><path d="M25.2 33V11.9h-8.5v24.3l8.5-3.2zm-1.8-13.2c.6 0 1.1.8 1.1 1.8s-.5 1.8-1.1 1.8-1.1-.8-1.1-1.8.4-1.8 1.1-1.8z"/><path d="M33 39.7c-.8 0-1.5-.7-1.5-1.5V11.9h-3.2v21.6c0 1-.7 1.9-1.6 2.2l-10.5 3.9c-.3.1-.6.2-.9.2h-9c4.3 4.8 10.6 7.9 17.6 7.9h.2c6.3-.1 12.3-2.5 16.7-7.1.2-.3.5-.5.7-.8H33z"/></symbol><symbol id="sprite-door" viewBox="0 0 48 48"><title>door</title><path d="M23.9.2C10.7.3.1 11 .2 24.1.3 37 10.9 47.6 23.9 47.6h.2c6.3-.1 12.3-2.5 16.7-7.1 4.4-4.6 6.9-10.5 6.8-16.8C47.5 10.8 36.9.2 23.9.2zm-.1 3.2c11.4 0 20.5 9.2 20.6 20.4 0 4.8-1.6 9.3-4.5 12.9h-5.4V10.4c0-.8-.7-1.5-1.5-1.5H15.2c-.8 0-1.5.7-1.5 1.5v26.3H8C5.2 33.2 3.4 28.8 3.4 24c0-11.3 9.1-20.5 20.4-20.6zm1.4 8.5V33l-8.5 3.1V11.9h8.5zM24 44.4c-5 0-9.5-1.8-13-4.7h4.3c.3 0 .6-.1.9-.3v.1l10.5-3.9c1-.3 1.6-1.2 1.6-2.2V11.9h3.2v26.3c0 .8.7 1.5 1.5 1.5h4c-3.7 3-8.2 4.7-13 4.7zm-1.8-22.8c0-1 .5-1.8 1.1-1.8s1.1.8 1.1 1.8-.5 1.8-1.1 1.8-1.1-.8-1.1-1.8z"/></symbol><symbol fill-rule="evenodd" clip-rule="evenodd" stroke-linejoin="round" stroke-miterlimit="2" id="sprite-download_button" viewBox="0 0 100 100"><title>download_button</title><path d="M53.282 92.392c21.585-1.69 38.8-19.895 39.007-42.064C92.397 26.827 73.638 7.59 50.325 7.48 26.904 7.48 7.928 26.499 7.82 49.781c-.109 11.368 4.229 22.08 12.036 30.059 7.213 7.271 16.441 11.627 26.424 12.513V41.207L30.527 56.96c-1.312 1.313-3.5 1.313-4.813 0-1.313-1.313-1.313-3.501 0-4.813l21.66-21.661c1.094-1.313 3.501-1.313 4.814 0l22.098 21.661c1.313 1.312 1.313 3.5 0 4.813-.656.657-1.75.875-2.626.875-1.094 0-1.969-.218-2.625-.875L53.282 41.207v51.185z" transform="rotate(-180 53.91 53.782) scale(1.15407)"/></symbol><symbol fill-rule="evenodd" clip-rule="evenodd" stroke-linejoin="round" stroke-miterlimit="2" id="sprite-download" viewBox="0 0 100 100"><title>download</title><path d="M50 .813c-26.783 0-48.578 21.97-48.795 48.859-.108 13.117 4.88 25.577 14.097 34.868 9.108 9.401 21.361 14.538 34.373 14.647H50c26.783 0 48.578-21.97 48.795-48.859C99.012 23.22 77.217 1.031 50 .813zm3.282 91.579c21.585-1.69 38.8-19.895 39.007-42.064C92.397 26.827 73.638 7.59 50.325 7.48 26.904 7.48 7.928 26.499 7.82 49.781c-.109 11.368 4.229 22.08 12.036 30.059 7.213 7.271 16.441 11.627 26.424 12.513V41.207L30.527 56.96c-1.312 1.313-3.5 1.313-4.813 0-1.313-1.313-1.313-3.501 0-4.813l21.66-21.661c1.094-1.313 3.501-1.313 4.814 0l22.098 21.661c1.313 1.312 1.313 3.5 0 4.813-.656.657-1.75.875-2.626.875-1.094 0-1.969-.218-2.625-.875L53.282 41.207v51.185z" transform="rotate(-180 50 50)"/></symbol><symbol id="sprite-edit_button" viewBox="0 0 48 48"><title>edit_button</title><path d="M19.1 25.9l3.4 3.4-4.7 1.3 1.3-4.7zM43 10.1c-1.3-1.8-2.9-3.4-4.6-4.8L20.5 23.1l4.8 4.8L43 10.1zm1.6 2.5L26.3 30.9c-.1.2-.3.5-.7.5L16.1 34h-.6c-.4-.1-.7-.3-.9-.6-.2-.3-.3-.8-.2-1.2l2.7-9.6.1-.1s0-.1.1-.1c.1-.1.1-.2.2-.3L35.9 3.7C32.4 1.6 28.3.4 23.9.4 10.8.5.3 11.1.4 24.1.5 37 11 47.6 24 47.6h.2c6.3-.1 12.2-2.5 16.6-7 4.4-4.5 6.9-10.4 6.8-16.7-.1-4.1-1.2-8-3-11.3"/></symbol><symbol id="sprite-exit_button" viewBox="0 0 48 48"><title>exit_button</title><path d="M13.7 36.7V10.4c0-.8.7-1.5 1.5-1.5H33c.8 0 1.5.7 1.5 1.5v26.3h9.3c2.5-3.9 3.9-8.3 3.8-13C47.5 10.8 36.9.2 23.9.2 10.7.3.1 11 .2 24.1c0 4.6 1.4 9 3.8 12.6h9.7z"/><path class="st0" d="M25.2 33V11.9h-8.5v24.3l8.5-3.2zm-1.8-13.2c.6 0 1.1.8 1.1 1.8s-.5 1.8-1.1 1.8-1.1-.8-1.1-1.8.4-1.8 1.1-1.8z"/><path class="st0" d="M33 39.7c-.8 0-1.5-.7-1.5-1.5V11.9h-3.2v21.6c0 1-.7 1.9-1.6 2.2l-10.5 3.9c-.3.1-.6.2-.9.2h-9c4.3 4.8 10.6 7.9 17.6 7.9h.2c6.3-.1 12.3-2.5 16.7-7.1.2-.3.5-.5.7-.8H33z"/></symbol><symbol id="sprite-facebook" viewBox="0 0 120 120"><title>Artboard 1</title><path d="M60 1a59 59 0 1059 59A59 59 0 0060 1zm12.87 59h-8.42v30H52V60h-6V49.42h6v-6.86C52 37.65 54.31 30 64.56 30h9.24v10.3h-6.71c-1.09 0-2.64.55-2.64 2.89v6.23H74z"/></symbol><symbol fill-rule="evenodd" clip-rule="evenodd" stroke-linejoin="round" stroke-miterlimit="2" id="sprite-file" viewBox="0 0 100 100"><title>file</title><path d="M90.055 18.158c0-6.391-5.188-11.58-11.579-11.58H23.01c-6.391 0-11.579 5.189-11.579 11.58v61.279c0 6.391 5.188 11.579 11.579 11.579h55.466c6.391 0 11.579-5.188 11.579-11.579V18.158zm-4 37.475H15.431v23.804a7.583 7.583 0 007.579 7.579h55.466a7.583 7.583 0 007.579-7.579V55.633z"/></symbol><symbol id="sprite-happy_button" viewBox="0 0 48 48"><title>happy_button</title><path d="M24.2.3C11.1.1.4 10.8.2 23.6v.4c0 13 10.6 23.6 23.4 23.7h.3c13 0 23.5-10.5 23.7-23.4C47.7 11.2 37.2.5 24.2.3zm8.5 13.9c2 0 3.6 1.6 3.6 3.6s-1.6 3.6-3.6 3.6-3.6-1.6-3.6-3.6c0-1.9 1.6-3.6 3.6-3.6zm-17.5 0c2 0 3.6 1.6 3.6 3.6s-1.6 3.6-3.6 3.6-3.6-1.6-3.6-3.6c0-1.9 1.6-3.6 3.6-3.6zm21.4 16.9C33.8 35.2 29.2 38 24 38s-9.9-2.7-12.6-6.9c-.3-.5-.4-1.1-.1-1.6.3-.5.7-.8 1.2-.8s1 .2 1.5.7c2.2 3.3 5.9 5.5 10.1 5.5s7.8-2.2 10.1-5.5c.5-.7 1.5-.9 2.2-.4s.6 1.4.2 2.1z"/></symbol><symbol id="sprite-happy" viewBox="0 0 48 48"><title>happy</title><path d="M24.2.3c13 .2 23.5 10.9 23.4 24-.2 12.9-10.7 23.4-23.7 23.4h-.3C10.8 47.6.2 37 .2 24v-.4C.4 10.8 11.1.1 24.2.3zm17.6 33.6c1.8-3.2 2.7-6.7 2.6-10.4-.3-10.8-8.9-19.6-19.7-20-10.7-.4-20 7.6-21.1 18.4-.5 5 .6 9.6 3.5 13.7 4.1 5.7 9.7 8.6 16.7 8.9h.2c3.8 0 7.2-1 10.4-2.9 3.1-1.9 5.6-4.5 7.4-7.7zm-29.4-5.2c-.5 0-1 .3-1.2.8-.3.5-.2 1.1.1 1.6 2.8 4.1 7.4 6.9 12.6 6.9s9.9-2.7 12.6-6.9c.5-.7.3-1.7-.4-2.1-.7-.5-1.7-.3-2.2.4-2.2 3.3-5.9 5.5-10.1 5.5-4.2 0-7.8-2.2-10.1-5.5-.2-.5-.8-.7-1.3-.7zm20.3-14.5c-2 0-3.6 1.6-3.6 3.6s1.6 3.6 3.6 3.6 3.6-1.6 3.6-3.6-1.6-3.6-3.6-3.6zm-17.5 0c-2 0-3.6 1.6-3.6 3.6s1.6 3.6 3.6 3.6 3.6-1.6 3.6-3.6-1.6-3.6-3.6-3.6z"/></symbol><symbol id="sprite-help" viewBox="0 0 48 48"><title>help</title><path d="M30.4 37.8H17.8V35h2c1.2 0 1.7-.5 1.7-1.7v-11c0-1.2-.5-1.7-1.7-1.7h-2v-2.8h8.8v15.6c0 1.3.5 1.7 1.7 1.7h2.1v2.7zM23.5 8.7c1.7 0 3.1 1.4 3.1 3.1 0 1.7-1.4 3.1-3.1 3.1s-3.1-1.4-3.1-3.1c0-1.8 1.4-3.1 3.1-3.1zM24 0C10.7 0 0 10.8 0 24s10.7 24 24 24 24-10.7 24-24S37.2 0 24 0z"/></symbol><symbol id="sprite-homepage" viewBox="0 0 120 120"><title>homepage</title><path d="M60 1a59 59 0 1059 59A58.95 58.95 0 0060 1zm23.34 55v29.4H68.75V66.23h-17.5v19.19H36.66V56H26.33L60 22.58 93.67 56z"/></symbol><symbol id="sprite-instagram" viewBox="0 0 120 120"><title>Artboard 3</title><path d="M60 1.05A59 59 0 111.05 60 58.95 58.95 0 0160 1.05zm29.29 74.67V44.28a13.58 13.58 0 00-13.57-13.57H44.28a13.58 13.58 0 00-13.57 13.57v31.44a13.58 13.58 0 0013.57 13.57h31.44a13.58 13.58 0 0013.57-13.57zM74.68 43.66a2.83 2.83 0 102.82-2.83 2.83 2.83 0 00-2.82 2.83zM46.47 60A13.53 13.53 0 1060 46.47 13.53 13.53 0 0046.47 60z"/></symbol><symbol id="sprite-iplayer" viewBox="0 0 120 120"><title>Artboard 6</title><path d="M60 1.05A59 59 0 111.05 60 58.95 58.95 0 0160 1.05zM82 65c3.65-3.28 3.73-6.79.06-10-2.46-2.17-4.88-4.37-7.32-6.56C69 43.3 63.33 38.14 57.56 33.05a7.31 7.31 0 00-5.11-1.95c-2.15.07-4.29 0-6.44 0a4.48 4.48 0 00-4.64 3.9c-.65 2.78-.14 5.6-.34 8.39-.11 1.49.6 1.83 1.92 1.8 3-.07 6 0 9.06 0 3.39 0 3.41 0 3.44-3.31 0-.93.07-1.79 1-2.19a2 2 0 012.17.68q9.78 8.76 19.55 17.54C80 59.48 80 60.34 78.25 62Q68.65 70.63 59 79.29c-.74.66-1.42 1.57-2.59 1.09s-1-1.63-1-2.61V53.42c0-1.42-.41-1.83-1.81-1.79-3.62.09-7.24.09-10.86 0-1.43 0-1.87.51-1.85 1.88.06 5 0 9.93 0 14.89 0 4.9-.09 9.8 0 14.69.08 3.4 2.17 6.12 5.71 5.74a21.76 21.76 0 014.42 0c3.36.31 5.91-1.17 8.27-3.34C66.93 78.66 74.44 71.8 82 65z"/></symbol><symbol fill-rule="evenodd" clip-rule="evenodd" stroke-linejoin="round" stroke-miterlimit="2" id="sprite-marshal_button" viewBox="0 0 48 48"><title>marshal_button</title><path d="M25.132 47.768c-.31.017-.621.027-.932.032H24c-.346 0-.69-.008-1.031-.022l-.002-14.907h2.165v14.897zm-1.978-30.046H9.981a2.171 2.171 0 00-2.166 2.165c0 1.191.974 2.165 2.166 2.165h8.658v25.132C8.203 44.746.372 35.357.2 24.2.1 11.1 10.8.4 24 .3c13 0 23.6 10.6 23.8 23.6 0 6.3-2.5 12.2-6.9 16.8-3.151 3.295-7.123 5.461-11.438 6.461L29.46 22.05h8.659a2.171 2.171 0 002.165-2.165 2.174 2.174 0 00-2.167-2.163H24.944a3.248 3.248 0 00-.895-6.368 3.247 3.247 0 00-.895 6.368z" fill-rule="nonzero"/></symbol><symbol id="sprite-message_button" viewBox="0 0 48 48"><title>message_button</title><path d="M24 28.2l19.4-17.7C39 4.4 32 .5 24 .4c-8 0-15.2 4-19.4 10.2L24 28.2zm21 6.6c1.7-3.2 2.6-6.8 2.6-10.6 0-3.9-.9-7.7-2.7-11L33.2 24 45 34.8zM14.8 24L2.9 13.3C1.3 16.5.3 20.1.3 23.8c0 3.9.9 7.6 2.6 10.9L14.8 24zm16.1 2L25 31.4c-.3.3-.7.4-1 .4-.4 0-.7-.2-1-.4L17.1 26 4.6 37.4c.8 1.1 1.7 2.2 2.6 3.1 4.4 4.5 10.3 7 16.6 7h.2c8 0 15.1-4 19.4-10.2L30.9 26z"/></symbol><symbol id="sprite-message" viewBox="0 0 48 48"><title>message</title><style/><path d="M24.3.4c13 .2 23.4 10.8 23.4 23.8C47.6 37 37 47.6 24 47.6h-.3C10.8 47.5.4 37 .4 24v-.4C.5 10.8 11.2.2 24.3.4zm18.3 32.1c2.5-5.7 2.5-11.4 0-17.1-3.2 2.9-6.3 5.7-9.4 8.5 3.1 3 6.2 5.8 9.4 8.6zm-1.5 2.8c-3.4-3.1-6.8-6.1-10.1-9.2l-.1.1c-1.9 1.7-3.8 3.4-5.7 5.2-.7.6-1.5.6-2.2 0-1.5-1.3-3-2.7-4.5-4-.5-.4-.9-.8-1.4-1.2-3.4 3.1-6.8 6.1-10.2 9.2 4.4 6.1 10.2 9.3 17.8 9.1 6.9-.3 12.3-3.6 16.4-9.2zM24 28.2c5.7-5.2 11.4-10.3 17-15.5C32.8.4 15 .6 7 12.8c5.6 5.1 11.3 10.3 17 15.4zM14.8 24c-3.1-2.9-6.2-5.7-9.4-8.5-2.5 5.3-2.5 12 0 17 3.2-2.8 6.3-5.7 9.4-8.5z" id="XMLID_5_"/></symbol><symbol id="sprite-next_button" viewBox="0 0 48 48"><title>next_button</title><path d="M40.8 7.3C36.3 2.8 30.4.3 24 .3 17.7.3 11.9 2.7 7.4 7.1c-4.5 4.4-7 10.3-7 16.7 0 6.4 2.4 12.3 6.8 16.7 4.5 4.5 10.4 7 16.8 7 6.3 0 12.1-2.4 16.6-6.8 4.5-4.4 7-10.3 7-16.7s-2.4-12.3-6.8-16.7zm-7.7 17.9L20 38.3c-.3.3-.7.5-1.1.5-.4 0-.8-.2-1.1-.5-.6-.7-.6-1.7 0-2.3l12-12-12-12c-.6-.7-.6-1.7 0-2.3.7-.6 1.7-.6 2.3 0l13 13.3c.3.3.5.7.5 1.1 0 .4-.2.8-.5 1.1z"/></symbol><symbol fill-rule="evenodd" clip-rule="evenodd" stroke-linejoin="round" stroke-miterlimit="2" id="sprite-next" viewBox="0 0 200 200"><title>next</title><path d="M61.042 49.792c-2.5-2.5-2.5-6.667 0-9.584 1.25-1.25 2.916-2.083 4.583-2.083 1.667 0 3.333.833 4.583 2.083l55.417 55.417c1.25 1.25 2.083 2.917 2.083 4.583 0 1.667-.833 3.334-2.083 4.584l-55 55.416c-2.5 2.5-6.667 2.5-9.583 0-2.5-2.5-2.5-6.666 0-9.583l50.416-50.417-50.416-50.416z" fill-rule="nonzero"/></symbol><symbol fill-rule="evenodd" clip-rule="evenodd" stroke-linejoin="round" stroke-miterlimit="2" id="sprite-noticeboard" viewBox="0 0 200 200"><title>noticeboard</title><path d="M122.928 13.834c-10.632 13.905-8.682 33.336 3.913 44.941L95.452 99.646c-1.089 1.424-.837 3.312.588 4.407.715.547 1.541.754 2.326.65.784-.105 1.533-.523 2.074-1.237l31.234-40.851c6.806 4.212 14.692 5.724 22.241 4.717 8.493-1.133 16.546-5.569 22.293-12.898 11.178-14.62 8.346-35.854-6.274-47.028C155.16-3.752 134.08-.94 122.926 13.833l.002.001z" fill="#dc3c3c" fill-rule="nonzero"/><path d="M185.256 50.234c19.701 33.593 18.521 77.029-6.633 109.927l-.715.936c-32.625 42.185-94.576 50.449-137.642 17.522l-1.404-1.074C-2.965 144.452-11.285 82.088 22.469 38.912 47.005 7.889 86.905-4.603 123.466 4.262a39.173 39.173 0 00-5.178 5.626h.003a39.558 39.558 0 00-3.726 5.872c-29.352-4.952-60.284 5.411-80.311 29.566-28.192 34.448-25.601 85.385 7.525 116.276 15.365 14.345 33.263 22.466 54.354 23.015 29.104.741 52.837-10.412 71.724-32.688l.716-.936c9.663-12.639 14.977-26.379 16.71-41.743 1.018-14.428-1.379-29.241-7.079-43.614a92.584 92.584 0 00-1.591-3.455 41.557 41.557 0 004.226-4.629 38.9 38.9 0 004.417-7.318z" fill-rule="nonzero"/></symbol><symbol id="sprite-person_button" viewBox="0 0 48 48"><title>person_button</title><path d="M24 28.2l19.4-17.7C39 4.4 32 .5 24 .4c-8 0-15.2 4-19.4 10.2L24 28.2zm21 6.6c1.7-3.2 2.6-6.8 2.6-10.6 0-3.9-.9-7.7-2.7-11L33.2 24 45 34.8zM14.8 24L2.9 13.3C1.3 16.5.3 20.1.3 23.8c0 3.9.9 7.6 2.6 10.9L14.8 24zm16.1 2L25 31.4c-.3.3-.7.4-1 .4-.4 0-.7-.2-1-.4L17.1 26 4.6 37.4c.8 1.1 1.7 2.2 2.6 3.1 4.4 4.5 10.3 7 16.6 7h.2c8 0 15.1-4 19.4-10.2L30.9 26z"/></symbol><symbol fill-rule="evenodd" clip-rule="evenodd" stroke-linejoin="round" stroke-miterlimit="2" id="sprite-person" viewBox="0 0 48 48"><title>person</title><g fill-rule="nonzero"><path d="M24 .3C10.8.4.1 11.1.2 24.2.4 37.2 11 47.8 24 47.8h.2c6.3-.1 12.3-2.5 16.7-7.1 4.4-4.6 6.9-10.5 6.9-16.8C47.6 10.9 37 .3 24 .3zm14.6 38.2c-3.9 3.9-9 6.1-14.5 6.1H24c-11.2 0-20.5-9.2-20.5-20.4-.1-11.4 9-20.6 20.4-20.7 11.4 0 20.6 9.2 20.7 20.4 0 5.5-2.1 10.7-6 14.6z"/><path d="M22.934 17.722a3.312 3.312 0 114.377-3.135 3.315 3.315 0 01-2.246 3.135h13.052c1.191 0 2.165.974 2.167 2.163a2.171 2.171 0 01-2.165 2.165H29.46l.002 22.726a2.171 2.171 0 01-2.165 2.165 2.171 2.171 0 01-2.165-2.165V32.871h-2.165l.002 11.907a2.171 2.171 0 01-2.165 2.165 2.171 2.171 0 01-2.165-2.165V22.052H9.981a2.171 2.171 0 01-2.166-2.165c0-1.191.974-2.165 2.166-2.165h12.953z"/></g></symbol><symbol id="sprite-plus_button" viewBox="0 0 48 48"><title>plus_button</title><path d="M24.3.3C11.2.1.5 10.8.3 23.6v.4c0 13 10.6 23.6 23.4 23.7h.3c13 0 23.5-10.5 23.7-23.4C47.8 11.2 37.3.5 24.3.3zm14.1 23.9c-.1.9-.8 1.6-1.8 1.6H25.9v10.6c0 1-.8 1.9-1.7 1.9h-.1c-1 0-1.7-.7-1.8-1.8V25.7H11.6c-.6 0-1.1-.2-1.5-.6-.3-.4-.5-.9-.4-1.4.1-.9.8-1.5 1.8-1.6h10.7V11.4c0-1 .8-1.9 1.7-1.9.5 0 1 .1 1.3.5.4.3.6.8.6 1.3v10.9h10.5c.5-.1 1 .1 1.3.5.6.3.8.9.8 1.5z"/></symbol><symbol id="sprite-plus" viewBox="0 0 48 48"><title>plus</title><path d="M24.3.3c13 .2 23.5 10.9 23.4 24C47.5 37.2 37 47.7 24 47.7h-.3C10.9 47.6.3 37 .3 24v-.4C.5 10.8 11.2.1 24.3.3zm17.6 33.6c1.8-3.2 2.7-6.7 2.6-10.4-.3-10.8-8.9-19.6-19.7-20-10.7-.4-20 7.6-21.1 18.4-.5 5 .6 9.6 3.5 13.7 4.1 5.7 9.7 8.6 16.7 8.9h.2c3.8 0 7.2-1 10.4-2.9 3.1-1.9 5.6-4.5 7.4-7.7zm-3.7-9.8c-.1.8-.8 1.3-1.6 1.4H25.8c-.1-.1-.1 0-.2-.1v10.9c0 .8-.6 1.6-1.5 1.6-.9.1-1.6-.6-1.7-1.6V25.2H11.5c-1 0-1.8-.8-1.6-1.8.1-.8.8-1.3 1.6-1.4h10.7c.1-.1.1 0 .2.1 0-.1.1-.2 0-.3V11.2c0-.8.6-1.6 1.5-1.6.9-.1 1.6.6 1.7 1.6V22c0 .1 0 .1-.1.4.1 0 .2-.1.3 0h10.6c1-.1 1.8.8 1.8 1.7z"/></symbol><symbol id="sprite-prev_button" viewBox="0 0 48 48"><title>prev_button</title><path d="M40.8 7.1C36.3 2.6 30.3.2 24 .2c-6.4 0-12.5 2.5-17 7S.1 17.7.1 24.1c0 6.4 2.6 12.4 7.1 16.9 4.5 4.4 10.4 6.9 16.8 6.9s12.4-2.5 17-7.1c4.5-4.5 6.9-10.5 6.9-16.9 0-6.4-2.6-12.3-7.1-16.8zm-10.6 29c.6.6.6 1.6 0 2.3-.3.3-.7.5-1.1.5-.4 0-.8-.2-1.1-.5L14.7 25.1c-.3-.3-.5-.7-.5-1.1s.2-.8.5-1.1L27.9 9.6c.6-.6 1.6-.6 2.3 0 .6.6.6 1.6 0 2.3L18.1 24l12.1 12.1z"/></symbol><symbol fill-rule="evenodd" clip-rule="evenodd" stroke-linejoin="round" stroke-miterlimit="2" id="sprite-prev" viewBox="0 0 200 200"><title>prev</title><path d="M125.833 150.417c2.5 2.5 2.5 6.666 0 9.583-1.25 1.25-2.916 2.083-4.583 2.083-1.667 0-3.333-.833-4.583-2.083L61.25 104.583c-1.25-1.25-2.083-2.916-2.083-4.583 0-1.667.833-3.333 2.083-4.583l55-55.417c2.5-2.5 6.667-2.5 9.583 0 2.5 2.5 2.5 6.667 0 9.583L75.417 100l50.416 50.417z" fill-rule="nonzero"/></symbol><symbol id="sprite-question_button" viewBox="0 0 48 48"><title>question_button</title><path d="M41.1 7.1C36.5 2.6 30.5 0 24 0 17.7 0 11.6 2.5 7.2 6.9 2.6 11.4.1 17.4 0 23.8c0 6.5 2.5 12.5 7 17 4.5 4.6 10.5 7.1 17.1 7.1 6.4 0 12.4-2.5 16.8-6.9 9.4-9.2 9.5-24.4.2-33.9zM25.8 37.2c0 .9-.7 1.6-1.6 1.6-.9 0-1.6-.7-1.6-1.6V35c0-.9.7-1.6 1.6-1.6.9 0 1.6.7 1.6 1.6v2.2zm2.6-13.8l-.1.1c-1.8 1.5-2.4 2.2-2.4 5.8 0 .9-.7 1.6-1.6 1.6-.9 0-1.6-.7-1.6-1.6 0-4.4 1.1-6 3.6-8.2l.1-.1c2.2-1.9 3-2.6 3-4.3 0-1.8-1.8-3.7-4.7-3.7-2.7 0-3.8 1.3-4.8 2.4l-.1.1-.3.3c-.3.3-.7.5-1.1.6-.4 0-.8-.1-1.1-.4-.3-.3-.5-.7-.6-1.1 0-.4.1-.8.4-1.1l.3-.3c1.1-1.2 3.1-3.5 7.2-3.5 2.2 0 4.2.8 5.7 2.2 1.4 1.3 2.2 3 2.2 4.6-.1 3.3-2.1 5-4.1 6.6z"/></symbol><symbol id="sprite-question" viewBox="0 0 48 48"><title>question</title><path d="M25.8 35v2.3c0 .9-.7 1.6-1.6 1.6s-1.6-.7-1.6-1.6V35c0-.9.7-1.6 1.6-1.6s1.6.7 1.6 1.6zM24.5 9.9c-4 0-6.1 2.3-7.2 3.5l-.3.3c-.3.3-.5.7-.4 1.1 0 .4.2.8.6 1.1.3.3.7.4 1.1.4.4 0 .8-.2 1.1-.6l.3-.3.1-.1c.9-1.1 2.1-2.4 4.8-2.4 2.9 0 4.7 1.9 4.7 3.7 0 1.7-.8 2.4-3 4.3l-.1.1c-2.5 2.2-3.6 3.8-3.6 8.2 0 .9.7 1.6 1.6 1.6s1.6-.7 1.6-1.6c0-3.6.6-4.3 2.4-5.8l.1-.1c2-1.6 4-3.2 4-6.7 0-1.7-.8-3.3-2.2-4.6-1.3-1.3-3.4-2.1-5.6-2.1zm23.4 14c0 6.4-2.4 12.4-6.9 16.9-4.6 4.6-10.6 7.1-17 7.1S11.7 45.4 7.2 41C2.7 36.5.1 30.5.1 24.1.1 17.7 2.5 11.7 7 7.2s10.6-7 17-7c6.3 0 12.3 2.4 16.8 6.9s7.1 10.4 7.1 16.8zm-3.3 0c0-5.5-2.2-10.6-6.1-14.5-3.9-3.9-9-6-14.5-6-5.6 0-10.8 2.1-14.7 6.1-3.8 3.9-5.9 9.1-5.9 14.6s2.2 10.7 6.1 14.5c3.9 3.9 9 6 14.5 6 5.6 0 10.8-2.1 14.7-6.1 3.8-3.9 5.9-9.1 5.9-14.6z"/></symbol><symbol id="sprite-required" viewBox="0 0 48 48"><title>required</title><path d="M35.7 22.5h-8l5.7-5.7c.6-.6.6-1.6 0-2.2-.6-.6-1.6-.6-2.2 0l-5.7 5.7v-8c0-.8-.7-1.5-1.5-1.5s-1.5.7-1.5 1.5v8l-5.7-5.7c-.6-.6-1.6-.6-2.2 0-.6.6-.6 1.6 0 2.2l5.7 5.7h-8c-.8 0-1.5.7-1.5 1.5s.7 1.5 1.5 1.5h8l-5.7 5.7c-.6.6-.6 1.6 0 2.2.3.3.7.4 1.1.4s.8-.2 1.1-.4l5.6-5.7v8c0 .8.7 1.5 1.5 1.5s1.5-.7 1.5-1.5v-8l5.7 5.7c.3.3.7.4 1.1.4.4 0 .8-.2 1.1-.4.6-.6.6-1.6 0-2.2l-5.7-5.7h8c.8 0 1.5-.7 1.5-1.5.1-.8-.6-1.5-1.4-1.5z"/></symbol><symbol id="sprite-sad_button" viewBox="0 0 48 48"><title>sad_button</title><path d="M24.2.3c13 .2 23.5 10.9 23.4 24-.2 12.9-10.7 23.4-23.7 23.4h-.3C10.8 47.6.2 37 .2 24v-.4C.4 10.8 11.1.1 24.2.3zM12.4 38c.5 0 1-.2 1.5-.7 2.2-3.3 5.9-5.5 10.1-5.5 4.2 0 7.8 2.2 10.1 5.5.5.7 1.5.9 2.2.4.7-.5.9-1.5.4-2.1-2.8-4.1-7.4-6.9-12.6-6.9-5.2 0-9.9 2.7-12.6 6.9-.3.5-.4 1.1-.1 1.6.1.5.5.7 1 .8zm20.3-23.8c-2 0-3.6 1.6-3.6 3.6s1.6 3.6 3.6 3.6 3.6-1.6 3.6-3.6-1.6-3.6-3.6-3.6zm-17.5 0c-2 0-3.6 1.6-3.6 3.6s1.6 3.6 3.6 3.6 3.6-1.6 3.6-3.6-1.6-3.6-3.6-3.6z"/></symbol><symbol id="sprite-sad" viewBox="0 0 48 48"><title>sad</title><path d="M24.2.3c13 .2 23.5 10.9 23.4 24-.2 12.9-10.7 23.4-23.7 23.4h-.3C10.8 47.6.2 37 .2 24v-.4C.4 10.8 11.1.1 24.2.3zm17.6 33.6c1.8-3.2 2.7-6.7 2.6-10.4-.3-10.8-8.9-19.6-19.7-20-10.7-.4-20 7.6-21.1 18.4-.5 5 .6 9.6 3.5 13.7 4.1 5.7 9.7 8.6 16.7 8.9h.2c3.8 0 7.2-1 10.4-2.9 3.1-1.9 5.6-4.5 7.4-7.7zM12.4 38c.5 0 1-.2 1.5-.7 2.2-3.3 5.9-5.5 10.1-5.5 4.2 0 7.8 2.2 10.1 5.5.5.7 1.5.9 2.2.4.7-.5.9-1.5.4-2.1-2.8-4.1-7.4-6.9-12.6-6.9-5.2 0-9.9 2.7-12.6 6.9-.3.5-.4 1.1-.1 1.6.1.5.5.7 1 .8zm20.3-23.8c-2 0-3.6 1.6-3.6 3.6s1.6 3.6 3.6 3.6 3.6-1.6 3.6-3.6-1.6-3.6-3.6-3.6zm-17.5 0c-2 0-3.6 1.6-3.6 3.6s1.6 3.6 3.6 3.6 3.6-1.6 3.6-3.6-1.6-3.6-3.6-3.6z"/></symbol><symbol id="sprite-search_button" viewBox="0 0 48 48"><title>search_button</title><path d="M18.8 9.3c-5.6 0-10 4.5-10 10s4.5 10 10 10c5.6 0 10-4.5 10-10s-4.5-10-10-10z"/><path d="M24.1 1.9c-12.3 0-22.2 9.9-22.2 22.2s9.9 22.2 22.2 22.2c12.3 0 22.2-9.9 22.2-22.2S36.3 1.9 24.1 1.9zm11.8 36.3l-9.3-9.3c-2.1 1.7-4.8 2.8-7.8 2.8-6.8 0-12.3-5.6-12.3-12.3S11.9 7.1 18.7 7.1 31 12.6 31 19.4c0 2.9-1 5.7-2.8 7.8l9.3 9.3-1.6 1.7z"/></symbol><symbol fill-rule="evenodd" clip-rule="evenodd" stroke-linejoin="round" stroke-miterlimit="2" id="sprite-search" viewBox="0 0 200 200"><title>search</title><path d="M129.167 80.833c0-28.333-22.917-51.25-51.25-51.25-28.334 0-51.25 22.917-51.25 51.25 0 28.334 22.916 51.25 51.25 51.25 12.5 0 23.75-4.583 32.5-11.666l38.75 38.75 6.666-7.084-38.75-38.75c7.917-8.75 12.084-20.416 12.084-32.5zM78.333 122.5c-23.333 0-41.666-18.75-41.666-41.667 0-22.916 18.75-41.666 41.666-41.666 23.334 0 41.667 18.75 41.667 41.666 0 22.917-18.75 41.667-41.667 41.667z" fill-rule="nonzero"/></symbol><symbol id="sprite-share" viewBox="-47 49 48 48"><title>share</title><path class="st0" d="M-17.5 66v3h6.6v24.1h-24.2V69h6.6v-3h-9.6v30.1h30.2V66z"/><path class="st0" d="M-24.5 54.9V81h3V54.9l5.8 5.6 2-2.2-9.3-9-9.3 9.1 2 2.1z"/></symbol><symbol id="sprite-snapchat" viewBox="0 0 120 120"><title>Artboard 5</title><path d="M60 1.05A59 59 0 111.05 60 58.95 58.95 0 0160 1.05zm28.7 75.7a1.8 1.8 0 00.89-.83c-1.14-.37-2.26-.65-3.33-1.08a17.76 17.76 0 01-7.38-5.91 19.2 19.2 0 01-2.88-5 3.24 3.24 0 011.41-4.13 7.05 7.05 0 011.25-.65c.75-.29 1.52-.53 2.27-.81A5.09 5.09 0 0083.1 57a.66.66 0 00-.1-1.08 2.23 2.23 0 00-2.37-.4 14.85 14.85 0 01-2.26.72 3.37 3.37 0 01-2.7-.5.8.8 0 01-.41-.81c.07-.68.11-1.37.13-2 .07-2.31.19-4.61.16-6.91a13.13 13.13 0 00-5.77-10.84 15.39 15.39 0 00-8.27-2.87A18.21 18.21 0 0053 33.56a14.37 14.37 0 00-8 8.51 13.6 13.6 0 00-.62 5c0 2.49.2 5 .3 7.47 0 1-.11 1.21-1 1.54a4.08 4.08 0 01-.9.22 6.85 6.85 0 01-3.67-.73 1.8 1.8 0 00-1.52 0c-.42.18-.86.38-.91.88a1 1 0 00.67 1c.71.39 1.46.72 2.21 1 1 .45 2.07.77 3 1.31a3 3 0 011.63 3.28 5.72 5.72 0 01-.44 1.46 21 21 0 01-2.89 4.75A17.73 17.73 0 0133.34 75c-.93.35-1.92.58-2.93.88a2.45 2.45 0 00.38.47 8.62 8.62 0 001.17.7 19.19 19.19 0 005.22 1.34 1.77 1.77 0 011.64 1.46c.17.69.32 1.39.49 2.08s.18.59.77.5c1-.16 2-.36 3-.46a10.61 10.61 0 017.62 1.83c.92.67 1.86 1.33 2.83 1.94a11.3 11.3 0 0012.91 0c.89-.55 1.76-1.15 2.6-1.78 2.61-2 5.57-2.34 8.7-1.94.77.09 1.54.22 2.31.36.42.07.59-.08.68-.5.17-.81.39-1.62.62-2.41a1.43 1.43 0 011.29-1.06c.89-.14 1.77-.3 2.65-.5a12.47 12.47 0 003.41-1.16z"/></symbol><symbol id="sprite-tick_button" viewBox="0 0 48 48"><title>tick_button</title><path d="M24.1 1.9c-12.3 0-22.2 9.9-22.2 22.2 0 12.3 9.9 22.2 22.2 22.2 12.3 0 22.2-9.9 22.2-22.2 0-12.3-10-22.2-22.2-22.2zM35 19.3L21.2 33.1c-.3.3-.7.4-1.1.4-.4 0-.8-.1-1.1-.4l-5.9-5.9c-.1-.2-.4-.6-.4-1.1 0-.6.4-1.1.9-1.3.6-.2 1.3 0 1.7.4l4.9 4.9L33 17.2c.4-.4 1-.6 1.6-.4.6.2.9.7.9 1.4 0 .5-.4.9-.5 1.1z"/></symbol><symbol id="sprite-tick" viewBox="0 0 48 48"><title>tick</title><path d="M24.3.3c13 .2 23.5 10.9 23.4 24C47.5 37.2 37 47.7 24 47.7h-.3C10.9 47.6.3 37 .3 24v-.4C.5 10.8 11.2.1 24.3.3zm17.6 33.6c1.8-3.2 2.7-6.7 2.6-10.4-.3-10.8-8.9-19.6-19.7-20-10.7-.4-20 7.6-21.1 18.4-.5 5 .6 9.6 3.5 13.7 4.1 5.7 9.7 8.6 16.7 8.9h.2c3.8 0 7.2-1 10.4-2.9 3.1-1.9 5.6-4.5 7.4-7.7zm-7.4-18.6c-.7-.2-1.5 0-1.9.5L20 28.4l-4.7-4.7c-.5-.6-1.3-.8-2-.5-.7.2-1.1.9-1.1 1.6 0 .5.4 1 .5 1.2l6 6c.3.3.8.5 1.3.5s.9-.2 1.3-.5l13.8-13.8c.2-.2.6-.7.6-1.3-.1-.7-.5-1.3-1.2-1.6z"/></symbol><symbol id="sprite-twitter" viewBox="0 0 120 120"><title>Artboard 2</title><path d="M60 1a59 59 0 1059 59A59 59 0 0060 1zm24.47 46.5v1.62c0 16.32-12.32 35.09-34.89 35.65h-1.75a35.93 35.93 0 01-18.61-5.61 25.8 25.8 0 003 .17A25.47 25.47 0 0047.91 74a12.63 12.63 0 01-11.8-8.71 12.73 12.73 0 005.7-.21A12.57 12.57 0 0131.68 52.8v-.16a12.65 12.65 0 005.72 1.57 12.49 12.49 0 01-3.9-16.74 36 36 0 0026 13.1 12.54 12.54 0 0112.3-15.39 12.66 12.66 0 019.22 4 25.42 25.42 0 008-3 12.59 12.59 0 01-5.5 6.82 25.4 25.4 0 007.25-2 25.57 25.57 0 01-6.3 6.55z"/></symbol><symbol id="sprite-unchosen" viewBox="0 0 48 48"><title>unchosen</title><path d="M34.1 14c.5.6.4 1.5-.1 2.1l-.7.7-6.9 6.9c-.1 0-.1.1-.2.1l.2.2 7.5 7.5c.6.6.7 1.6.1 2.2-.6.7-1.6.7-2.3.1l-.2-.2-7.4-7.4-.2-.2-.2.2-7.5 7.5c-.7.7-1.8.7-2.4-.1-.5-.6-.4-1.5.1-2.1l1.3-1.3 6.3-6.3c0-.1.1-.1.2-.1-.1-.1-.1-.2-.2-.2L14 16.1c-.6-.6-.7-1.6-.1-2.2.6-.7 1.6-.7 2.3-.1l.2.2 7.4 7.4c.1.1.1.1.2.4.1-.1.1-.2.2-.2l7.5-7.5c.6-.8 1.8-.7 2.4-.1z"/></symbol><symbol fill-rule="evenodd" clip-rule="evenodd" stroke-linejoin="round" stroke-miterlimit="2" id="sprite-upload_button" viewBox="0 0 100 100"><title>upload_button</title><path d="M53.282 92.392c21.585-1.69 38.8-19.895 39.007-42.064C92.397 26.827 73.638 7.59 50.325 7.48 26.904 7.48 7.928 26.499 7.82 49.781c-.109 11.368 4.229 22.08 12.036 30.059 7.213 7.271 16.441 11.627 26.424 12.513V41.207L30.527 56.96c-1.312 1.313-3.5 1.313-4.813 0-1.313-1.313-1.313-3.501 0-4.813l21.66-21.661c1.094-1.313 3.501-1.313 4.814 0l22.098 21.661c1.313 1.312 1.313 3.5 0 4.813-.656.657-1.75.875-2.626.875-1.094 0-1.969-.218-2.625-.875L53.282 41.207v51.185z" transform="translate(-7.712 -7.693) scale(1.15407)"/></symbol><symbol fill-rule="evenodd" clip-rule="evenodd" stroke-linejoin="round" stroke-miterlimit="2" id="sprite-upload" viewBox="0 0 100 100"><title>upload</title><path d="M50 .813c-26.783 0-48.578 21.97-48.795 48.859-.108 13.117 4.88 25.577 14.097 34.868 9.108 9.401 21.361 14.538 34.373 14.647H50c26.783 0 48.578-21.97 48.795-48.859C99.012 23.22 77.217 1.031 50 .813zm3.282 91.579c21.585-1.69 38.8-19.895 39.007-42.064C92.397 26.827 73.638 7.59 50.325 7.48 26.904 7.48 7.928 26.499 7.82 49.781c-.109 11.368 4.229 22.08 12.036 30.059 7.213 7.271 16.441 11.627 26.424 12.513V41.207L30.527 56.96c-1.312 1.313-3.5 1.313-4.813 0-1.313-1.313-1.313-3.501 0-4.813l21.66-21.661c1.094-1.313 3.501-1.313 4.814 0l22.098 21.661c1.313 1.312 1.313 3.5 0 4.813-.656.657-1.75.875-2.626.875-1.094 0-1.969-.218-2.625-.875L53.282 41.207v51.185z"/></symbol><symbol id="sprite-user_button" viewBox="0 0 48 48"><title>user_button</title><path d="M5.1 38.1C1.9 34 .2 29 .3 23.8.4 10.8 11.1.2 24.1.2 37.4.3 48 11 47.9 24.1c0 5.2-1.8 10.1-4.7 14-.5-2.4-1.4-4.7-2.8-6.8-1.6-2.3-3.7-4.2-6.3-5.6 1.2-1.7 1.7-4 1.7-6.2 0-6.4-5.2-11.7-11.7-11.7-6.5 0-11.7 5.5-11.7 11.9 0 2.3.6 4.3 1.7 6.2-2.4 1.3-4.7 3.1-6.3 5.6-1.3 2-2.4 4.1-2.7 6.6zM16 19.8c0 4.4 3.6 8.1 8.1 8.1s8.1-3.8 8.1-8.3c0-4.4-3.7-8.1-8.1-8.1-4.4 0-8.1 3.9-8.1 8.3zm23.8 21.9v-.3c0-2.9-.8-5.7-2.4-8-1.5-2.1-3.4-3.7-5.7-4.8-2 1.7-4.7 2.8-7.6 2.8-2.9 0-5.6-1-7.6-2.8-2.2 1-4.2 2.7-5.7 4.8-1.6 2.4-2.4 5.1-2.4 8v.4c4.3 3.8 9.7 5.9 15.5 6h.2c6-.1 11.6-2.4 15.7-6.1z"/></symbol><symbol id="sprite-user" viewBox="0 0 48 48"><title>user</title><path d="M24.1.2C11.1.2.4 10.8.3 23.8c-.1 6.3 2.4 12.3 6.9 16.8 4.4 4.5 10.4 7 16.7 7.1h.2c13 0 23.7-10.6 23.8-23.6C48 11 37.4.3 24.1.2zM24 44.5c-5-.1-9.7-1.8-13.4-5.1V39c0-2.5.7-4.8 2.1-6.9 1.3-1.8 3-3.2 4.9-4.1 1.7 1.5 4 2.4 6.5 2.4s4.8-.9 6.5-2.4c2 .9 3.6 2.3 4.9 4.1 1.4 2 2.1 4.4 2.1 6.9v.3c-3.6 3.1-8.4 5.1-13.6 5.2zm.1-17c-3.9 0-7-3.2-7-7s3.2-7.1 7-7.1 7 3.2 7 7-3.1 7.1-7 7.1zm16.4 8.8c-.4-2.1-1.2-4.1-2.4-5.9-1.4-2-3.2-3.6-5.4-4.8 1-1.5 1.5-3.4 1.5-5.3 0-5.5-4.5-10.1-10.1-10.1S14 14.9 14 20.4c0 2 .5 3.7 1.5 5.3-2.1 1.1-4 2.7-5.4 4.8-1.2 1.8-2.1 3.7-2.4 5.9-2.7-3.6-4.2-8-4.2-12.6.1-11.3 9.4-20.5 20.8-20.5 11.3.1 20.5 9.4 20.4 20.7 0 4.6-1.6 8.8-4.2 12.3z"/></symbol><symbol id="sprite-valid" viewBox="0 0 24 24"><title>valid</title><path d="M13.1 7.5c-2.6 0-4.7 2.1-4.7 4.7s2.1 4.7 4.7 4.7 4.7-2.1 4.7-4.7-2.1-4.7-4.7-4.7zm2.3 3.7l-2.9 2.9c-.1.1-.1.1-.2.1s-.2 0-.2-.1l-1.3-1.3s-.1-.1-.1-.2.1-.2.2-.3c.1 0 .3 0 .4.1l1 1 2.7-2.7c.1-.1.2-.1.3-.1s.2.1.2.3c0 .2-.1.3-.1.3z"/></symbol></svg>