<?xml version="1.0" encoding="UTF-8" standalone="no"?>
<!DOCTYPE svg PUBLIC "-//W3C//DTD SVG 1.1//EN" "http://www.w3.org/Graphics/SVG/1.1/DTD/svg11.dtd">
<svg width="100%" height="100%" viewBox="0 0 48 48" version="1.1" xmlns="http://www.w3.org/2000/svg" xmlns:xlink="http://www.w3.org/1999/xlink" xml:space="preserve" xmlns:serif="http://www.serif.com/" style="fill-rule:evenodd;clip-rule:evenodd;stroke-linejoin:round;stroke-miterlimit:2;">
    <path d="M31.381,46.413C29.106,47.096 26.717,47.551 24.214,47.551L24.1,47.551C23.076,47.551 22.28,47.437 21.256,47.323L21.256,43.341L23.645,43.341C24.555,43.341 25.238,42.659 25.238,41.748C25.238,40.838 24.555,40.156 23.645,40.156L21.256,40.156L21.256,37.425L23.645,37.425C24.555,37.425 25.238,36.742 25.238,35.832C25.238,34.922 24.555,34.239 23.645,34.239L21.256,34.239L21.256,31.509L23.645,31.509C24.555,31.509 25.238,30.826 25.238,29.916C25.238,29.006 24.555,28.323 23.645,28.323L21.256,28.323L21.256,25.593L23.645,25.593C24.555,25.593 25.238,24.91 25.238,24C25.238,23.09 24.555,22.407 23.645,22.407L21.256,22.407L21.256,19.449L23.645,19.449C24.555,19.449 25.238,18.766 25.238,17.856C25.238,16.946 24.555,16.263 23.645,16.263L21.256,16.263L21.256,14.102L31.381,14.102L31.381,46.413ZM33.202,9.437C32.519,9.437 31.837,9.892 31.609,10.575L19.435,10.575C18.411,10.575 17.729,11.371 17.729,12.281L17.729,16.263L15.112,16.263C14.202,16.263 13.519,16.946 13.519,17.856C13.519,18.766 14.202,19.449 15.112,19.449L17.729,19.449L17.729,22.066L15.226,22.066C14.316,22.066 13.633,22.749 13.633,23.659C13.633,24.569 14.316,25.251 15.226,25.251L17.729,25.251L17.729,27.982L15.112,27.982C14.202,27.982 13.519,28.665 13.519,29.575C13.519,30.485 14.202,31.168 15.112,31.168L17.729,31.168L17.729,33.898L15.112,33.898C14.202,33.898 13.519,34.581 13.519,35.491C13.519,36.401 14.202,37.084 15.112,37.084L17.729,37.084L17.729,39.814L15.226,39.814C14.316,39.814 13.633,40.497 13.633,41.407C13.633,42.317 14.316,43 15.226,43L17.729,43L17.729,46.754C7.831,43.91 0.663,34.922 0.549,24.114C0.435,11.144 10.902,0.563 23.986,0.449C32.064,0.449 39.118,4.431 43.441,10.575L34.908,10.575C34.567,9.892 33.884,9.437 33.202,9.437ZM40.825,40.611C39.118,42.317 37.07,43.91 34.908,44.934L34.908,14.102L45.375,14.102C46.741,17.06 47.537,20.359 47.651,23.886C47.651,30.144 45.262,36.06 40.825,40.611Z"/>
</svg>
