<?xml version="1.0" encoding="utf-8"?>
<!-- Generator: Adobe Illustrator 19.2.1, SVG Export Plug-In . SVG Version: 6.00 Build 0)  -->
<!DOCTYPE svg PUBLIC "-//W3C//DTD SVG 1.1//EN" "http://www.w3.org/Graphics/SVG/1.1/DTD/svg11.dtd">
<svg version="1.1" id="Layer_1" xmlns="http://www.w3.org/2000/svg" xmlns:xlink="http://www.w3.org/1999/xlink" x="0px" y="0px"
	 viewBox="0 0 48 48" style="enable-background:new 0 0 48 48;" xml:space="preserve">
<style type="text/css">
	.st0{fill:#010202;}
</style>
<path class="st0" d="M24,0.4C10.8,0.5,0.3,11.1,0.4,24.2C0.5,37.1,11,47.6,24,47.6h0.2c6.3-0.1,12.2-2.5,16.6-7s6.9-10.4,6.8-16.7 C47.5,10.9,37,0.4,24,0.4z M35.7,25.5h-8l5.7,5.7c0.6,0.6,0.6,1.6,0,2.2c-0.3,0.3-0.7,0.4-1.1,0.4c-0.4,0-0.8-0.2-1.1-0.4l-5.6-5.7 v8c0,0.8-0.7,1.5-1.5,1.5c-0.8,0-1.5-0.7-1.5-1.5v-8l-5.7,5.7c-0.3,0.3-0.7,0.4-1.1,0.4c-0.4,0-0.8-0.2-1.1-0.4 c-0.6-0.6-0.6-1.6,0-2.2l5.7-5.7h-8c-0.8,0-1.5-0.7-1.5-1.5c0-0.8,0.7-1.5,1.5-1.5h8l-5.7-5.7c-0.6-0.6-0.6-1.6,0-2.2s1.6-0.6,2.2,0 l5.7,5.7v-8c0-0.8,0.7-1.5,1.5-1.5c0.8,0,1.5,0.7,1.5,1.5v8l5.7-5.7c0.6-0.6,1.6-0.6,2.2,0c0.6,0.6,0.6,1.6,0,2.2l-5.7,5.7h8 c0.8,0,1.5,0.7,1.5,1.5C37.2,24.8,36.5,25.5,35.7,25.5z"/>
</svg>
