<?xml version="1.0" encoding="utf-8"?>
<!-- Generator: Adobe Illustrator 19.2.1, SVG Export Plug-In . SVG Version: 6.00 Build 0)  -->
<!DOCTYPE svg PUBLIC "-//W3C//DTD SVG 1.1//EN" "http://www.w3.org/Graphics/SVG/1.1/DTD/svg11.dtd">
<svg version="1.1" id="Layer_1" xmlns="http://www.w3.org/2000/svg" xmlns:xlink="http://www.w3.org/1999/xlink" x="0px" y="0px"
	 viewBox="0 0 48 48" style="enable-background:new 0 0 48 48;" xml:space="preserve">
<path d="M24,0.5C10.8,0.6,0.3,11.2,0.4,24.2C0.5,37.1,11,47.7,24,47.7h0.2c6.3-0.1,12.2-2.5,16.6-7s6.9-10.4,6.8-16.7
	C47.5,11,37,0.5,24,0.5z M38.5,38.4c-3.8,3.9-9,6-14.4,6.1H24c-11.2,0-20.4-9.1-20.4-20.3c-0.1-11.3,9-20.5,20.3-20.6
	c11.3,0,20.5,9.1,20.6,20.3C44.5,29.4,42.4,34.6,38.5,38.4z M35.7,22.5h-8l5.7-5.7c0.6-0.6,0.6-1.6,0-2.2c-0.6-0.6-1.6-0.6-2.2,0
	l-5.7,5.7v-8c0-0.8-0.7-1.5-1.5-1.5c-0.8,0-1.5,0.7-1.5,1.5v8l-5.7-5.7c-0.6-0.6-1.6-0.6-2.2,0c-0.6,0.6-0.6,1.6,0,2.2l5.7,5.7h-8
	c-0.8,0-1.5,0.7-1.5,1.5s0.7,1.5,1.5,1.5h8l-5.7,5.7c-0.6,0.6-0.6,1.6,0,2.2c0.3,0.3,0.7,0.4,1.1,0.4c0.4,0,0.8-0.2,1.1-0.4l5.6-5.7
	v8c0,0.8,0.7,1.5,1.5,1.5s1.5-0.7,1.5-1.5v-8l5.7,5.7c0.3,0.3,0.7,0.4,1.1,0.4c0.4,0,0.8-0.2,1.1-0.4c0.6-0.6,0.6-1.6,0-2.2
	l-5.7-5.7h8c0.8,0,1.5-0.7,1.5-1.5C37.2,23.2,36.5,22.5,35.7,22.5z"/>
</svg>
