<?xml version="1.0" encoding="utf-8"?>
<!-- Generator: Adobe Illustrator 19.2.1, SVG Export Plug-In . SVG Version: 6.00 Build 0)  -->
<!DOCTYPE svg PUBLIC "-//W3C//DTD SVG 1.1//EN" "http://www.w3.org/Graphics/SVG/1.1/DTD/svg11.dtd">
<svg version="1.1" id="Layer_1" xmlns="http://www.w3.org/2000/svg" xmlns:xlink="http://www.w3.org/1999/xlink" x="0px" y="0px"
	 viewBox="0 0 48 48" style="enable-background:new 0 0 48 48;" xml:space="preserve">
<path d="M24,0C10.7,0,0,10.8,0,24s10.7,24,24,24s24-10.7,24-24S37.2,0,24,0z M28.6,34c0.8,0.8,0.8,2.2,0,3l-0.5,0.5c-0.8,0.8-2.2,0.8-3,0L12,24.3l13.2-13.1c0.8-0.8,2.2-0.8,3,0l0.4,0.4c0.8,0.8,0.8,2.2,0,3l-9.8,9.7L28.6,34z"/>
</svg>
