<?xml version="1.0" encoding="UTF-8" standalone="no"?><!DOCTYPE svg PUBLIC "-//W3C//DTD SVG 1.1//EN" "http://www.w3.org/Graphics/SVG/1.1/DTD/svg11.dtd"><svg width="100%" height="100%" viewBox="0 0 200 200" version="1.1" xmlns="http://www.w3.org/2000/svg" xmlns:xlink="http://www.w3.org/1999/xlink" xml:space="preserve" xmlns:serif="http://www.serif.com/" style="fill-rule:evenodd;clip-rule:evenodd;stroke-linejoin:round;stroke-miterlimit:2;"><path d="M45.446,182.326c-5.308,-3.536 -10.349,-7.645 -15.029,-12.326c-0.417,-0.417 -0.417,-0.417 -1.25,-1.25c-37.084,-38.333 -37.084,-101.25 2.083,-139.583c38.75,-37.5 101.25,-37.084 139.583,2.083c37.5,38.75 37.5,100.417 -0.833,138.75c-0.417,0.417 -0.417,0.417 -0.833,0.833c-33.128,32.764 -85.022,36.902 -123.163,11.861l-0.558,0l0,-0.368Zm48.781,2.059l0,-30.172l-35.294,0l0,20.212c7.869,4.373 16.532,7.383 26.067,8.908c3.119,0.498 6.195,0.848 9.227,1.052Zm48.781,-11.174l-0,-18.998l-35.294,0l-0,30.096c12.553,-1.023 24.303,-4.752 35.294,-11.098Zm-97.562,-8.244l0,-10.754l-10.549,0c3.309,3.945 6.821,7.535 10.549,10.754Zm120.753,-10.754l-9.704,0l-0,9.591c1.318,-1.087 2.626,-2.216 3.922,-3.387l0.833,-0.834c1.749,-1.749 3.398,-3.539 4.949,-5.37Zm-140.629,-13.487l19.876,0l0,-35.294l-30.317,0c0.826,12.161 4.269,24.221 10.441,35.294Zm33.363,-35.294l0,35.294l35.294,0l0,-35.294l-35.294,0Zm48.781,0l-0,35.294l35.294,0l-0,-35.294l-35.294,0Zm77.45,0l-28.669,0l-0,35.294l18.986,0c3.456,-6.317 6.043,-13.07 7.852,-20.309c1.01,-4.906 1.621,-9.912 1.831,-14.985Zm0.083,-4.018c0,0 0,0 0,0Zm-169.965,-9.468l30.164,-0l0,-35.294l-18.944,-0c-6.326,10.903 -10.106,22.978 -11.22,35.294Zm43.651,-35.294l0,35.294l35.294,-0l0,-35.294l-35.294,-0Zm48.781,-0l-0,35.294l35.294,-0l-0,-35.294l-35.294,-0Zm66.137,-0l-17.356,-0l-0,35.294l28.299,-0c-0.496,-5.208 -1.4,-10.452 -2.711,-15.696c-1.978,-6.923 -4.707,-13.47 -8.232,-19.598Zm-128.405,-22.517c-1.143,0.951 -2.263,1.932 -3.363,2.948c-2.08,1.947 -4.044,3.977 -5.89,6.082l9.253,-0l0,-9.03Zm48.781,-19.415c-12.224,0.813 -24.291,4.225 -35.294,10.243l0,18.202l35.294,-0l0,-28.445Zm13.487,0.154l-0,28.291l35.294,-0l-0,-17.203c-10.982,-6.292 -23.049,-9.991 -35.294,-11.088Zm48.781,20.641l-0,7.65l7.689,-0c-1.582,-1.8 -3.253,-3.55 -5.017,-5.248c-0.879,-0.824 -1.771,-1.625 -2.672,-2.402Z" style="fill-rule:nonzero;"/><rect x="106.422" y="105.432" width="36.585" height="36.585" style="fill:#dc3c3c;"/></svg>