<?xml version="1.0" encoding="UTF-8" standalone="no"?><!DOCTYPE svg PUBLIC "-//W3C//DTD SVG 1.1//EN" "http://www.w3.org/Graphics/SVG/1.1/DTD/svg11.dtd"><svg width="100%" height="100%" viewBox="0 0 200 200" version="1.1" xmlns="http://www.w3.org/2000/svg" xmlns:xlink="http://www.w3.org/1999/xlink" xml:space="preserve" xmlns:serif="http://www.serif.com/" style="fill-rule:evenodd;clip-rule:evenodd;stroke-linejoin:round;stroke-miterlimit:2;"><path d="M151.667,85.417c-2.5,-0 -5,-0 -7.5,0.416c6.666,-30 16.25,-54.583 16.25,-54.583c-0,0 -22.5,-12.5 -62.084,-12.5c-40,0 -62.5,12.917 -62.5,12.917c0,-0 7.084,17.5 12.917,40.833l-30,0.833l-3.75,30c-8.333,7.917 -12.917,18.75 -12.917,30.834c0,24.166 19.167,43.333 42.5,43.333c22.5,0 40.834,-17.5 42.5,-39.583c6.25,0.416 12.084,0.833 17.5,0.833l1.667,0c3.333,22.083 22.5,38.75 45,38.75c25.417,0 45.417,-20.833 45.417,-45.833c-0,-25 -19.584,-46.25 -45,-46.25Zm-106.667,80c-17.083,-0 -30.833,-13.75 -30.833,-30.834c-0,-17.083 13.75,-30.833 30.833,-30.833c17.083,0 30.833,13.75 30.833,30.833c0,17.084 -13.75,30.834 -30.833,30.834Zm16.25,-77.5c-4.167,-19.167 -7.917,-32.5 -12.917,-47.5c0,-0 9.167,-5.417 25.834,-8.334c3.75,20.417 5.833,36.667 6.25,56.667c-7.084,-0.417 -13.334,-0.417 -19.167,-0.833Zm26.667,0.833c-0,-20.417 -2.5,-37.083 -6.25,-57.917c5,-0.416 10,-0.833 15.833,-0.833c7.5,0 18.75,0.833 24.583,1.667c-1.666,18.75 -4.166,35 -4.166,55.416c-9.167,0.834 -20,1.667 -30,1.667Zm63.75,76.667c-18.75,-0 -33.75,-15.417 -33.75,-34.167c-0,-18.75 15,-34.167 33.75,-34.167c18.75,0 33.75,15.417 33.75,34.167c-0,18.75 -15,34.167 -33.75,34.167Zm-106.667,-39.584c-4.583,0 -8.75,3.75 -8.75,8.75c0,4.584 3.75,8.75 8.75,8.75c4.583,0 8.75,-3.75 8.75,-8.75c0,-5 -3.75,-8.75 -8.75,-8.75Zm106.667,-2.916c-5,-0 -8.75,4.166 -8.75,8.75c-0,5 3.75,8.75 8.75,8.75c5,-0 8.75,-4.167 8.75,-8.75c-0,-5.417 -3.75,-8.75 -8.75,-8.75Z" style="fill-rule:nonzero;"/></svg>