<?xml version="1.0" encoding="utf-8"?>
<!-- Generator: Adobe Illustrator 22.0.1, SVG Export Plug-In . SVG Version: 6.00 Build 0)  -->
<!DOCTYPE svg PUBLIC "-//W3C//DTD SVG 1.1//EN" "http://www.w3.org/Graphics/SVG/1.1/DTD/svg11.dtd">
<svg version="1.1" id="Layer_1" xmlns="http://www.w3.org/2000/svg" xmlns:xlink="http://www.w3.org/1999/xlink" x="0px" y="0px"
	 viewBox="0 0 48 48" style="enable-background:new 0 0 48 48;" xml:space="preserve">
	<path d="M19.1,25.9l3.4,3.4l-4.7,1.3L19.1,25.9z M43,10.1c-1.3-1.8-2.9-3.4-4.6-4.8L20.5,23.1l4.8,4.8L43,10.1z M44.6,12.6L26.3,30.9c-0.1,0.2-0.3,0.5-0.7,0.5L16.1,34h-0.6c-0.4-0.1-0.7-0.3-0.9-0.6c-0.2-0.3-0.3-0.8-0.2-1.2l2.7-9.6l0.1-0.1 c0,0,0-0.1,0.1-0.1c0.1-0.1,0.1-0.2,0.2-0.3L35.9,3.7c-3.5-2.1-7.6-3.3-12-3.3C10.8,0.5,0.3,11.1,0.4,24.1C0.5,37,11,47.6,24,47.6 h0.2c6.3-0.1,12.2-2.5,16.6-7c4.4-4.5,6.9-10.4,6.8-16.7C47.5,19.8,46.4,15.9,44.6,12.6"/>
</svg>
