<?xml version="1.0" encoding="utf-8"?>
<!-- Generator: Adobe Illustrator 22.0.1, SVG Export Plug-In . SVG Version: 6.00 Build 0)  -->
<!DOCTYPE svg PUBLIC "-//W3C//DTD SVG 1.1//EN" "http://www.w3.org/Graphics/SVG/1.1/DTD/svg11.dtd">
<svg version="1.1" id="Layer_1" xmlns="http://www.w3.org/2000/svg" xmlns:xlink="http://www.w3.org/1999/xlink" x="0px" y="0px"
	 viewBox="0 0 48 48" style="enable-background:new 0 0 48 48;" xml:space="preserve">
<path d="M24.2,0.3C11.1,0.1,0.4,10.8,0.2,23.6c0,0.2,0,0.3,0,0.4c0,13,10.6,23.6,23.4,23.7c0.1,0,0.2,0,0.3,0 c13,0,23.5-10.5,23.7-23.4C47.7,11.2,37.2,0.5,24.2,0.3z M32.7,14.2c2,0,3.6,1.6,3.6,3.6c0,2-1.6,3.6-3.6,3.6c-2,0-3.6-1.6-3.6-3.6 C29.1,15.9,30.7,14.2,32.7,14.2z M15.2,14.2c2,0,3.6,1.6,3.6,3.6c0,2-1.6,3.6-3.6,3.6c-2,0-3.6-1.6-3.6-3.6 C11.6,15.9,13.2,14.2,15.2,14.2z M36.6,31.1c-2.8,4.1-7.4,6.9-12.6,6.9s-9.9-2.7-12.6-6.9c-0.3-0.5-0.4-1.1-0.1-1.6 c0.3-0.5,0.7-0.8,1.2-0.8v0c0.5,0,1,0.2,1.5,0.7c2.2,3.3,5.9,5.5,10.1,5.5s7.8-2.2,10.1-5.5c0.5-0.7,1.5-0.9,2.2-0.4 S37,30.4,36.6,31.1z"/>
</svg>
