<?xml version="1.0" encoding="utf-8"?>
<!-- Generator: Adobe Illustrator 19.2.1, SVG Export Plug-In . SVG Version: 6.00 Build 0)  -->
<!DOCTYPE svg PUBLIC "-//W3C//DTD SVG 1.1//EN" "http://www.w3.org/Graphics/SVG/1.1/DTD/svg11.dtd">
<svg version="1.1" id="Layer_1" xmlns="http://www.w3.org/2000/svg" xmlns:xlink="http://www.w3.org/1999/xlink" x="0px" y="0px"
	 viewBox="0 0 48 48" enable-background="new 0 0 48 48" xml:space="preserve">
<path d="M30.4,37.8H17.8v-2.8h2c1.2,0,1.7-0.5,1.7-1.7v-11c0-1.2-0.5-1.7-1.7-1.7h-2v-2.8h8.8v15.6c0,1.3,0.5,1.7,1.7,1.7h2.1 L30.4,37.8L30.4,37.8z M23.5,8.7c1.7,0,3.1,1.4,3.1,3.1c0,1.7-1.4,3.1-3.1,3.1s-3.1-1.4-3.1-3.1C20.4,10,21.8,8.7,23.5,8.7z M24,0 C10.7,0,0,10.8,0,24s10.7,24,24,24s24-10.7,24-24S37.2,0,24,0z"/>
</svg>
