<svg xmlns="http://www.w3.org/2000/svg" viewBox="0 0 120 120">
  <title>Artboard 6</title>
  <path d="M60,1.05A59,59,0,1,1,1.05,60,58.95,58.95,0,0,1,60,1.05ZM82,65c3.65-3.28,3.73-6.79.06-10-2.46-2.17-4.88-4.37-7.32-6.56C69,43.3,63.33,38.14,57.56,33.05a7.31,7.31,0,0,0-5.11-1.95c-2.15.07-4.29,0-6.44,0A4.48,4.48,0,0,0,41.37,35c-.65,2.78-.14,5.6-.34,8.39-.11,1.49.6,1.83,1.92,1.8,3-.07,6,0,9.06,0,3.39,0,3.41,0,3.44-3.31,0-.93.07-1.79,1-2.19a2,2,0,0,1,2.17.68q9.78,8.76,19.55,17.54C80,59.48,80,60.34,78.25,62Q68.65,70.63,59,79.29c-.74.66-1.42,1.57-2.59,1.09s-1-1.63-1-2.61c0-8.12,0-16.23,0-24.35,0-1.42-.41-1.83-1.81-1.79-3.62.09-7.24.09-10.86,0-1.43,0-1.87.51-1.85,1.88.06,5,0,9.93,0,14.89h0c0,4.9-.09,9.8,0,14.69.08,3.4,2.17,6.12,5.71,5.74a21.76,21.76,0,0,1,4.42,0c3.36.31,5.91-1.17,8.27-3.34C66.93,78.66,74.44,71.8,82,65Z"/>
</svg>
