<?xml version="1.0" encoding="UTF-8" standalone="no"?>
<!DOCTYPE svg PUBLIC "-//W3C//DTD SVG 1.1//EN" "http://www.w3.org/Graphics/SVG/1.1/DTD/svg11.dtd">
<svg width="100%" height="100%" viewBox="0 0 48 48" version="1.1" xmlns="http://www.w3.org/2000/svg" xmlns:xlink="http://www.w3.org/1999/xlink" xml:space="preserve" xmlns:serif="http://www.serif.com/" style="fill-rule:evenodd;clip-rule:evenodd;stroke-linejoin:round;stroke-miterlimit:2;">
    <g>
        <path d="M25.132,47.768C24.822,47.785 24.511,47.795 24.2,47.8L24,47.8C23.654,47.8 23.31,47.792 22.969,47.778L22.967,32.871L25.132,32.871L25.132,47.768ZM23.154,17.722L9.981,17.722C8.789,17.722 7.815,18.696 7.815,19.887C7.815,21.078 8.789,22.052 9.981,22.052L18.639,22.052L18.639,47.184C8.203,44.746 0.372,35.357 0.2,24.2C0.1,11.1 10.8,0.4 24,0.3C37,0.3 47.6,10.9 47.8,23.9C47.8,30.2 45.3,36.1 40.9,40.7C37.749,43.995 33.777,46.161 29.462,47.161L29.46,22.05L38.119,22.05C39.31,22.05 40.284,21.076 40.284,19.885C40.282,18.696 39.308,17.722 38.117,17.722L24.944,17.722C26.301,17.334 27.295,16.083 27.295,14.6C27.295,12.809 25.842,11.354 24.049,11.354C22.255,11.354 20.802,12.809 20.802,14.6C20.802,16.083 21.796,17.334 23.154,17.722Z" style="fill-rule:nonzero;"/>
    </g>
</svg>
