<?xml version="1.0" encoding="utf-8"?>
<!-- Generator: Adobe Illustrator 19.2.1, SVG Export Plug-In . SVG Version: 6.00 Build 0)  -->
<!DOCTYPE svg PUBLIC "-//W3C//DTD SVG 1.1//EN" "http://www.w3.org/Graphics/SVG/1.1/DTD/svg11.dtd">
<svg version="1.1" id="Layer_1" xmlns="http://www.w3.org/2000/svg" xmlns:xlink="http://www.w3.org/1999/xlink" x="0px" y="0px"
	 viewBox="0 0 48 48" style="enable-background:new 0 0 48 48;" xml:space="preserve">
<style type="text/css">
	.st0{fill:#010202;}
</style>
<g id="XMLID_5_">
	<g>
		<path d="M24.3,0.4c13,0.2,23.4,10.8,23.4,23.8C47.6,37,37,47.6,24,47.6c-0.1,0-0.2,0-0.3,0C10.8,47.5,0.4,37,0.4,24
			c0-0.1,0-0.2,0-0.4C0.5,10.8,11.2,0.2,24.3,0.4z M42.6,32.5c2.5-5.7,2.5-11.4,0-17.1c-3.2,2.9-6.3,5.7-9.4,8.5
			C36.3,26.9,39.4,29.7,42.6,32.5z M41.1,35.3c-3.4-3.1-6.8-6.1-10.1-9.2c0,0-0.1,0.1-0.1,0.1c-1.9,1.7-3.8,3.4-5.7,5.2
			c-0.7,0.6-1.5,0.6-2.2,0c-1.5-1.3-3-2.7-4.5-4c-0.5-0.4-0.9-0.8-1.4-1.2c-3.4,3.1-6.8,6.1-10.2,9.2c4.4,6.1,10.2,9.3,17.8,9.1
			C31.6,44.2,37,40.9,41.1,35.3z M24,28.2c5.7-5.2,11.4-10.3,17-15.5C32.8,0.4,15,0.6,7,12.8C12.6,17.9,18.3,23.1,24,28.2z M14.8,24
			c-3.1-2.9-6.2-5.7-9.4-8.5c-2.5,5.3-2.5,12,0,17C8.6,29.7,11.7,26.8,14.8,24z"/>
	</g>
</g>
</svg>
