<?xml version="1.0" encoding="UTF-8" standalone="no"?><!DOCTYPE svg PUBLIC "-//W3C//DTD SVG 1.1//EN" "http://www.w3.org/Graphics/SVG/1.1/DTD/svg11.dtd"><svg width="100%" height="100%" viewBox="0 0 200 200" version="1.1" xmlns="http://www.w3.org/2000/svg" xmlns:xlink="http://www.w3.org/1999/xlink" xml:space="preserve" xmlns:serif="http://www.serif.com/" style="fill-rule:evenodd;clip-rule:evenodd;stroke-linejoin:round;stroke-miterlimit:2;"><path d="M122.928,13.834c-10.632,13.905 -8.682,33.336 3.913,44.941l-31.389,40.871c-1.089,1.424 -0.837,3.312 0.588,4.407c0.715,0.547 1.541,0.754 2.326,0.65c0.784,-0.105 1.533,-0.523 2.074,-1.237l31.234,-40.851c6.806,4.212 14.692,5.724 22.241,4.717c8.493,-1.133 16.546,-5.569 22.293,-12.898c11.178,-14.62 8.346,-35.854 -6.274,-47.028c-14.774,-11.158 -35.854,-8.346 -47.008,6.427l0.002,0.001Z" style="fill:#dc3c3c;fill-rule:nonzero;"/><path d="M185.256,50.234c19.701,33.593 18.521,77.029 -6.633,109.927c-0.357,0.468 -0.357,0.468 -0.715,0.936c-32.625,42.185 -94.576,50.449 -137.642,17.522c-0.468,-0.358 -0.468,-0.358 -1.404,-1.074c-41.827,-33.093 -50.147,-95.457 -16.393,-138.633c24.536,-31.023 64.436,-43.515 100.997,-34.65c-1.873,1.672 -3.609,3.548 -5.178,5.626l0.003,0c-1.437,1.879 -2.678,3.844 -3.726,5.872c-29.352,-4.952 -60.284,5.411 -80.311,29.566c-28.192,34.448 -25.601,85.385 7.525,116.276c15.365,14.345 33.263,22.466 54.354,23.015c29.104,0.741 52.837,-10.412 71.724,-32.688l0.716,-0.936c9.663,-12.639 14.977,-26.379 16.71,-41.743c1.018,-14.428 -1.379,-29.241 -7.079,-43.614c-0.508,-1.166 -1.039,-2.318 -1.591,-3.455c1.501,-1.412 2.914,-2.956 4.226,-4.629c1.769,-2.314 3.239,-4.768 4.417,-7.318Z" style="fill-rule:nonzero;"/></svg>