<?xml version="1.0" encoding="UTF-8" standalone="no"?>
<!DOCTYPE svg PUBLIC "-//W3C//DTD SVG 1.1//EN" "http://www.w3.org/Graphics/SVG/1.1/DTD/svg11.dtd">
<svg width="100%" height="100%" viewBox="0 0 48 48" version="1.1" xmlns="http://www.w3.org/2000/svg" xmlns:xlink="http://www.w3.org/1999/xlink" xml:space="preserve" xmlns:serif="http://www.serif.com/" style="fill-rule:evenodd;clip-rule:evenodd;stroke-linejoin:round;stroke-miterlimit:2;">
    <g id="Layer1">
        <path d="M24,0.3C10.8,0.4 0.1,11.1 0.2,24.2C0.4,37.2 11,47.8 24,47.8L24.2,47.8C30.5,47.7 36.5,45.3 40.9,40.7C45.3,36.1 47.8,30.2 47.8,23.9C47.6,10.9 37,0.3 24,0.3ZM38.6,38.5C34.7,42.4 29.6,44.6 24.1,44.6L24,44.6C12.8,44.6 3.5,35.4 3.5,24.2C3.4,12.8 12.5,3.6 23.9,3.5C35.3,3.5 44.5,12.7 44.6,23.9C44.6,29.4 42.5,34.6 38.6,38.5Z" style="fill-rule:nonzero;"/>
        <path d="M22.934,17.722C21.629,17.278 20.689,16.041 20.689,14.587C20.689,12.759 22.172,11.276 24,11.276C25.827,11.276 27.311,12.759 27.311,14.587C27.311,16.041 26.37,17.278 25.065,17.722L38.117,17.722C39.308,17.722 40.282,18.696 40.284,19.885C40.284,21.076 39.31,22.05 38.119,22.05L29.46,22.05L29.462,44.776C29.462,45.967 28.488,46.941 27.297,46.941C26.106,46.941 25.132,45.967 25.132,44.776L25.132,32.871L22.967,32.871L22.969,44.778C22.969,45.969 21.995,46.943 20.804,46.943C19.613,46.943 18.639,45.969 18.639,44.778L18.639,22.052L9.981,22.052C8.789,22.052 7.815,21.078 7.815,19.887C7.815,18.696 8.789,17.722 9.981,17.722L22.934,17.722Z" style="fill-rule:nonzero;"/>
    </g>
</svg>
