<?xml version="1.0" encoding="utf-8"?>
<!-- Generator: Adobe Illustrator 22.0.1, SVG Export Plug-In . SVG Version: 6.00 Build 0)  -->
<!DOCTYPE svg PUBLIC "-//W3C//DTD SVG 1.1//EN" "http://www.w3.org/Graphics/SVG/1.1/DTD/svg11.dtd">
<svg version="1.1" id="Layer_1" xmlns="http://www.w3.org/2000/svg" xmlns:xlink="http://www.w3.org/1999/xlink" x="0px" y="0px"
	 viewBox="0 0 48 48" style="enable-background:new 0 0 48 48;" xml:space="preserve">
<path d="M40.8,7.1C36.3,2.6,30.3,0.2,24,0.2c-6.4,0-12.5,2.5-17,7S0.1,17.7,0.1,24.1c0,6.4,2.6,12.4,7.1,16.9 c4.5,4.4,10.4,6.9,16.8,6.9s12.4-2.5,17-7.1c4.5-4.5,6.9-10.5,6.9-16.9C47.9,17.5,45.3,11.6,40.8,7.1z M30.2,36.1 c0.6,0.6,0.6,1.6,0,2.3c-0.3,0.3-0.7,0.5-1.1,0.5c-0.4,0-0.8-0.2-1.1-0.5L14.7,25.1c-0.3-0.3-0.5-0.7-0.5-1.1s0.2-0.8,0.5-1.1 L27.9,9.6c0.6-0.6,1.6-0.6,2.3,0c0.6,0.6,0.6,1.6,0,2.3L18.1,24L30.2,36.1z"/>
</svg>
