<?xml version="1.0" encoding="utf-8"?>
<!-- Generator: Adobe Illustrator 22.0.1, SVG Export Plug-In . SVG Version: 6.00 Build 0)  -->
<!DOCTYPE svg PUBLIC "-//W3C//DTD SVG 1.1//EN" "http://www.w3.org/Graphics/SVG/1.1/DTD/svg11.dtd">
<svg version="1.1" id="Layer_1" xmlns="http://www.w3.org/2000/svg" xmlns:xlink="http://www.w3.org/1999/xlink" x="0px" y="0px"
	 viewBox="0 0 48 48" style="enable-background:new 0 0 48 48;" xml:space="preserve">
<path d="M41.1,7.1C36.5,2.6,30.5,0,24,0C17.7,0,11.6,2.5,7.2,6.9C2.6,11.4,0.1,17.4,0,23.8c0,6.5,2.5,12.5,7,17
	c4.5,4.6,10.5,7.1,17.1,7.1c6.4,0,12.4-2.5,16.8-6.9C50.3,31.8,50.4,16.6,41.1,7.1z M25.8,37.2c0,0.9-0.7,1.6-1.6,1.6
	c-0.9,0-1.6-0.7-1.6-1.6V35c0-0.9,0.7-1.6,1.6-1.6c0.9,0,1.6,0.7,1.6,1.6V37.2z M28.4,23.4l-0.1,0.1c-1.8,1.5-2.4,2.2-2.4,5.8
	c0,0.9-0.7,1.6-1.6,1.6c-0.9,0-1.6-0.7-1.6-1.6c0-4.4,1.1-6,3.6-8.2l0.1-0.1c2.2-1.9,3-2.6,3-4.3c0-1.8-1.8-3.7-4.7-3.7
	c-2.7,0-3.8,1.3-4.8,2.4l-0.1,0.1l-0.3,0.3c-0.3,0.3-0.7,0.5-1.1,0.6c-0.4,0-0.8-0.1-1.1-0.4c-0.3-0.3-0.5-0.7-0.6-1.1
	c0-0.4,0.1-0.8,0.4-1.1l0.3-0.3c1.1-1.2,3.1-3.5,7.2-3.5c2.2,0,4.2,0.8,5.7,2.2c1.4,1.3,2.2,3,2.2,4.6
	C32.4,20.1,30.4,21.8,28.4,23.4z"/>
</svg>
