<?xml version="1.0" encoding="utf-8"?>
<!-- Generator: Adobe Illustrator 22.0.1, SVG Export Plug-In . SVG Version: 6.00 Build 0)  -->
<!DOCTYPE svg PUBLIC "-//W3C//DTD SVG 1.1//EN" "http://www.w3.org/Graphics/SVG/1.1/DTD/svg11.dtd">
<svg version="1.1" id="Layer_1" xmlns="http://www.w3.org/2000/svg" xmlns:xlink="http://www.w3.org/1999/xlink" x="0px" y="0px"
	 viewBox="0 0 48 48" style="enable-background:new 0 0 48 48;" xml:space="preserve">
<path d="M25.8,35v2.3c0,0.9-0.7,1.6-1.6,1.6s-1.6-0.7-1.6-1.6V35c0-0.9,0.7-1.6,1.6-1.6S25.8,34.1,25.8,35z M24.5,9.9 c-4,0-6.1,2.3-7.2,3.5L17,13.7c-0.3,0.3-0.5,0.7-0.4,1.1c0,0.4,0.2,0.8,0.6,1.1c0.3,0.3,0.7,0.4,1.1,0.4c0.4,0,0.8-0.2,1.1-0.6 l0.3-0.3l0.1-0.1c0.9-1.1,2.1-2.4,4.8-2.4c2.9,0,4.7,1.9,4.7,3.7c0,1.7-0.8,2.4-3,4.3l-0.1,0.1c-2.5,2.2-3.6,3.8-3.6,8.2 c0,0.9,0.7,1.6,1.6,1.6s1.6-0.7,1.6-1.6c0-3.6,0.6-4.3,2.4-5.8l0.1-0.1c2-1.6,4-3.2,4-6.7c0-1.7-0.8-3.3-2.2-4.6 C28.8,10.7,26.7,9.9,24.5,9.9z M47.9,23.9c0,6.4-2.4,12.4-6.9,16.9c-4.6,4.6-10.6,7.1-17,7.1S11.7,45.4,7.2,41 c-4.5-4.5-7.1-10.5-7.1-16.9c0-6.4,2.4-12.4,6.9-16.9s10.6-7,17-7c6.3,0,12.3,2.4,16.8,6.9S47.9,17.5,47.9,23.9z M44.6,23.9 c0-5.5-2.2-10.6-6.1-14.5c-3.9-3.9-9-6-14.5-6c-5.6,0-10.8,2.1-14.7,6.1c-3.8,3.9-5.9,9.1-5.9,14.6s2.2,10.7,6.1,14.5 c3.9,3.9,9,6,14.5,6c5.6,0,10.8-2.1,14.7-6.1C42.5,34.6,44.6,29.4,44.6,23.9z"/>
</svg>
