<?xml version="1.0" encoding="utf-8"?>
<!-- Generator: Adobe Illustrator 22.0.1, SVG Export Plug-In . SVG Version: 6.00 Build 0)  -->
<!DOCTYPE svg PUBLIC "-//W3C//DTD SVG 1.1//EN" "http://www.w3.org/Graphics/SVG/1.1/DTD/svg11.dtd">
<svg version="1.1" id="Layer_1" xmlns="http://www.w3.org/2000/svg" xmlns:xlink="http://www.w3.org/1999/xlink" x="0px" y="0px"
	 viewBox="0 0 48 48" style="enable-background:new 0 0 48 48;" xml:space="preserve">
<path d="M24.2,0.3c13,0.2,23.5,10.9,23.4,24c-0.2,12.9-10.7,23.4-23.7,23.4c-0.1,0-0.2,0-0.3,0C10.8,47.6,0.2,37,0.2,24 c0-0.1,0-0.2,0-0.4C0.4,10.8,11.1,0.1,24.2,0.3z M12.4,38c0.5,0,1-0.2,1.5-0.7c2.2-3.3,5.9-5.5,10.1-5.5c4.2,0,7.8,2.2,10.1,5.5 c0.5,0.7,1.5,0.9,2.2,0.4c0.7-0.5,0.9-1.5,0.4-2.1c-2.8-4.1-7.4-6.9-12.6-6.9c-5.2,0-9.9,2.7-12.6,6.9c-0.3,0.5-0.4,1.1-0.1,1.6 C11.5,37.7,11.9,37.9,12.4,38L12.4,38z M32.7,14.2c-2,0-3.6,1.6-3.6,3.6s1.6,3.6,3.6,3.6s3.6-1.6,3.6-3.6S34.7,14.2,32.7,14.2z M15.2,14.2c-2,0-3.6,1.6-3.6,3.6s1.6,3.6,3.6,3.6s3.6-1.6,3.6-3.6S17.2,14.2,15.2,14.2z"/>
</svg>
