<?xml version="1.0" encoding="UTF-8" standalone="no"?><!DOCTYPE svg PUBLIC "-//W3C//DTD SVG 1.1//EN" "http://www.w3.org/Graphics/SVG/1.1/DTD/svg11.dtd"><svg width="100%" height="100%" viewBox="0 0 200 200" version="1.1" xmlns="http://www.w3.org/2000/svg" xmlns:xlink="http://www.w3.org/1999/xlink" xml:space="preserve" xmlns:serif="http://www.serif.com/" style="fill-rule:evenodd;clip-rule:evenodd;stroke-linejoin:round;stroke-miterlimit:2;"><g><path d="M129.167,80.833c-0,-28.333 -22.917,-51.25 -51.25,-51.25c-28.334,0 -51.25,22.917 -51.25,51.25c-0,28.334 22.916,51.25 51.25,51.25c12.5,0 23.75,-4.583 32.5,-11.666l38.75,38.75l6.666,-7.084l-38.75,-38.75c7.917,-8.75 12.084,-20.416 12.084,-32.5Zm-50.834,41.667c-23.333,0 -41.666,-18.75 -41.666,-41.667c-0,-22.916 18.75,-41.666 41.666,-41.666c23.334,-0 41.667,18.75 41.667,41.666c0,22.917 -18.75,41.667 -41.667,41.667Z" style="fill-rule:nonzero;"/></g></svg>