<?xml version="1.0" encoding="utf-8"?>
<!-- Generator: Adobe Illustrator 19.2.1, SVG Export Plug-In . SVG Version: 6.00 Build 0)  -->
<!DOCTYPE svg PUBLIC "-//W3C//DTD SVG 1.1//EN" "http://www.w3.org/Graphics/SVG/1.1/DTD/svg11.dtd">
<svg version="1.1" id="Layer_1" xmlns="http://www.w3.org/2000/svg" xmlns:xlink="http://www.w3.org/1999/xlink" x="0px" y="0px"
	 viewBox="0 0 48 48" style="enable-background:new 0 0 48 48;" xml:space="preserve">
<g>
	<path d="M18.8,9.3c-5.6,0-10,4.5-10,10s4.5,10,10,10c5.6,0,10-4.5,10-10S24.3,9.3,18.8,9.3z"/>
	<path d="M24.1,1.9c-12.3,0-22.2,9.9-22.2,22.2s9.9,22.2,22.2,22.2c12.3,0,22.2-9.9,22.2-22.2S36.3,1.9,24.1,1.9z M35.9,38.2l-9.3-9.3c-2.1,1.7-4.8,2.8-7.8,2.8c-6.8,0-12.3-5.6-12.3-12.3S11.9,7.1,18.7,7.1S31,12.6,31,19.4c0,2.9-1,5.7-2.8,7.8l9.3,9.3L35.9,38.2z"/>
</g>
</svg>
