<svg xmlns="http://www.w3.org/2000/svg" viewBox="0 0 120 120">
  <title>Artboard 5</title>
  <path d="M60,1.05A59,59,0,1,1,1.05,60,58.95,58.95,0,0,1,60,1.05Zm28.7,75.7a1.8,1.8,0,0,0,.89-.83c-1.14-.37-2.26-.65-3.33-1.08a17.76,17.76,0,0,1-7.38-5.91,19.2,19.2,0,0,1-2.88-5,3.24,3.24,0,0,1,1.41-4.13,7.05,7.05,0,0,1,1.25-.65c.75-.29,1.52-.53,2.27-.81A5.09,5.09,0,0,0,83.1,57,.66.66,0,0,0,83,55.92a2.23,2.23,0,0,0-2.37-.4,14.85,14.85,0,0,1-2.26.72,3.37,3.37,0,0,1-2.7-.5.8.8,0,0,1-.41-.81c.07-.68.11-1.37.13-2,.07-2.31.19-4.61.16-6.91a13.13,13.13,0,0,0-5.77-10.84,15.39,15.39,0,0,0-8.27-2.87A18.21,18.21,0,0,0,53,33.56a14.37,14.37,0,0,0-8,8.51,13.6,13.6,0,0,0-.62,5c0,2.49.2,5,.3,7.47,0,1-.11,1.21-1,1.54a4.08,4.08,0,0,1-.9.22,6.85,6.85,0,0,1-3.67-.73,1.8,1.8,0,0,0-1.52,0c-.42.18-.86.38-.91.88a1,1,0,0,0,.67,1c.71.39,1.46.72,2.21,1,1,.45,2.07.77,3,1.31a3,3,0,0,1,1.63,3.28,5.72,5.72,0,0,1-.44,1.46,21,21,0,0,1-2.89,4.75A17.73,17.73,0,0,1,33.34,75c-.93.35-1.92.58-2.93.88a2.45,2.45,0,0,0,.38.47,8.62,8.62,0,0,0,1.17.7,19.19,19.19,0,0,0,5.22,1.34,1.77,1.77,0,0,1,1.64,1.46c.17.69.32,1.39.49,2.08s.18.59.77.5c1-.16,2-.36,3-.46A10.61,10.61,0,0,1,50.7,83.8c.92.67,1.86,1.33,2.83,1.94a11.3,11.3,0,0,0,12.91,0c.89-.55,1.76-1.15,2.6-1.78,2.61-2,5.57-2.34,8.7-1.94.77.09,1.54.22,2.31.36.42.07.59-.08.68-.5.17-.81.39-1.62.62-2.41a1.43,1.43,0,0,1,1.29-1.06c.89-.14,1.77-.3,2.65-.5A12.47,12.47,0,0,0,88.7,76.75Z"/>
</svg>
