<svg xmlns="http://www.w3.org/2000/svg" viewBox="0 0 120 120">
  <title>Artboard 2</title>
  <path d="M60,1a59,59,0,1,0,59,59A59,59,0,0,0,60,1Zm24.47,46.5q0,.81,0,1.62c0,16.32-12.32,35.09-34.89,35.65H47.83a35.93,35.93,0,0,1-18.61-5.61h0a25.8,25.8,0,0,0,3,.17A25.47,25.47,0,0,0,47.91,74a12.63,12.63,0,0,1-11.8-8.71,12.73,12.73,0,0,0,5.7-.21A12.57,12.57,0,0,1,31.68,52.8c0-.05,0-.11,0-.16a12.65,12.65,0,0,0,5.72,1.57A12.49,12.49,0,0,1,33.5,37.47a36,36,0,0,0,26,13.1,12.54,12.54,0,0,1,12.3-15.39,12.66,12.66,0,0,1,9.22,4,25.42,25.42,0,0,0,8-3A12.59,12.59,0,0,1,83.52,43a25.4,25.4,0,0,0,7.25-2A25.57,25.57,0,0,1,84.47,47.55Z"/>
</svg>
