<?xml version="1.0" encoding="utf-8"?>
<!-- Generator: Adobe Illustrator 22.0.1, SVG Export Plug-In . SVG Version: 6.00 Build 0)  -->
<!DOCTYPE svg PUBLIC "-//W3C//DTD SVG 1.1//EN" "http://www.w3.org/Graphics/SVG/1.1/DTD/svg11.dtd">
<svg version="1.1" id="Layer_1" xmlns="http://www.w3.org/2000/svg" xmlns:xlink="http://www.w3.org/1999/xlink" x="0px" y="0px"
	 viewBox="0 0 48 48" style="enable-background:new 0 0 48 48;" xml:space="preserve">
<path d="M5.1,38.1C1.9,34,0.2,29,0.3,23.8c0.1-13,10.8-23.6,23.8-23.6C37.4,0.3,48,11,47.9,24.1c0,5.2-1.8,10.1-4.7,14 c-0.5-2.4-1.4-4.7-2.8-6.8c-1.6-2.3-3.7-4.2-6.3-5.6c1.2-1.7,1.7-4,1.7-6.2c0-6.4-5.2-11.7-11.7-11.7c-6.5,0-11.7,5.5-11.7,11.9 c0,2.3,0.6,4.3,1.7,6.2c-2.4,1.3-4.7,3.1-6.3,5.6C6.5,33.5,5.4,35.6,5.1,38.1z M16,19.8c0,4.4,3.6,8.1,8.1,8.1 c4.5,0,8.1-3.8,8.1-8.3c0-4.4-3.7-8.1-8.1-8.1C19.7,11.5,16,15.4,16,19.8z M39.8,41.7v-0.3c0-2.9-0.8-5.7-2.4-8 c-1.5-2.1-3.4-3.7-5.7-4.8c-2,1.7-4.7,2.8-7.6,2.8c-2.9,0-5.6-1-7.6-2.8c-2.2,1-4.2,2.7-5.7,4.8c-1.6,2.4-2.4,5.1-2.4,8v0.3v0.1 c4.3,3.8,9.7,5.9,15.5,6h0.2C30.1,47.7,35.7,45.4,39.8,41.7L39.8,41.7z"/>
</svg>
