<?xml version="1.0" encoding="utf-8"?>
<!-- Generator: Adobe Illustrator 19.2.1, SVG Export Plug-In . SVG Version: 6.00 Build 0)  -->
<!DOCTYPE svg PUBLIC "-//W3C//DTD SVG 1.1//EN" "http://www.w3.org/Graphics/SVG/1.1/DTD/svg11.dtd">
<svg version="1.1" id="Layer_1" xmlns="http://www.w3.org/2000/svg" xmlns:xlink="http://www.w3.org/1999/xlink" x="0px" y="0px"
	 viewBox="0 0 48 48" style="enable-background:new 0 0 48 48;" xml:space="preserve">
<path d="M24.1,0.2c-13,0-23.7,10.6-23.8,23.6c-0.1,6.3,2.4,12.3,6.9,16.8c4.4,4.5,10.4,7,16.7,7.1h0.2 c13,0,23.7-10.6,23.8-23.6C48,11,37.4,0.3,24.1,0.2z M24,44.5c-5-0.1-9.7-1.8-13.4-5.1v-0.1V39c0-2.5,0.7-4.8,2.1-6.9 c1.3-1.8,3-3.2,4.9-4.1c1.7,1.5,4,2.4,6.5,2.4s4.8-0.9,6.5-2.4c2,0.9,3.6,2.3,4.9,4.1c1.4,2,2.1,4.4,2.1,6.9v0.3 C34,42.4,29.2,44.4,24,44.5L24,44.5L24,44.5z M24.1,27.5c-3.9,0-7-3.2-7-7s3.2-7.1,7-7.1s7,3.2,7,7S28,27.5,24.1,27.5z M40.5,36.3 c-0.4-2.1-1.2-4.1-2.4-5.9c-1.4-2-3.2-3.6-5.4-4.8c1-1.5,1.5-3.4,1.5-5.3c0-5.5-4.5-10.1-10.1-10.1S14,14.9,14,20.4 c0,2,0.5,3.7,1.5,5.3c-2.1,1.1-4,2.7-5.4,4.8c-1.2,1.8-2.1,3.7-2.4,5.9c-2.7-3.6-4.2-8-4.2-12.6C3.6,12.5,12.9,3.3,24.3,3.3 C35.6,3.4,44.8,12.7,44.7,24C44.7,28.6,43.1,32.8,40.5,36.3z"/>
</svg>
