<?xml version="1.0" encoding="utf-8"?>
<!-- Generator: Adobe Illustrator 19.2.1, SVG Export Plug-In . SVG Version: 6.00 Build 0)  -->
<!DOCTYPE svg PUBLIC "-//W3C//DTD SVG 1.1//EN" "http://www.w3.org/Graphics/SVG/1.1/DTD/svg11.dtd">
<svg version="1.1" id="Layer_1" xmlns="http://www.w3.org/2000/svg" xmlns:xlink="http://www.w3.org/1999/xlink" x="0px" y="0px"
	 viewBox="0 0 48 48" style="enable-background:new 0 0 48 48;" xml:space="preserve">
<title>icon</title>
<path d="M24.1,0.1C10.7,0.2,0,11,0.2,24.2c0.1,13.1,10.8,23.8,23.9,23.8h0.2c6.4-0.1,12.4-2.6,16.9-7.1s7-10.6,6.9-17C47.9,10.8,37.2,0.1,24.1,0.1z M30.5,43.7c-2,0.6-4.1,1-6.3,1h-0.1c-0.9,0-1.6-0.1-2.5-0.2V41h2.1c0.8,0,1.4-0.6,1.4-1.4c0-0.8-0.6-1.4-1.4-1.4h-2.1v-2.4h2.1c0.8,0,1.4-0.6,1.4-1.4c0-0.8-0.6-1.4-1.4-1.4h-2.1v-2.4h2.1c0.8,0,1.4-0.6,1.4-1.4s-0.6-1.4-1.4-1.4h-2.1v-2.4h2.1c0.8,0,1.4-0.6,1.4-1.4c0-0.8-0.6-1.4-1.4-1.4h-2.1V20h2.1c0.8,0,1.4-0.6,1.4-1.4c0-0.8-0.6-1.4-1.4-1.4h-2.1v-1.9h8.9V43.7z M32.1,11.2c-0.6,0-1.2,0.4-1.4,1H20c-0.9,0-1.5,0.7-1.5,1.5v3.5h-2.3c-0.8,0-1.4,0.6-1.4,1.4s0.6,1.4,1.4,1.4h2.3v2.3h-2.2c-0.8,0-1.4,0.6-1.4,1.4s0.6,1.4,1.4,1.4h2.2v2.4h-2.3c-0.8,0-1.4,0.6-1.4,1.4c0,0.8,0.6,1.4,1.4,1.4h2.3v2.4h-2.3c-0.8,0-1.4,0.6-1.4,1.4c0,0.8,0.6,1.4,1.4,1.4h2.3v2.4h-2.2c-0.8,0-1.4,0.6-1.4,1.4c0,0.8,0.6,1.4,1.4,1.4h2.2V44c-8.7-2.5-15-10.4-15.1-19.9C3.3,12.7,12.5,3.4,24,3.3c7.1,0,13.3,3.5,17.1,8.9h-7.5C33.3,11.6,32.7,11.2,32.1,11.2z M38.8,38.6c-1.5,1.5-3.3,2.9-5.2,3.8V15.3h9.2c1.2,2.6,1.9,5.5,2,8.6C44.8,29.4,42.7,34.6,38.8,38.6z"/>
</svg>
