<svg version="1.1" xmlns="http://www.w3.org/2000/svg" xmlns:xlink="http://www.w3.org/1999/xlink" x="0px" y="0px" viewBox="0 0 48 48">
  <path class="fg" d="M40.3,7.8c-9-9-23.5-9-32.5,0s-9,23.5,0,32.5s23.5,9,32.5,0S49.2,16.8,40.3,7.8z M23.2,36.1 c-1.6,1.6-3.7,2.6-6,2.5c-2.2-0.1-4.1-0.9-5.6-2.5c-3-3.2-2.8-8.2,0.3-11.3l4.9-4.9c0.1-0.1,0.2-0.2,0.3-0.2c0.4-0.4,1-0.8,1.6-1.1 c1.5-0.8,3.2-1.1,4.9-0.9c0.4,0,0.8,0.1,1.2,0.2c0.4,0.1,0.8,0.2,1.1,0.4c0.8,0.4,1.5,0.9,2.2,1.5c0.8,0.8,0.7,2.2-0.1,3l-1,1 c-0.1,0.2-0.3,0.3-0.5,0.4c-0.2-0.7-0.6-1.4-1.1-1.9c-0.6-0.6-1.4-1-2.2-1.2c-0.3-0.1-0.6-0.1-0.9-0.1h-0.2 c-0.4,0.1-0.7,0.1-1.1,0.2c-0.7,0.2-1.4,0.6-1.9,1.1l-4.9,4.9c-0.7,0.7-1.3,1.7-1.4,2.8c-0.1,1.2,0.3,2.5,1.2,3.4 c0.9,0.9,2.1,1.4,3.4,1.2c1.1-0.1,2-0.6,2.8-1.4l0.9-0.9c0.5-0.5,1.2-0.6,1.8-0.4c0.4,0.1,0.8,0.2,1.2,0.2c0.4,0.1,0.7,0.1,1.1,0.1 c0.4,0,0.8-0.1,1.2-0.1L23.2,36.1z M36.1,23.3l-4.9,4.9c-0.1,0.1-0.2,0.2-0.3,0.2c-0.4,0.4-1,0.9-1.6,1.2c-1.2,0.6-2.5,0.9-3.8,0.9 c-0.4,0-0.7,0-1.1-0.1c-0.4,0-0.8-0.1-1.2-0.2c-0.4-0.1-0.8-0.2-1.1-0.4c-0.8-0.4-1.5-0.9-2.2-1.5c-0.8-0.8-0.8-2.2,0.1-3l1-1 c0.2-0.2,0.4-0.3,0.6-0.4c0.2,0.7,0.6,1.4,1.1,1.9c0.6,0.6,1.4,1,2.2,1.2c0.3,0.1,0.6,0.1,0.9,0.1h0.1c0.4-0.1,0.7-0.1,1.1-0.2 c0.7-0.2,1.4-0.6,1.9-1.1l4.9-4.9c1.6-1.6,1.9-4.2,0.4-5.9c-0.9-1.1-2.2-1.7-3.7-1.5c-1.1,0.1-2.1,0.6-2.8,1.4l-1,1 c-0.4,0.4-0.9,0.5-1.4,0.3c-0.4-0.1-0.8-0.2-1.2-0.2c-0.9-0.1-1.8-0.1-2.7,0.1l3.7-3.7c1.6-1.6,3.7-2.6,6-2.5 c2.2,0.1,4.1,0.9,5.6,2.5C39.5,15,39.3,20.1,36.1,23.3z"></path>
</svg>