<svg version="1.1" xmlns="http://www.w3.org/2000/svg" xmlns:xlink="http://www.w3.org/1999/xlink" x="0px" y="0px" viewBox="0 0 48 48">
  <path class="fg" d="M26.5,18.4c0-1.6-1.3-2.4-2.8-2.4H21v5.1h2.7C25.4,21.1,26.5,20.1,26.5,18.4z"></path>
  <path class="fg" d="M24.7,25.7H21v5.7h4c1.9,0,3.2-1.1,3.2-3C28.3,26.8,27.1,25.7,24.7,25.7z"></path>
  <path class="fg" d="M40.3,7.8c-9-9-23.5-9-32.5,0s-9,23.5,0,32.5s23.5,9,32.5,0S49.2,16.8,40.3,7.8z M25.7,35.9h-7.1 c-1.6,0-2.7-1-2.7-2.6V14c0-1.6,1.1-2.6,2.7-2.6h6.6c3.6,0,6.5,2.4,6.5,6c0,2.4-1,4-3.2,5v0.1c2.9,0.4,5.2,2.8,5.2,5.8 C33.7,33.3,30.4,35.9,25.7,35.9z"></path>
</svg>