<?xml version="1.0" encoding="UTF-8" standalone="no"?>
<!DOCTYPE svg PUBLIC "-//W3C//DTD SVG 1.1//EN" "http://www.w3.org/Graphics/SVG/1.1/DTD/svg11.dtd">
<svg width="100%" height="100%" viewBox="0 0 48 48" version="1.1" xmlns="http://www.w3.org/2000/svg" xmlns:xlink="http://www.w3.org/1999/xlink" xml:space="preserve" xmlns:serif="http://www.serif.com/" style="fill-rule:evenodd;clip-rule:evenodd;stroke-linejoin:round;stroke-miterlimit:2;">
    <g id="XMLID_14_">
        <path d="M47.6,24L47.6,24.3C47.6,36.6 37.6,47.7 24.3,47.9C11.2,48.1 0.6,37.4 0.4,24.6C0.2,11.4 10.8,0.8 23.9,0.7L24.1,0.7C37,0.7 47.4,11.2 47.6,24ZM16.914,32.827L27.386,32.827C27.586,32.827 27.686,32.827 27.786,32.627C28.486,31.027 30.186,30.027 31.886,30.127C33.786,30.227 35.486,31.827 35.686,33.827L35.686,34.327C35.686,36.427 34.186,38.127 32.186,38.527C30.286,38.827 28.486,37.827 27.686,36.127C27.586,35.927 27.486,35.927 27.386,35.927L15.462,35.927C14.562,35.927 14.062,35.427 13.862,34.627C13.831,34.488 13.821,34.348 13.831,34.212C13.821,34.174 13.814,34.141 13.814,34.114L13.814,19.027C12.908,18.617 12.157,17.889 11.714,16.947C11.614,16.747 11.514,16.747 11.414,16.747L4.985,16.747C4.05,19.075 3.524,21.621 3.5,24.3C3.5,35.4 12.5,44.7 23.8,44.7C35.3,44.7 44.4,35.6 44.4,24.3C44.4,13.2 35.4,3.9 23.9,3.9C16.622,3.9 10.16,7.769 6.546,13.647L11.414,13.647C11.614,13.647 11.714,13.647 11.814,13.447C12.514,11.847 14.214,10.847 15.914,10.947C17.814,11.047 19.514,12.647 19.714,14.647L19.714,15.147C19.714,16.993 18.554,18.531 16.914,19.147L16.914,22.992L27.386,22.992C27.586,22.992 27.686,22.992 27.786,22.792C28.486,21.192 30.186,20.192 31.886,20.292C33.786,20.392 35.486,21.992 35.686,23.992L35.686,24.492C35.686,26.592 34.186,28.292 32.186,28.692C30.286,28.992 28.486,27.992 27.686,26.292C27.586,26.092 27.486,26.092 27.386,26.092L16.914,26.092L16.914,32.827ZM31.486,35.727C32.186,35.727 32.886,35.027 32.886,34.227C32.886,33.427 32.286,32.827 31.486,32.827C30.686,32.827 30.086,33.427 30.086,34.227C30.086,35.127 30.686,35.727 31.486,35.727ZM31.486,25.892C32.186,25.892 32.886,25.192 32.886,24.392C32.886,23.592 32.286,22.992 31.486,22.992C30.686,22.992 30.086,23.592 30.086,24.392C30.086,25.292 30.686,25.892 31.486,25.892ZM15.514,16.547C16.214,16.547 16.914,15.847 16.914,15.047C16.914,14.247 16.314,13.647 15.514,13.647C14.714,13.647 14.114,14.247 14.114,15.047C14.114,15.947 14.714,16.547 15.514,16.547Z" style="fill-rule:nonzero;"/>
    </g>
</svg>
