<svg version="1.1" xmlns="http://www.w3.org/2000/svg" xmlns:xlink="http://www.w3.org/1999/xlink" x="0px" y="0px" viewBox="0 0 48 48">
  <path class="fg" d="M40.3,7.8c-9-9-23.5-9-32.5,0s-9,23.5,0,32.5s23.5,9,32.5,0S49.2,16.8,40.3,7.8z M26.8,24.1c2.8,2.8,5.7,5.7,8.5,8.5 c0.7,0.7,0.8,1.8,0.1,2.5c-0.7,0.8-1.8,0.8-2.6,0.1c-0.1-0.1-0.1-0.1-0.2-0.2c-2.8-2.8-5.5-5.5-8.4-8.4c-0.1-0.1-0.1-0.1-0.2-0.2 c-0.1,0.1-0.1,0.1-0.2,0.2c-2.8,2.8-5.7,5.7-8.5,8.5c-0.8,0.8-2,0.8-2.7-0.1c-0.6-0.7-0.5-1.7,0.1-2.4c0.5-0.5,1-1,1.5-1.5 c2.4-2.4,4.8-4.8,7.1-7.1c0-0.1,0.1-0.1,0.2-0.1c-0.1-0.1-0.1-0.2-0.2-0.2c-2.8-2.8-5.7-5.7-8.5-8.5c-0.7-0.7-0.8-1.8-0.1-2.5 c0.7-0.8,1.8-0.8,2.6-0.1c0.1,0.1,0.1,0.1,0.2,0.2c2.8,2.8,5.5,5.5,8.4,8.4c0.1,0.1,0.1,0.1,0.2,0.3c0.1-0.1,0.1-0.2,0.2-0.2 c2.8-2.8,5.7-5.7,8.5-8.5c0.7-0.9,2-0.8,2.7,0c0.6,0.7,0.5,1.7-0.1,2.4c-0.2,0.2-0.6,0.6-0.8,0.8c-2.6,2.6-5.2,5.2-7.8,7.8 c-0.1,0-0.1,0.1-0.2,0.1C26.7,24,26.8,24.1,26.8,24.1z"></path>
</svg>