<?xml version="1.0" encoding="UTF-8" standalone="no"?>
<!DOCTYPE svg PUBLIC "-//W3C//DTD SVG 1.1//EN" "http://www.w3.org/Graphics/SVG/1.1/DTD/svg11.dtd">
<svg width="100%" height="100%" viewBox="0 0 100 100" version="1.1" xmlns="http://www.w3.org/2000/svg" xmlns:xlink="http://www.w3.org/1999/xlink" xml:space="preserve" xmlns:serif="http://www.serif.com/" style="fill-rule:evenodd;clip-rule:evenodd;stroke-linejoin:round;stroke-miterlimit:2;">
    <g>
        <path d="M90.055,18.158C90.055,11.767 84.867,6.578 78.476,6.578C78.476,6.578 23.01,6.578 23.01,6.578C16.619,6.578 11.431,11.767 11.431,18.158L11.431,79.437C11.431,85.828 16.619,91.016 23.01,91.016L78.476,91.016C84.867,91.016 90.055,85.828 90.055,79.437C90.055,79.437 90.055,18.158 90.055,18.158ZM86.055,55.633L15.431,55.633L15.431,79.437C15.431,83.62 18.827,87.016 23.01,87.016C23.01,87.016 78.476,87.016 78.476,87.016C82.659,87.016 86.055,83.62 86.055,79.437L86.055,55.633ZM79.241,62.847L79.241,66.376C77.52,64.935 75.738,64.215 73.897,64.215C71.869,64.215 70.16,64.944 68.77,66.401C67.372,67.85 66.674,69.623 66.674,71.72C66.674,73.791 67.372,75.538 68.77,76.962C70.168,78.385 71.881,79.097 73.91,79.097C74.958,79.097 75.849,78.926 76.582,78.586C76.991,78.415 77.415,78.185 77.854,77.895C78.293,77.605 78.756,77.256 79.241,76.847L79.241,80.439C77.537,81.403 75.747,81.884 73.872,81.884C71.05,81.884 68.642,80.9 66.648,78.931C64.662,76.945 63.669,74.55 63.669,71.745C63.669,69.231 64.5,66.989 66.162,65.02C68.208,62.608 70.854,61.402 74.102,61.402C75.875,61.402 77.588,61.884 79.241,62.847ZM40.272,71.566C40.272,68.788 41.29,66.401 43.328,64.407C45.356,62.412 47.794,61.415 50.641,61.415C53.454,61.415 55.866,62.421 57.877,64.432C59.897,66.444 60.907,68.86 60.907,71.681C60.907,74.52 59.893,76.928 57.864,78.905C55.827,80.891 53.368,81.884 50.487,81.884C47.939,81.884 45.65,81.002 43.622,79.238C41.388,77.286 40.272,74.729 40.272,71.566ZM22.245,81.526L22.245,61.786L26.387,61.786C28.373,61.786 29.941,61.982 31.092,62.374C32.328,62.757 33.449,63.409 34.455,64.33C36.492,66.188 37.51,68.63 37.51,71.656C37.51,74.69 36.449,77.145 34.327,79.02C33.261,79.958 32.145,80.61 30.977,80.976C29.886,81.343 28.339,81.526 26.336,81.526L22.245,81.526ZM43.276,71.605C43.276,73.787 44.009,75.581 45.476,76.987C46.933,78.394 48.616,79.097 50.526,79.097C52.597,79.097 54.344,78.381 55.768,76.949C57.191,75.5 57.903,73.736 57.903,71.656C57.903,69.551 57.2,67.786 55.793,66.363C54.395,64.931 52.665,64.215 50.602,64.215C48.548,64.215 46.814,64.931 45.399,66.363C43.984,67.778 43.276,69.525 43.276,71.605ZM25.224,78.726L26.566,78.726C27.904,78.726 29.017,78.586 29.903,78.304C30.789,78.006 31.591,77.533 32.307,76.885C33.773,75.547 34.506,73.804 34.506,71.656C34.506,69.491 33.781,67.735 32.332,66.388C31.028,65.187 29.106,64.586 26.566,64.586L25.224,64.586L25.224,78.726ZM64.034,46.848L21.675,46.848L21.675,50L64.034,50L64.034,46.848ZM78.454,40.8L21.493,40.8L21.493,43.953L78.454,43.953L78.454,40.8ZM74.225,34.753L21.463,34.753L21.463,37.906L74.225,37.906L74.225,34.753ZM71.304,28.706L21.362,28.706L21.362,31.859L71.304,31.859L71.304,28.706ZM76.964,22.659L21.39,22.659L21.39,25.811L76.964,25.811L76.964,22.659ZM57.224,14.131L21.362,14.131L21.362,19.342L57.224,19.342L57.224,14.131Z"/>
    </g>
</svg>
