<?xml version="1.0" encoding="UTF-8" standalone="no"?>
<!DOCTYPE svg PUBLIC "-//W3C//DTD SVG 1.1//EN" "http://www.w3.org/Graphics/SVG/1.1/DTD/svg11.dtd">
<svg width="100%" height="100%" viewBox="0 0 100 100" version="1.1" xmlns="http://www.w3.org/2000/svg" xmlns:xlink="http://www.w3.org/1999/xlink" xml:space="preserve" xmlns:serif="http://www.serif.com/" style="fill-rule:evenodd;clip-rule:evenodd;stroke-linejoin:round;stroke-miterlimit:2;">
    <g transform="matrix(-1.15407,-1.41332e-16,1.41332e-16,-1.15407,107.819,107.565)">
        <path d="M53.282,92.392C74.867,90.702 92.082,72.497 92.289,50.328C92.397,26.827 73.638,7.59 50.325,7.48C26.904,7.48 7.928,26.499 7.82,49.781C7.711,61.149 12.049,71.861 19.856,79.84C27.069,87.111 36.297,91.467 46.28,92.353L46.28,41.207L30.527,56.96C29.215,58.273 27.027,58.273 25.714,56.96C24.401,55.647 24.401,53.459 25.714,52.147L47.374,30.486C48.468,29.173 50.875,29.173 52.188,30.486L74.286,52.147C75.599,53.459 75.599,55.647 74.286,56.96C73.63,57.617 72.536,57.835 71.66,57.835C70.566,57.835 69.691,57.617 69.035,56.96L53.282,41.207L53.282,92.392Z"/>
    </g>
</svg>
