<?xml version="1.0" encoding="utf-8"?>
<!-- Generator: Adobe Illustrator 22.0.1, SVG Export Plug-In . SVG Version: 6.00 Build 0)  -->
<!DOCTYPE svg PUBLIC "-//W3C//DTD SVG 1.1//EN" "http://www.w3.org/Graphics/SVG/1.1/DTD/svg11.dtd">
<svg version="1.1" id="Layer_1" xmlns="http://www.w3.org/2000/svg" xmlns:xlink="http://www.w3.org/1999/xlink" x="0px" y="0px"
	 viewBox="0 0 48 48" style="enable-background:new 0 0 48 48;" xml:space="preserve">
<path d="M23.9,0.2C10.7,0.3,0.1,11,0.2,24.1C0.3,37,10.9,47.6,23.9,47.6h0.2c6.3-0.1,12.3-2.5,16.7-7.1c4.4-4.6,6.9-10.5,6.8-16.8
	C47.5,10.8,36.9,0.2,23.9,0.2z M23.8,3.4c11.4,0,20.5,9.2,20.6,20.4c0,4.8-1.6,9.3-4.5,12.9h-5.4V10.4c0-0.8-0.7-1.5-1.5-1.5H15.2
	c-0.8,0-1.5,0.7-1.5,1.5v26.3H8C5.2,33.2,3.4,28.8,3.4,24C3.4,12.7,12.5,3.5,23.8,3.4z M25.2,11.9V33l-8.5,3.1V11.9H25.2z M24,44.4
	L24,44.4c-5,0-9.5-1.8-13-4.7h4.3c0.3,0,0.6-0.1,0.9-0.3l0,0.1l10.5-3.9c1-0.3,1.6-1.2,1.6-2.2V11.9h3.2v26.3c0,0.8,0.7,1.5,1.5,1.5
	h4C33.3,42.7,28.8,44.4,24,44.4z M22.2,21.6c0-1,0.5-1.8,1.1-1.8s1.1,0.8,1.1,1.8s-0.5,1.8-1.1,1.8S22.2,22.6,22.2,21.6z"/>
</svg>
