<?xml version="1.0" encoding="UTF-8" standalone="no"?>
<!DOCTYPE svg PUBLIC "-//W3C//DTD SVG 1.1//EN" "http://www.w3.org/Graphics/SVG/1.1/DTD/svg11.dtd">
<svg width="100%" height="100%" viewBox="0 0 100 100" version="1.1" xmlns="http://www.w3.org/2000/svg" xmlns:xlink="http://www.w3.org/1999/xlink" xml:space="preserve" xmlns:serif="http://www.serif.com/" style="fill-rule:evenodd;clip-rule:evenodd;stroke-linejoin:round;stroke-miterlimit:2;">
    <g>
        <path d="M90.055,18.158C90.055,11.767 84.867,6.578 78.476,6.578C78.476,6.578 23.01,6.578 23.01,6.578C16.619,6.578 11.431,11.767 11.431,18.158L11.431,79.437C11.431,85.828 16.619,91.016 23.01,91.016L78.476,91.016C84.867,91.016 90.055,85.828 90.055,79.437C90.055,79.437 90.055,18.158 90.055,18.158ZM86.055,55.633L15.431,55.633L15.431,79.437C15.431,83.62 18.827,87.016 23.01,87.016C23.01,87.016 78.476,87.016 78.476,87.016C82.659,87.016 86.055,83.62 86.055,79.437L86.055,55.633Z"/>
    </g>
</svg>
