<?xml version="1.0" encoding="UTF-8" standalone="no"?>
<!DOCTYPE svg PUBLIC "-//W3C//DTD SVG 1.1//EN" "http://www.w3.org/Graphics/SVG/1.1/DTD/svg11.dtd">
<svg width="100%" height="100%" viewBox="0 0 48 48" version="1.1" xmlns="http://www.w3.org/2000/svg" xmlns:xlink="http://www.w3.org/1999/xlink" xml:space="preserve" xmlns:serif="http://www.serif.com/" style="fill-rule:evenodd;clip-rule:evenodd;stroke-linejoin:round;stroke-miterlimit:2;">
    <path d="M47.6,24L47.6,24.3C47.6,36.6 37.6,47.7 24.3,47.9C11.2,48.1 0.6,37.4 0.4,24.6C0.2,11.4 10.8,0.8 23.9,0.7L24.1,0.7C37,0.7 47.4,11.2 47.6,24ZM44.4,24.3C44.4,13.2 35.4,3.9 23.9,3.9C12.8,3.9 3.6,12.9 3.5,24.3C3.5,35.4 12.5,44.7 23.8,44.7C35.3,44.7 44.4,35.6 44.4,24.3Z" style="fill-rule:nonzero;"/>
    <path d="M37.129,31.059L27.627,15.282L27.627,9.192L29.748,9.192L29.748,7.285L18.984,7.285L18.984,9.223L20.922,9.223L20.922,15.282L10.895,31.059C9.911,32.412 9.88,33.551 9.88,33.673C9.88,35.18 11.079,36.41 12.555,36.41L35.438,36.41C36.914,36.41 38.113,35.18 38.113,33.673C38.144,33.55 38.113,32.412 37.129,31.059L37.129,31.059ZM26.826,32.781C26.089,32.781 25.504,32.197 25.504,31.458C25.504,30.72 26.087,30.135 26.826,30.135C27.564,30.135 28.149,30.719 28.149,31.458C28.149,32.197 27.565,32.781 26.826,32.781ZM21.49,30.052C19.911,30.052 18.614,28.755 18.614,27.176C18.614,25.597 19.911,24.3 21.49,24.3C23.069,24.3 24.366,25.597 24.366,27.176C24.366,28.755 23.069,30.052 21.49,30.052ZM28.487,22.323L30.333,22.323L26.334,15.68L26.334,9.19L22.612,9.19L22.612,15.709L22.558,15.796C23.381,15.61 24.366,16.082 24.366,17.21C24.366,18.179 23.639,18.664 22.912,18.664C22.258,18.664 21.605,18.271 21.48,17.487L18.399,22.322L24.176,22.322C24.149,22.173 24.134,22.014 24.134,21.845C24.134,18.915 28.53,18.915 28.53,21.845C28.53,22.014 28.515,22.174 28.487,22.323ZM25.847,13.46C25.847,14.092 25.373,14.408 24.899,14.408C24.836,14.408 24.774,14.403 24.713,14.392C24.308,14.32 23.95,14.009 23.95,13.46C23.95,12.195 25.847,12.195 25.847,13.46Z"/>
</svg>
