<?xml version="1.0" encoding="UTF-8" standalone="no"?>
<!DOCTYPE svg PUBLIC "-//W3C//DTD SVG 1.1//EN" "http://www.w3.org/Graphics/SVG/1.1/DTD/svg11.dtd">
<svg width="100%" height="100%" viewBox="0 0 48 48" version="1.1" xmlns="http://www.w3.org/2000/svg" xmlns:xlink="http://www.w3.org/1999/xlink" xml:space="preserve" xmlns:serif="http://www.serif.com/" style="fill-rule:evenodd;clip-rule:evenodd;stroke-linejoin:round;stroke-miterlimit:2;">
    <path d="M40.3,7.8C31.3,-1.2 16.8,-1.2 7.8,7.8C-1.2,16.8 -1.2,31.3 7.8,40.3C16.8,49.3 31.3,49.3 40.3,40.3C49.3,31.3 49.2,16.8 40.3,7.8ZM23.072,37.228C21.899,37.228 20.952,36.861 20.231,36.128C19.51,35.395 19.15,34.295 19.15,32.829C19.15,32.218 19.248,31.424 19.443,30.446L21.49,20.498C22.148,17.183 27.094,17.922 26.467,21.079L24.575,31.143C24.477,31.509 24.428,31.9 24.428,32.316C24.428,32.805 24.545,33.153 24.777,33.361C25.009,33.568 25.394,33.672 25.931,33.672C26.371,33.672 26.762,33.599 27.104,33.452C27.007,34.674 26.573,35.609 25.803,36.256C25.033,36.904 24.123,37.228 23.072,37.228ZM25.565,16.7C24.758,16.7 24.074,16.419 23.512,15.857C22.95,15.295 22.669,14.611 22.669,13.805C22.669,12.998 22.95,12.308 23.512,11.734C24.074,11.159 24.758,10.872 25.565,10.872C26.371,10.872 27.062,11.159 27.636,11.734C28.21,12.308 28.497,12.998 28.497,13.805C28.497,14.611 28.21,15.295 27.636,15.857C27.062,16.419 26.371,16.7 25.565,16.7Z" style="fill-rule:nonzero;"/>
</svg>
