<?xml version="1.0" encoding="UTF-8" standalone="no"?>
<!DOCTYPE svg PUBLIC "-//W3C//DTD SVG 1.1//EN" "http://www.w3.org/Graphics/SVG/1.1/DTD/svg11.dtd">
<svg width="100%" height="100%" viewBox="0 0 48 48" version="1.1" xmlns="http://www.w3.org/2000/svg" xmlns:xlink="http://www.w3.org/1999/xlink" xml:space="preserve" xmlns:serif="http://www.serif.com/" style="fill-rule:evenodd;clip-rule:evenodd;stroke-linejoin:round;stroke-miterlimit:2;">
    <g id="XMLID_14_">
        <path d="M47.6,24L47.6,24.3C47.6,36.6 37.6,47.7 24.3,47.9C11.2,48.1 0.6,37.4 0.4,24.6C0.2,11.4 10.8,0.8 23.9,0.7L24.1,0.7C37,0.7 47.4,11.2 47.6,24ZM44.4,24.3C44.4,13.2 35.4,3.9 23.9,3.9C12.8,3.9 3.6,12.9 3.5,24.3C3.5,35.4 12.5,44.7 23.8,44.7C35.3,44.7 44.4,35.6 44.4,24.3ZM13.827,34.873L13.827,34.373C13.827,32.273 15.327,30.573 17.327,30.173C19.227,29.873 21.027,30.873 21.827,32.573C21.927,32.773 22.027,32.773 22.127,32.773L33.167,32.773C34.067,32.773 34.567,33.273 34.767,34.073C34.967,34.973 34.267,35.873 33.367,35.873L22.127,35.873C21.927,35.873 21.827,35.873 21.727,36.073C21.027,37.673 19.327,38.673 17.627,38.573C15.727,38.473 14.027,36.873 13.827,34.873ZM18.027,32.973C17.327,32.973 16.627,33.673 16.627,34.473C16.627,35.273 17.227,35.873 18.027,35.873C18.827,35.873 19.427,35.273 19.427,34.473C19.427,33.573 18.827,32.973 18.027,32.973ZM13.827,25.038L13.827,24.538C13.827,22.438 15.327,20.738 17.327,20.338C19.227,20.038 21.027,21.038 21.827,22.738C21.927,22.938 22.027,22.938 22.127,22.938L34.051,22.938C34.951,22.938 35.451,23.438 35.651,24.238C35.851,25.138 35.151,26.038 34.251,26.038L22.127,26.038C21.927,26.038 21.827,26.038 21.727,26.238C21.027,27.838 19.327,28.838 17.627,28.738C15.727,28.638 14.027,27.038 13.827,25.038ZM18.027,23.138C17.327,23.138 16.627,23.838 16.627,24.638C16.627,25.438 17.227,26.038 18.027,26.038C18.827,26.038 19.427,25.438 19.427,24.638C19.427,23.738 18.827,23.138 18.027,23.138ZM13.827,15.229L13.827,14.729C13.827,12.629 15.327,10.929 17.327,10.529C19.227,10.229 21.027,11.229 21.827,12.929C21.927,13.129 22.027,13.129 22.127,13.129L34.051,13.129C34.951,13.129 35.451,13.629 35.651,14.429C35.851,15.329 35.151,16.229 34.251,16.229L22.127,16.229C21.927,16.229 21.827,16.229 21.727,16.429C21.027,18.029 19.327,19.029 17.627,18.929C15.727,18.829 14.027,17.229 13.827,15.229ZM18.027,13.329C17.327,13.329 16.627,14.029 16.627,14.829C16.627,15.629 17.227,16.229 18.027,16.229C18.827,16.229 19.427,15.629 19.427,14.829C19.427,13.929 18.827,13.329 18.027,13.329Z" style="fill-rule:nonzero;"/>
    </g>
</svg>
