<?xml version="1.0" encoding="utf-8"?>
<!-- Generator: Adobe Illustrator 22.0.1, SVG Export Plug-In . SVG Version: 6.00 Build 0)  -->
<!DOCTYPE svg PUBLIC "-//W3C//DTD SVG 1.1//EN" "http://www.w3.org/Graphics/SVG/1.1/DTD/svg11.dtd">
<svg version="1.1" id="Layer_1" xmlns="http://www.w3.org/2000/svg" xmlns:xlink="http://www.w3.org/1999/xlink" x="0px" y="0px"
	 viewBox="0 0 48 48" style="enable-background:new 0 0 48 48;" xml:space="preserve">
<path d="M40.8,7.3c-4.5-4.5-10.4-7-16.8-7c-6.3,0-12.1,2.4-16.6,6.8c-4.5,4.4-7,10.3-7,16.7c0,6.4,2.4,12.3,6.8,16.7 c4.5,4.5,10.4,7,16.8,7c6.3,0,12.1-2.4,16.6-6.8c4.5-4.4,7-10.3,7-16.7S45.2,11.7,40.8,7.3z M33.1,25.2L20,38.3 c-0.3,0.3-0.7,0.5-1.1,0.5c-0.4,0-0.8-0.2-1.1-0.5c-0.6-0.7-0.6-1.7,0-2.3l12-12l-12-12c-0.6-0.7-0.6-1.7,0-2.3 c0.7-0.6,1.7-0.6,2.3,0l13,13.3c0.3,0.3,0.5,0.7,0.5,1.1C33.6,24.5,33.4,24.9,33.1,25.2z"/>
</svg>
