<?xml version="1.0" encoding="UTF-8" standalone="no"?>
<!DOCTYPE svg PUBLIC "-//W3C//DTD SVG 1.1//EN" "http://www.w3.org/Graphics/SVG/1.1/DTD/svg11.dtd">
<svg width="100%" height="100%" viewBox="0 0 48 48" version="1.1" xmlns="http://www.w3.org/2000/svg" xmlns:xlink="http://www.w3.org/1999/xlink" xml:space="preserve" xmlns:serif="http://www.serif.com/" style="fill-rule:evenodd;clip-rule:evenodd;stroke-linejoin:round;stroke-miterlimit:2;">
    <path d="M40.3,7.8C31.3,-1.2 16.8,-1.2 7.8,7.8C-1.2,16.8 -1.2,31.3 7.8,40.3C16.8,49.3 31.3,49.3 40.3,40.3C49.3,31.3 49.2,16.8 40.3,7.8ZM12.4,11.8L13.6,11.8C14,11.8 14.2,12.1 14.2,12.4L14.2,17.1C14.2,17.5 13.9,17.7 13.6,17.7C13.3,17.7 13,17.5 13,17.1L13,12.9L12.5,12.9C12.1,12.9 11.9,12.6 11.9,12.3C11.8,12.1 12,11.8 12.4,11.8ZM13.3,36.2C12.1,36.2 11.3,35.3 11.3,34.6C11.3,34.3 11.6,34 11.9,34C12.5,34 12.3,35 13.3,35C13.7,35 14.1,34.7 14.1,34.2C14.1,33 12.7,33.9 12.7,32.9C12.7,32 13.9,32.6 13.9,31.7C13.9,31.4 13.7,31.1 13.3,31.1C12.5,31.1 12.6,31.9 12.1,31.9C11.8,31.9 11.6,31.6 11.6,31.3C11.6,30.7 12.5,30 13.4,30C14.6,30 15.2,30.9 15.2,31.5C15.2,32 15,32.5 14.5,32.8C15.1,33.1 15.5,33.6 15.5,34.3C15.4,35.4 14.5,36.2 13.3,36.2ZM14.9,26.9L12.1,26.9C11.7,26.9 11.5,26.7 11.5,26.4C11.5,26.2 11.6,26.1 11.7,26C12.4,25.2 13.1,24.4 13.8,23.5C13.9,23.3 14.1,23 14.1,22.7C14.1,22.4 13.8,22.1 13.5,22.1C12.5,22.1 13,23.4 12.2,23.4C11.8,23.4 11.6,23.1 11.6,22.8C11.6,21.8 12.5,20.9 13.5,20.9C14.5,20.9 15.3,21.6 15.3,22.6C15.3,23.8 14,24.9 13.3,25.8L14.8,25.8C15.2,25.8 15.4,26 15.4,26.3C15.5,26.7 15.2,26.9 14.9,26.9ZM33.9,36.1L21.8,36.1C20.2,36.1 18.9,34.8 18.9,33.2C18.9,31.6 20.2,30.3 21.8,30.3L34,30.3C35.6,30.3 36.9,31.6 36.9,33.2C36.9,34.8 35.5,36.1 33.9,36.1ZM33.9,26.9L21.8,26.9C20.2,26.9 18.9,25.6 18.9,24C18.9,22.4 20.2,21.1 21.8,21.1L34,21.1C35.6,21.1 36.9,22.4 36.9,24C36.9,25.6 35.5,26.9 33.9,26.9ZM33.9,17.7L21.8,17.7C20.2,17.7 18.9,16.4 18.9,14.8C18.9,13.2 20.2,11.9 21.8,11.9L34,11.9C35.6,11.9 36.9,13.2 36.9,14.8C36.9,16.4 35.5,17.7 33.9,17.7Z" style="fill-rule:nonzero;"/>
</svg>
