<?xml version="1.0" encoding="UTF-8" standalone="no"?>
<!DOCTYPE svg PUBLIC "-//W3C//DTD SVG 1.1//EN" "http://www.w3.org/Graphics/SVG/1.1/DTD/svg11.dtd">
<svg width="100%" height="100%" viewBox="0 0 48 48" version="1.1" xmlns="http://www.w3.org/2000/svg" xmlns:xlink="http://www.w3.org/1999/xlink" xml:space="preserve" xmlns:serif="http://www.serif.com/" style="fill-rule:evenodd;clip-rule:evenodd;stroke-linejoin:round;stroke-miterlimit:2;">
    <g transform="matrix(1,0,0,1,9.63611,2.01927)">
        <path d="M19.676,20.761L15.161,16.243C14.107,14.995 14.6,12.852 16.764,12.913C17.255,12.955 17.706,13.156 18.066,13.496L25.976,21.406C26.226,21.67 26.274,21.766 26.363,21.95C26.689,22.625 26.67,23.341 26.17,24.006C26.059,24.192 25.911,24.358 25.721,24.492L17.992,32.291C16.551,33.666 13.146,31.615 15.151,29.476L19.741,24.843L5.173,24.843C3.684,24.797 3.691,24.356 3.382,23.734C2.785,22.535 3.696,20.889 5.173,20.843C10.007,20.843 14.842,20.734 19.676,20.761Z" style="fill-rule:nonzero;"/>
    </g>
</svg>
