<?xml version="1.0" encoding="UTF-8" standalone="no"?>
<!DOCTYPE svg PUBLIC "-//W3C//DTD SVG 1.1//EN" "http://www.w3.org/Graphics/SVG/1.1/DTD/svg11.dtd">
<svg width="100%" height="100%" viewBox="0 0 48 48" version="1.1" xmlns="http://www.w3.org/2000/svg" xmlns:xlink="http://www.w3.org/1999/xlink" xml:space="preserve" xmlns:serif="http://www.serif.com/" style="fill-rule:evenodd;clip-rule:evenodd;stroke-linejoin:round;stroke-miterlimit:2;">
    <path d="M40.3,7.8C31.3,-1.2 16.8,-1.2 7.8,7.8C-1.2,16.8 -1.2,31.3 7.8,40.3C16.8,49.3 31.3,49.3 40.3,40.3C49.3,31.3 49.2,16.8 40.3,7.8ZM23.793,35.765C23.793,36.736 23.006,37.523 22.035,37.523C22.035,37.523 22.035,37.523 22.035,37.523C21.569,37.523 21.121,37.338 20.792,37.008C20.462,36.678 20.277,36.231 20.277,35.765L20.277,22.372C18.444,22.237 17.035,21.649 16.051,20.607C15.067,19.565 14.575,18.185 14.575,16.468C14.575,15.455 14.773,14.526 15.169,13.682C15.564,12.838 16.097,12.17 16.768,11.678C17.438,11.186 18.227,10.844 19.134,10.651C19.674,10.535 20.73,10.477 22.303,10.477L30.611,10.477C31.112,10.477 31.592,10.676 31.946,11.03C32.3,11.384 32.499,11.864 32.499,12.365C32.499,12.365 32.499,12.366 32.499,12.366C32.499,12.867 32.3,13.347 31.946,13.701C31.592,14.055 31.112,14.254 30.611,14.254C29.921,14.254 29.306,14.254 29.306,14.254L29.306,35.809C29.306,36.756 28.539,37.523 27.593,37.523C27.592,37.523 27.591,37.523 27.591,37.523C26.644,37.523 25.877,36.756 25.877,35.809C25.877,30.432 25.877,14.254 25.877,14.254L23.793,14.254L23.793,35.765Z" style="fill-rule:nonzero;"/>
</svg>
