<?xml version="1.0" encoding="UTF-8" standalone="no"?>
<!DOCTYPE svg PUBLIC "-//W3C//DTD SVG 1.1//EN" "http://www.w3.org/Graphics/SVG/1.1/DTD/svg11.dtd">
<svg width="100%" height="100%" viewBox="0 0 120 96" version="1.1" xmlns="http://www.w3.org/2000/svg" xmlns:xlink="http://www.w3.org/1999/xlink" xml:space="preserve" xmlns:serif="http://www.serif.com/" style="fill-rule:evenodd;clip-rule:evenodd;stroke-linejoin:round;stroke-miterlimit:2;">
    <g transform="matrix(1,0,0,1,0.173793,0)">
        <path d="M115.273,9.878L115.273,84.502C115.273,85.802 114.773,87.102 113.773,88.002C112.773,88.902 111.573,89.502 110.273,89.502L10,89.502C8.7,89.502 7.4,89.002 6.5,88.002C5.5,87.102 5,85.802 5,84.502L5,9.946C5,7.146 7.2,4.946 10,4.946C10,4.946 33.273,4.99 110.273,4.99C113.675,4.99 115.273,7.241 115.273,9.878ZM110.273,9.878L9.988,9.878L9.988,83.502C9.988,84.102 10.388,84.502 10.988,84.502L109.273,84.502C109.573,84.502 109.773,84.402 109.973,84.202C110.173,84.002 110.273,83.802 110.273,83.502L110.273,9.878ZM91.766,74.433L91.766,72.833C91.766,71.933 90.966,71.133 90.066,71.133L30.582,71.133C29.682,71.133 28.882,71.933 28.882,72.833L28.882,74.433C28.882,75.333 29.682,76.133 30.582,76.133L90.066,76.133C90.966,76.133 91.766,75.333 91.766,74.433ZM91.766,65.292L91.766,63.692C91.766,62.792 90.966,61.992 90.066,61.992L30.582,61.992C29.682,61.992 28.882,62.792 28.882,63.692L28.882,65.292C28.882,66.192 29.682,66.992 30.582,66.992L90.066,66.992C90.966,66.992 91.766,66.192 91.766,65.292ZM91.766,56.365L91.766,54.765C91.766,53.865 90.966,53.065 90.066,53.065L30.582,53.065C29.682,53.065 28.882,53.865 28.882,54.765L28.882,56.365C28.882,57.265 29.682,58.065 30.582,58.065L90.066,58.065C90.966,58.065 91.766,57.265 91.766,56.365ZM91.766,47.365L91.766,45.765C91.766,44.865 90.966,44.065 90.066,44.065L30.582,44.065C29.682,44.065 28.882,44.865 28.882,45.765L28.882,47.365C28.882,48.265 29.682,49.065 30.582,49.065L90.066,49.065C90.966,49.065 91.766,48.265 91.766,47.365ZM91.766,38.365L91.766,36.765C91.766,35.865 90.966,35.065 90.066,35.065L30.582,35.065C29.682,35.065 28.882,35.865 28.882,36.765L28.882,38.365C28.882,39.265 29.682,40.065 30.582,40.065L90.066,40.065C90.966,40.065 91.766,39.265 91.766,38.365ZM85.942,27.936L35.403,27.936C34.503,27.936 33.703,27.136 33.703,26.236L33.703,22.778C33.703,21.878 34.503,21.078 35.403,21.078L85.942,21.078C86.842,21.078 87.642,21.878 87.642,22.778L87.642,26.236C87.642,27.136 86.842,27.936 85.942,27.936Z" style="fill-rule:nonzero;"/>
    </g>
</svg>
