<?xml version="1.0" encoding="UTF-8" standalone="no"?>
<!DOCTYPE svg PUBLIC "-//W3C//DTD SVG 1.1//EN" "http://www.w3.org/Graphics/SVG/1.1/DTD/svg11.dtd">
<svg width="100%" height="100%" viewBox="0 0 120 96" version="1.1" xmlns="http://www.w3.org/2000/svg" xmlns:xlink="http://www.w3.org/1999/xlink" xml:space="preserve" xmlns:serif="http://www.serif.com/" style="fill-rule:evenodd;clip-rule:evenodd;stroke-linejoin:round;stroke-miterlimit:2;">
    <g transform="matrix(1,0,0,1,0.173793,0)">
        <path d="M115.273,9.878L115.273,84.502C115.273,85.802 114.773,87.102 113.773,88.002C112.773,88.902 111.573,89.502 110.273,89.502L10,89.502C8.7,89.502 7.4,89.002 6.5,88.002C5.5,87.102 5,85.802 5,84.502L5,9.946C5,7.146 7.2,4.946 10,4.946C10,4.946 33.273,4.99 110.273,4.99C113.675,4.99 115.273,7.241 115.273,9.878ZM91.766,80.542L91.766,78.942C91.766,78.042 90.966,77.242 90.066,77.242L30.582,77.242C29.682,77.242 28.882,78.042 28.882,78.942L28.882,80.542C28.882,81.442 29.682,82.242 30.582,82.242L90.066,82.242C90.966,82.242 91.766,81.442 91.766,80.542Z" style="fill-rule:nonzero;"/>
    </g>
</svg>
