<?xml version="1.0" encoding="UTF-8" standalone="no"?>
<!DOCTYPE svg PUBLIC "-//W3C//DTD SVG 1.1//EN" "http://www.w3.org/Graphics/SVG/1.1/DTD/svg11.dtd">
<svg width="100%" height="100%" viewBox="0 0 48 48" version="1.1" xmlns="http://www.w3.org/2000/svg" xmlns:xlink="http://www.w3.org/1999/xlink" xml:space="preserve" xmlns:serif="http://www.serif.com/" style="fill-rule:evenodd;clip-rule:evenodd;stroke-linejoin:round;stroke-miterlimit:2;">
    <g>
        <path d="M24.2,0.3C37.3,0.5 47.8,11.1 47.7,24.1C47.7,37.1 37,47.7 24,47.7L23.7,47.7C10.8,47.6 0.3,37 0.3,24L0.3,23.7C0.5,10.7 11.1,0.1 24.2,0.3ZM40.083,36.686L40.083,29.743C40.083,29.61 40.032,29.482 39.938,29.388C39.845,29.294 39.716,29.243 39.583,29.243L27.083,29.243C25.427,29.243 24.083,27.899 24.083,26.243L24.083,13.743C24.083,13.61 24.032,13.482 23.938,13.388C23.845,13.294 23.716,13.243 23.583,13.243L12.583,13.243C12.306,13.243 12.083,13.466 12.083,13.743L12.083,29.128L12.144,40.749C15.482,43.111 19.548,44.5 23.9,44.5C30.473,44.5 36.315,41.441 40.083,36.686ZM42.892,31.953C43.928,29.506 44.5,26.818 44.5,24C44.5,12.7 35.3,3.5 24.1,3.5C12.8,3.4 3.5,12.7 3.5,24C3.452,29.455 5.594,34.42 9.082,38.097L9.082,13.243C9.082,11.587 10.426,10.243 12.082,10.243L26.082,10.243C26.879,10.243 27.641,10.56 28.204,11.122L42.204,25.122C42.766,25.685 43.082,26.446 43.082,27.243C43.082,27.243 42.979,29.639 42.892,31.953ZM38.481,26.243L27.583,26.243C27.306,26.243 27.083,26.021 27.083,25.743L27.083,14.845C27.083,14.744 27.145,14.654 27.239,14.615C27.337,14.576 27.442,14.599 27.513,14.673L38.654,25.814C38.728,25.885 38.751,25.99 38.712,26.088C38.673,26.182 38.583,26.244 38.482,26.244L38.481,26.243Z"/>
    </g>
</svg>
