<?xml version="1.0" encoding="UTF-8" standalone="no"?>
<!DOCTYPE svg PUBLIC "-//W3C//DTD SVG 1.1//EN" "http://www.w3.org/Graphics/SVG/1.1/DTD/svg11.dtd">
<svg width="100%" height="100%" viewBox="0 0 120 96" version="1.1" xmlns="http://www.w3.org/2000/svg" xmlns:xlink="http://www.w3.org/1999/xlink" xml:space="preserve" xmlns:serif="http://www.serif.com/" style="fill-rule:evenodd;clip-rule:evenodd;stroke-linejoin:round;stroke-miterlimit:2;">
    <g transform="matrix(1,0,0,1,0.173793,0)">
        <path d="M115.273,9.878L115.273,84.502C115.273,85.802 114.773,87.102 113.773,88.002C112.773,88.902 111.573,89.502 110.273,89.502L10,89.502C8.7,89.502 7.4,89.002 6.5,88.002C5.5,87.102 5,85.802 5,84.502L5,9.946C5,7.146 7.2,4.946 10,4.946C10,4.946 33.273,4.99 110.273,4.99C113.675,4.99 115.273,7.241 115.273,9.878ZM110.273,9.878L41.588,9.878L41.588,83.502C41.588,84.102 41.988,84.502 42.588,84.502L109.273,84.502C109.573,84.502 109.773,84.402 109.973,84.202C110.173,84.002 110.273,83.802 110.273,83.502L110.273,9.878ZM107.771,77.833L107.771,76.233C107.771,75.333 106.971,74.533 106.071,74.533L46.587,74.533C45.687,74.533 44.887,75.333 44.887,76.233L44.887,77.833C44.887,78.733 45.687,79.533 46.587,79.533L106.071,79.533C106.971,79.533 107.771,78.733 107.771,77.833ZM107.771,68.692L107.771,67.092C107.771,66.192 106.971,65.392 106.071,65.392L46.587,65.392C45.687,65.392 44.887,66.192 44.887,67.092L44.887,68.692C44.887,69.592 45.687,70.392 46.587,70.392L106.071,70.392C106.971,70.392 107.771,69.592 107.771,68.692ZM107.771,59.765L107.771,58.165C107.771,57.265 106.971,56.465 106.071,56.465L46.587,56.465C45.687,56.465 44.887,57.265 44.887,58.165L44.887,59.765C44.887,60.665 45.687,61.465 46.587,61.465L106.071,61.465C106.971,61.465 107.771,60.665 107.771,59.765ZM107.771,50.765L107.771,49.165C107.771,48.265 106.971,47.465 106.071,47.465L46.587,47.465C45.687,47.465 44.887,48.265 44.887,49.165L44.887,50.765C44.887,51.665 45.687,52.465 46.587,52.465L106.071,52.465C106.971,52.465 107.771,51.665 107.771,50.765ZM107.771,41.765L107.771,40.165C107.771,39.265 106.971,38.465 106.071,38.465L46.587,38.465C45.687,38.465 44.887,39.265 44.887,40.165L44.887,41.765C44.887,42.665 45.687,43.465 46.587,43.465L106.071,43.465C106.971,43.465 107.771,42.665 107.771,41.765ZM97.126,34.465L46.587,34.465C45.687,34.465 44.887,33.665 44.887,32.765L44.887,29.308C44.887,28.408 45.687,27.608 46.587,27.608L97.126,27.608C98.026,27.608 98.826,28.408 98.826,29.308L98.826,32.765C98.826,33.665 98.026,34.465 97.126,34.465Z" style="fill-rule:nonzero;"/>
    </g>
</svg>
