<?xml version="1.0" encoding="UTF-8" standalone="no"?>
<!DOCTYPE svg PUBLIC "-//W3C//DTD SVG 1.1//EN" "http://www.w3.org/Graphics/SVG/1.1/DTD/svg11.dtd">
<svg width="100%" height="100%" viewBox="0 0 120 96" version="1.1" xmlns="http://www.w3.org/2000/svg" xmlns:xlink="http://www.w3.org/1999/xlink" xml:space="preserve" xmlns:serif="http://www.serif.com/" style="fill-rule:evenodd;clip-rule:evenodd;stroke-linejoin:round;stroke-miterlimit:2;">
    <g transform="matrix(1,0,0,1,0.173793,0)">
        <path d="M115.273,9.878L115.273,84.502C115.273,85.802 114.773,87.102 113.773,88.002C112.773,88.902 111.573,89.502 110.273,89.502L10,89.502C8.7,89.502 7.4,89.002 6.5,88.002C5.5,87.102 5,85.802 5,84.502L5,9.946C5,7.146 7.2,4.946 10,4.946C10,4.946 33.273,4.99 110.273,4.99C113.675,4.99 115.273,7.241 115.273,9.878ZM110.273,9.878L83.844,9.878L83.844,83.502C83.844,84.102 84.244,84.502 84.844,84.502L109.273,84.502C109.573,84.502 109.773,84.402 109.973,84.202C110.173,84.002 110.273,83.802 110.273,83.502L110.273,9.878ZM107.771,77.833L107.771,76.233C107.771,75.333 106.971,74.533 106.071,74.533L88.844,74.533C87.944,74.533 87.144,75.333 87.144,76.233L87.144,77.833C87.144,78.733 87.944,79.533 88.844,79.533L106.071,79.533C106.971,79.533 107.771,78.733 107.771,77.833ZM107.771,68.692L107.771,67.092C107.771,66.192 106.971,65.392 106.071,65.392L88.844,65.392C87.944,65.392 87.144,66.192 87.144,67.092L87.144,68.692C87.144,69.592 87.944,70.392 88.844,70.392L106.071,70.392C106.971,70.392 107.771,69.592 107.771,68.692ZM107.771,59.765L107.771,58.165C107.771,57.265 106.971,56.465 106.071,56.465L88.844,56.465C87.944,56.465 87.144,57.265 87.144,58.165L87.144,59.765C87.144,60.665 87.944,61.465 88.844,61.465L106.071,61.465C106.971,61.465 107.771,60.665 107.771,59.765ZM107.771,50.765L107.771,49.165C107.771,48.265 106.971,47.465 106.071,47.465L88.844,47.465C87.944,47.465 87.144,48.265 87.144,49.165L87.144,50.765C87.144,51.665 87.944,52.465 88.844,52.465L106.071,52.465C106.971,52.465 107.771,51.665 107.771,50.765ZM107.771,41.765L107.771,40.165C107.771,39.265 106.971,38.465 106.071,38.465L88.844,38.465C87.944,38.465 87.144,39.265 87.144,40.165L87.144,41.765C87.144,42.665 87.944,43.465 88.844,43.465L106.071,43.465C106.971,43.465 107.771,42.665 107.771,41.765ZM106.071,34.465L88.844,34.465C87.944,34.465 87.144,33.665 87.144,32.765L87.144,29.308C87.144,28.408 87.944,27.608 88.844,27.608L106.071,27.608C106.971,27.608 107.771,28.408 107.771,29.308L107.771,32.765C107.771,33.665 106.971,34.465 106.071,34.465Z" style="fill-rule:nonzero;"/>
    </g>
</svg>
