<?xml version="1.0" encoding="UTF-8" standalone="no"?>
<!DOCTYPE svg PUBLIC "-//W3C//DTD SVG 1.1//EN" "http://www.w3.org/Graphics/SVG/1.1/DTD/svg11.dtd">
<svg width="100%" height="100%" viewBox="0 0 100 100" version="1.1" xmlns="http://www.w3.org/2000/svg" xmlns:xlink="http://www.w3.org/1999/xlink" xml:space="preserve" xmlns:serif="http://www.serif.com/" style="fill-rule:evenodd;clip-rule:evenodd;stroke-linejoin:round;stroke-miterlimit:2;">
    <g>
        <path d="M90.055,18.158C90.055,11.767 84.867,6.578 78.476,6.578C78.476,6.578 23.01,6.578 23.01,6.578C16.619,6.578 11.431,11.767 11.431,18.158L11.431,79.437C11.431,85.828 16.619,91.016 23.01,91.016L78.476,91.016C84.867,91.016 90.055,85.828 90.055,79.437C90.055,79.437 90.055,18.158 90.055,18.158ZM86.055,55.633L15.431,55.633L15.431,79.437C15.431,83.62 18.827,87.016 23.01,87.016C23.01,87.016 78.476,87.016 78.476,87.016C82.659,87.016 86.055,83.62 86.055,79.437L86.055,55.633ZM73.557,64.641L66.679,64.641L66.679,69.385L73.314,69.385L73.314,72.185L66.679,72.185L66.679,81.582L63.7,81.582L63.7,61.841L73.557,61.841L73.557,64.641ZM30.908,73.565L30.908,81.582L27.929,81.582L27.929,61.841L31.304,61.841C32.958,61.841 34.207,61.956 35.05,62.186C35.903,62.417 36.653,62.851 37.301,63.491C38.434,64.599 39.001,65.996 39.001,67.684C39.001,69.491 38.396,70.923 37.186,71.98C35.975,73.037 34.343,73.565 32.289,73.565L30.908,73.565ZM43.379,81.582L43.379,61.841L47.521,61.841C49.507,61.841 51.075,62.037 52.226,62.429C53.462,62.813 54.583,63.465 55.589,64.386C57.626,66.244 58.644,68.686 58.644,71.712C58.644,74.746 57.583,77.201 55.461,79.076C54.395,80.013 53.279,80.665 52.111,81.032C51.02,81.399 49.473,81.582 47.47,81.582L43.379,81.582ZM46.358,78.782L47.7,78.782C49.038,78.782 50.151,78.641 51.037,78.36C51.924,78.062 52.725,77.588 53.441,76.941C54.907,75.603 55.64,73.859 55.64,71.712C55.64,69.547 54.915,67.791 53.466,66.444C52.162,65.242 50.24,64.641 47.7,64.641L46.358,64.641L46.358,78.782ZM30.908,70.804L32.02,70.804C34.756,70.804 36.124,69.751 36.124,67.646C36.124,65.609 34.714,64.59 31.892,64.59L30.908,64.59L30.908,70.804ZM57.367,34.255C56.278,33.321 55.185,32.152 53.94,30.904C53.081,29.969 52.147,28.645 51.367,27.242C52.847,22.176 53.55,17.346 51.991,15.008C51.291,13.918 50.198,13.37 48.795,13.37C47.237,13.37 46.068,14.07 45.523,15.397C44.275,18.204 46.147,23.345 48.405,27.556C47.781,29.583 47.002,31.763 46.068,34.18C45.523,35.504 44.899,36.828 44.275,38.076C37.885,40.569 33.989,43.376 33.444,46.024C33.21,47.272 33.599,48.362 34.692,49.221C35.316,49.689 36.016,50 36.796,50C37.106,50 37.42,49.921 37.73,49.845C40.692,49.065 43.885,44.7 46.223,40.259C47.626,39.714 49.261,39.169 51.054,38.7C53.157,38.076 55.029,37.61 56.664,37.297C59.702,39.714 62.274,41.038 64.537,41.038C66.25,41.117 67.499,40.493 68.667,39.324C70.381,37.61 69.681,36.128 69.447,35.738C68.043,33.552 63.757,33.087 57.368,34.256L57.367,34.255ZM36.951,47.114C36.64,47.193 36.482,47.114 36.327,47.035C36.016,46.8 36.016,46.645 36.092,46.49C36.247,45.555 38.04,43.841 41.937,41.969C40.068,44.776 38.196,46.8 36.951,47.114L36.951,47.114ZM66.64,37.372C66.095,37.997 65.392,38.231 64.537,38.231C63.368,38.231 61.964,37.686 60.33,36.593C64.85,35.969 67.419,36.438 66.64,37.372L66.64,37.372ZM50.198,35.969C49.419,36.203 48.64,36.438 47.861,36.669C48.095,36.124 48.329,35.579 48.561,35.111C49.106,33.631 49.73,32.149 50.275,30.59C50.899,31.449 51.444,32.228 51.988,32.773C52.689,33.552 53.392,34.252 54.092,34.955C52.847,35.269 51.523,35.579 50.198,35.969L50.198,35.969ZM48.016,16.487C48.095,16.331 48.171,16.097 48.795,16.097C49.34,16.097 49.574,16.331 49.73,16.487C50.43,17.5 50.354,20.073 49.495,23.5C48.171,20.538 47.471,17.735 48.016,16.487L48.016,16.487Z"/>
    </g>
</svg>
