<?xml version="1.0" encoding="UTF-8" standalone="no"?>
<!DOCTYPE svg PUBLIC "-//W3C//DTD SVG 1.1//EN" "http://www.w3.org/Graphics/SVG/1.1/DTD/svg11.dtd">
<svg width="100%" height="100%" viewBox="0 0 48 48" version="1.1" xmlns="http://www.w3.org/2000/svg" xmlns:xlink="http://www.w3.org/1999/xlink" xml:space="preserve" xmlns:serif="http://www.serif.com/" style="fill-rule:evenodd;clip-rule:evenodd;stroke-linejoin:round;stroke-miterlimit:2;">
    <path d="M38.234,23.774C38.234,24.674 37.5,25.297 36.6,25.297L25.8,25.297C25.644,25.297 25.6,25.497 25.6,25.497L25.6,36.3C25.6,37.1 25,37.9 24.1,37.9C23.2,38 22.4,37.305 22.4,36.3L22.4,25.5C22.4,25.329 22.3,25.2 22.1,25.2L11.5,25.2C10.5,25.2 9.7,24.4 9.9,23.4C10,22.6 10.7,22.1 11.5,22L22.2,22C22.341,22 22.4,21.941 22.4,21.8L22.4,11.2C22.4,10.4 23,9.6 23.9,9.6C24.8,9.5 25.5,10.2 25.6,11.2L25.6,21.822C25.6,21.922 25.7,22.048 25.8,22.048L36.4,22.048C37.3,22.048 38.234,22.874 38.234,23.774Z" style="fill-rule:nonzero;"/>
</svg>
