<?xml version="1.0" encoding="UTF-8" standalone="no"?>
<!DOCTYPE svg PUBLIC "-//W3C//DTD SVG 1.1//EN" "http://www.w3.org/Graphics/SVG/1.1/DTD/svg11.dtd">
<svg width="100%" height="100%" viewBox="0 0 100 100" version="1.1" xmlns="http://www.w3.org/2000/svg" xmlns:xlink="http://www.w3.org/1999/xlink" xml:space="preserve" xmlns:serif="http://www.serif.com/" style="fill-rule:evenodd;clip-rule:evenodd;stroke-linejoin:round;stroke-miterlimit:2;">
    <g>
        <path d="M90.055,18.158C90.055,11.767 84.867,6.578 78.476,6.578C78.476,6.578 23.01,6.578 23.01,6.578C16.619,6.578 11.431,11.767 11.431,18.158L11.431,79.437C11.431,85.828 16.619,91.016 23.01,91.016L78.476,91.016C84.867,91.016 90.055,85.828 90.055,79.437C90.055,79.437 90.055,18.158 90.055,18.158ZM86.055,55.633L15.431,55.633L15.431,79.437C15.431,83.62 18.827,87.016 23.01,87.016C23.01,87.016 78.476,87.016 78.476,87.016C82.659,87.016 86.055,83.62 86.055,79.437L86.055,55.633ZM34.732,73.535L34.732,81.552L31.753,81.552L31.753,61.811L35.128,61.811C36.781,61.811 38.03,61.926 38.874,62.156C39.726,62.387 40.476,62.821 41.124,63.46C42.258,64.569 42.825,65.966 42.825,67.654C42.825,69.461 42.219,70.893 41.009,71.95C39.799,73.007 38.167,73.535 36.112,73.535L34.732,73.535ZM50.181,73.535L50.181,81.552L47.202,81.552L47.202,61.811L50.578,61.811C52.231,61.811 53.48,61.926 54.324,62.156C55.176,62.387 55.926,62.821 56.574,63.46C57.708,64.569 58.274,65.966 58.274,67.654C58.274,69.461 57.669,70.893 56.459,71.95C55.249,73.007 53.616,73.535 51.562,73.535L50.181,73.535ZM68.099,64.611L68.099,81.552L65.12,81.552L65.12,64.611L60.581,64.611L60.581,61.811L72.625,61.811L72.625,64.611L68.099,64.611ZM34.732,70.774L35.844,70.774C38.58,70.774 39.948,69.721 39.948,67.616C39.948,65.579 38.537,64.56 35.716,64.56L34.732,64.56L34.732,70.774ZM50.181,70.774L51.294,70.774C54.03,70.774 55.398,69.721 55.398,67.616C55.398,65.579 53.987,64.56 51.166,64.56L50.181,64.56L50.181,70.774ZM26.964,38.618L20.006,38.618L20.006,50L26.964,50L26.964,38.618ZM53.479,29.108L46.521,29.108L46.521,49.991L53.479,49.991L53.479,29.108ZM35.803,22.516L28.844,22.516L28.844,49.962L35.803,49.962L35.803,22.516ZM62.317,44.309L55.359,44.309L55.359,49.918L62.317,49.918L62.317,44.309ZM44.641,31.546L37.683,31.546L37.683,49.863L44.641,49.863L44.641,31.546ZM71.156,22.516L64.197,22.516L64.197,49.863L71.156,49.863L71.156,22.516ZM79.994,14.69L73.036,14.69L73.036,49.863L79.994,49.863L79.994,14.69Z"/>
    </g>
</svg>
