<?xml version="1.0" encoding="UTF-8" standalone="no"?>
<!DOCTYPE svg PUBLIC "-//W3C//DTD SVG 1.1//EN" "http://www.w3.org/Graphics/SVG/1.1/DTD/svg11.dtd">
<svg width="100%" height="100%" viewBox="0 0 48 48" version="1.1" xmlns="http://www.w3.org/2000/svg" xmlns:xlink="http://www.w3.org/1999/xlink" xml:space="preserve" xmlns:serif="http://www.serif.com/" style="fill-rule:evenodd;clip-rule:evenodd;stroke-linejoin:round;stroke-miterlimit:2;">
    <path d="M40.3,7.8C31.3,-1.2 16.8,-1.2 7.8,7.8C-1.2,16.8 -1.2,31.3 7.8,40.3C16.8,49.3 31.3,49.3 40.3,40.3C49.3,31.3 49.2,16.8 40.3,7.8ZM27.213,26.659L33.16,26.659C33.52,27.46 33.69,28.372 33.69,29.406C33.69,34.222 29.901,37.25 23.934,37.25C18.976,37.25 15.577,35.107 14.585,32.133C14.461,31.743 14.373,31.318 14.373,30.893C14.373,29.742 15.081,28.999 16.161,28.999C17.064,28.999 17.648,29.406 18.038,30.362C18.835,32.752 21.154,33.868 24.111,33.868C27.351,33.868 29.671,32.203 29.671,29.919C29.671,28.465 28.947,27.411 27.213,26.659ZM38.443,25.521L9.62,25.521C8.642,25.521 8.044,24.951 8.044,24C8.044,23.063 8.642,22.479 9.62,22.479L38.443,22.479C39.421,22.479 40.018,23.049 40.018,24C40.018,24.937 39.421,25.521 38.443,25.521ZM15.46,21.441C14.942,20.513 14.692,19.444 14.692,18.234C14.692,13.86 18.534,10.85 23.969,10.85C28.378,10.85 31.848,12.922 32.84,16.339C32.928,16.587 32.982,16.888 32.982,17.26C32.982,18.287 32.256,18.96 31.229,18.96C30.273,18.96 29.688,18.517 29.281,17.596C28.413,15.241 26.466,14.232 23.916,14.232C20.924,14.232 18.711,15.684 18.711,18.021C18.711,19.579 19.643,20.702 21.894,21.441L15.46,21.441Z" style="fill-rule:nonzero;"/>
</svg>
