<?xml version="1.0" encoding="UTF-8" standalone="no"?>
<!DOCTYPE svg PUBLIC "-//W3C//DTD SVG 1.1//EN" "http://www.w3.org/Graphics/SVG/1.1/DTD/svg11.dtd">
<svg width="100%" height="100%" viewBox="0 0 48 48" version="1.1" xmlns="http://www.w3.org/2000/svg" xmlns:xlink="http://www.w3.org/1999/xlink" xml:space="preserve" xmlns:serif="http://www.serif.com/" style="fill-rule:evenodd;clip-rule:evenodd;stroke-linejoin:round;stroke-miterlimit:2;">
    <path d="M40.3,7.8C31.3,-1.2 16.8,-1.2 7.8,7.8C-1.2,16.8 -1.2,31.3 7.8,40.3C16.8,49.3 31.3,49.3 40.3,40.3C49.3,31.3 49.2,16.8 40.3,7.8ZM31.149,37.466L16.851,37.466C15.873,37.466 15.275,36.895 15.275,35.944C15.275,35.007 15.873,34.423 16.851,34.423L31.149,34.423C32.127,34.423 32.725,34.993 32.725,35.944C32.725,36.881 32.127,37.466 31.149,37.466ZM24,30.678C28.917,30.678 31.932,27.689 31.932,23.465L31.932,12.11C31.932,11.132 31.362,10.534 30.425,10.534C29.474,10.534 28.903,11.132 28.903,12.11L28.903,23.207C28.903,26.005 27.124,27.975 24,27.975C20.876,27.975 19.11,26.005 19.11,23.207L19.11,12.11C19.11,11.132 18.526,10.534 17.589,10.534C16.638,10.534 16.068,11.132 16.068,12.11L16.068,23.465C16.068,27.689 19.083,30.678 24,30.678Z"/>
</svg>
