<?xml version="1.0" encoding="UTF-8" standalone="no"?>
<!DOCTYPE svg PUBLIC "-//W3C//DTD SVG 1.1//EN" "http://www.w3.org/Graphics/SVG/1.1/DTD/svg11.dtd">
<svg width="100%" height="100%" viewBox="0 0 48 48" version="1.1" xmlns="http://www.w3.org/2000/svg" xmlns:xlink="http://www.w3.org/1999/xlink" xml:space="preserve" xmlns:serif="http://www.serif.com/" style="fill-rule:evenodd;clip-rule:evenodd;stroke-linejoin:round;stroke-miterlimit:2;">
    <g transform="matrix(1,0,0,1,0.0370968,-0.15)">
        <path d="M41,7.4C36.4,2.9 30.4,0.4 24,0.4C17.7,0.4 11.7,2.9 7.3,7.2C2.7,11.7 0.3,17.7 0.1,24C0.1,30.4 2.6,36.4 7,40.9C11.5,45.5 17.5,47.9 24,47.9C30.3,47.9 36.3,45.4 40.7,41.1C50.1,31.9 50.2,16.8 41,7.4ZM38.1,32.1C38.1,32.8 37.5,33.4 36.8,33.4C28.2,34 19.7,34 11.1,33.4C10.4,33.4 9.8,32.8 9.8,32.1C9.5,26.9 9.5,21.6 9.8,16.3C9.8,15.6 10.4,15 11.1,15C19.7,14.4 28.2,14.4 36.8,15C37.5,15 38.1,15.6 38.1,16.3C38.5,21.6 38.5,26.8 38.1,32.1ZM29,24.6L21.3,29C21,29.2 20.7,29 20.7,28.6L20.7,19.7C20.7,19.4 21,19.1 21.3,19.3L29,23.7C29.3,24 29.3,24.4 29,24.6Z" style="fill-rule:nonzero;"/>
    </g>
</svg>
