<?xml version="1.0" encoding="UTF-8" standalone="no"?>
<!DOCTYPE svg PUBLIC "-//W3C//DTD SVG 1.1//EN" "http://www.w3.org/Graphics/SVG/1.1/DTD/svg11.dtd">
<svg width="100%" height="100%" viewBox="0 0 48 48" version="1.1" xmlns="http://www.w3.org/2000/svg" xmlns:xlink="http://www.w3.org/1999/xlink" xml:space="preserve" xmlns:serif="http://www.serif.com/" style="fill-rule:evenodd;clip-rule:evenodd;stroke-linejoin:round;stroke-miterlimit:2;">
    <path d="M41,7.5C31.8,-2 16.7,-2 7.5,7C7.4,7.1 7.3,7.2 7.2,7.2C-2,16.4 -2,31.4 7,40.5C7.1,40.6 7.1,40.6 7.2,40.7C16.4,49.9 31.2,49.9 40.5,40.9C49.9,31.8 50,16.8 41,7.5ZM34,34.3C33.3,34.9 32.3,34.9 31.6,34.2L24,26.6L16.5,34.1C15.8,34.8 14.6,34.9 14,34.2C13.3,33.5 13.3,32.5 14,31.7L21.6,24.1L14,16.4C13.6,16 13.4,15.5 13.4,14.9C13.5,14.4 13.7,13.9 14.1,13.6C14.8,13 15.7,13.1 16.5,13.7L24.1,21.3L31.7,13.7C32.4,13 33.6,12.9 34.2,13.6C34.6,14 34.8,14.4 34.8,14.9C34.9,15.4 34.7,15.9 34.3,16.2L26.5,24L33.9,31.4C34.3,31.7 34.5,32.2 34.5,32.7C34.7,33.3 34.5,33.9 34,34.3Z" style="fill-rule:nonzero;"/>
</svg>
