<?xml version="1.0" encoding="UTF-8" standalone="no"?>
<!DOCTYPE svg PUBLIC "-//W3C//DTD SVG 1.1//EN" "http://www.w3.org/Graphics/SVG/1.1/DTD/svg11.dtd">
<svg width="100%" height="100%" viewBox="0 0 100 100" version="1.1" xmlns="http://www.w3.org/2000/svg" xmlns:xlink="http://www.w3.org/1999/xlink" xml:space="preserve" xmlns:serif="http://www.serif.com/" style="fill-rule:evenodd;clip-rule:evenodd;stroke-linejoin:round;stroke-miterlimit:2;">
    <g>
        <path d="M90.055,18.158C90.055,11.767 84.867,6.578 78.476,6.578C78.476,6.578 23.01,6.578 23.01,6.578C16.619,6.578 11.431,11.767 11.431,18.158L11.431,79.437C11.431,85.828 16.619,91.016 23.01,91.016L78.476,91.016C84.867,91.016 90.055,85.828 90.055,79.437C90.055,79.437 90.055,18.158 90.055,18.158ZM86.055,55.633L15.431,55.633L15.431,79.437C15.431,83.62 18.827,87.016 23.01,87.016C23.01,87.016 78.476,87.016 78.476,87.016C82.659,87.016 86.055,83.62 86.055,79.437L86.055,55.633ZM71.599,64.726L69.183,66.158C68.731,65.374 68.301,64.863 67.892,64.624C67.466,64.351 66.916,64.215 66.242,64.215C65.416,64.215 64.73,64.449 64.184,64.918C63.638,65.378 63.366,65.958 63.366,66.657C63.366,67.62 64.082,68.396 65.514,68.984L67.483,69.789C69.085,70.437 70.257,71.228 70.999,72.161C71.74,73.094 72.111,74.239 72.111,75.594C72.111,77.409 71.506,78.909 70.295,80.094C69.077,81.287 67.564,81.884 65.757,81.884C64.043,81.884 62.628,81.377 61.512,80.363C60.412,79.348 59.726,77.921 59.453,76.08L62.471,75.415C62.607,76.574 62.846,77.375 63.187,77.818C63.8,78.671 64.695,79.097 65.872,79.097C66.801,79.097 67.572,78.786 68.186,78.164C68.799,77.541 69.106,76.753 69.106,75.798C69.106,75.415 69.053,75.063 68.947,74.744C68.84,74.424 68.674,74.13 68.448,73.861C68.222,73.593 67.93,73.341 67.572,73.107C67.214,72.873 66.788,72.649 66.294,72.436L64.389,71.643C61.687,70.501 60.336,68.83 60.336,66.631C60.336,65.148 60.902,63.908 62.036,62.911C63.17,61.905 64.58,61.402 66.268,61.402C68.544,61.402 70.321,62.51 71.599,64.726ZM50.422,61.786L50.422,78.726L56.226,78.726L56.226,81.526L47.443,81.526L47.443,61.786L50.422,61.786ZM34.09,71.208L28.656,61.786L32.044,61.786L35.816,68.472L39.779,61.786L43.193,61.786L37.504,71.208L43.474,81.526L40.137,81.526L35.765,73.97L31.264,81.526L27.889,81.526L34.09,71.208ZM34.05,43.058L21.605,43.058L21.605,50L34.05,50L34.05,43.058ZM49.079,42.983L36.634,42.983L36.634,49.924L49.079,49.924L49.079,42.983ZM64.109,42.827L51.663,42.827L51.663,49.769L64.109,49.769L64.109,42.827ZM79.138,42.827L66.692,42.827L66.692,49.769L79.138,49.769L79.138,42.827ZM33.989,33.419L21.543,33.419L21.543,40.361L33.989,40.361L33.989,33.419ZM49.018,33.344L36.573,33.344L36.573,40.285L49.018,40.285L49.018,33.344ZM64.047,33.188L51.602,33.188L51.602,40.13L64.047,40.13L64.047,33.188ZM79.077,33.188L66.631,33.188L66.631,40.13L79.077,40.13L79.077,33.188ZM33.907,23.78L21.461,23.78L21.461,30.722L33.907,30.722L33.907,23.78ZM48.936,23.704L36.491,23.704L36.491,30.646L48.936,30.646L48.936,23.704ZM63.965,23.549L51.52,23.549L51.52,30.491L63.965,30.491L63.965,23.549ZM78.995,23.549L66.549,23.549L66.549,30.491L78.995,30.491L78.995,23.549ZM33.807,14.141L21.362,14.141L21.362,21.083L33.807,21.083L33.807,14.141ZM48.837,14.065L36.391,14.065L36.391,21.007L48.837,21.007L48.837,14.065ZM63.866,13.91L51.421,13.91L51.421,20.852L63.866,20.852L63.866,13.91ZM78.895,13.91L66.45,13.91L66.45,20.852L78.895,20.852L78.895,13.91Z"/>
    </g>
</svg>
